<svg version="1.2" xmlns="http://www.w3.org/2000/svg" viewBox="0 0 500 500" width="500" height="500">
	<title>_calendly-svg</title>
	<style>
		.s0 { fill: #3664ae } 
		.s1 { fill: #5fc2d6 } 
	</style>
	<path id="Layer" class="s0" d="m333.3 319.3c-14.8 12.8-33.2 28.8-66.7 28.8h-20c-24.3 0-46.3-8.6-62.1-24.2-15.3-15.3-23.8-36.3-23.8-59v-26.9c0-22.7 8.4-43.6 23.8-58.9 15.8-15.6 37.8-24.3 62.1-24.3h20c33.5 0 51.9 16 66.7 28.9 15.3 13.3 28.6 24.8 63.9 24.8q8.2 0 16-1.2 0-0.2-0.1-0.3c-2.1-5.1-4.5-10.1-7.4-15l-23.6-40.1c-21.6-36.8-61.7-59.4-105-59.4h-47.2c-43.3 0-83.3 22.6-105 59.4l-23.6 40.1c-21.6 36.8-21.6 82.1 0 118.9l23.6 40.1c21.7 36.8 61.7 59.5 105 59.5h47.2c43.3 0 83.4-22.7 105-59.5l23.6-40.1q4.3-7.2 7.4-14.9 0.1-0.2 0.1-0.3-7.8-1.3-16-1.3c-35.3 0-48.6 11.5-63.9 24.9z"/>
	<path id="Layer" class="s0" d="m266.6 179.2h-20c-36.9 0-61.1 25.8-61.1 58.9v26.8c0 33.1 24.2 58.9 61.1 58.9h20c53.7 0 49.5-53.7 130.6-53.7 7.7 0 15.4 0.7 22.9 2.1 2.4-13.7 2.4-27.7 0-41.4-7.5 1.4-15.2 2.1-22.9 2.1-81.1 0-76.9-53.7-130.6-53.7z"/>
	<path id="Layer" class="s0" d="m466.7 291.8c-13.9-10.1-29.8-16.6-46.6-19.7q-0.1 0.2-0.1 0.4c-1.4 7.9-3.7 15.6-6.8 23.1 14.2 2.3 27.3 7.5 38.5 15.6q0 0.2-0.1 0.4c-6.4 20.5-16.2 39.9-28.9 57.6-12.6 17.4-27.8 32.7-45.2 45.5-36.2 26.7-79.3 40.7-124.6 40.7-28.1 0-55.4-5.4-81-16-24.7-10.3-47-25-66.1-43.7-19.1-18.8-34.1-40.6-44.6-64.9-10.8-25.1-16.3-51.8-16.3-79.4 0-27.5 5.5-54.2 16.3-79.4 10.5-24.3 25.5-46.1 44.6-64.8 19.1-18.8 41.4-33.5 66.1-43.8 25.6-10.6 52.9-16 81-16 45.3 0 88.4 14.1 124.6 40.7 17.4 12.8 32.6 28.2 45.2 45.6 12.7 17.6 22.5 37 28.9 57.6q0.1 0.2 0.1 0.3c-11.1 8.1-24.3 13.3-38.5 15.6 3.1 7.5 5.4 15.3 6.8 23.2q0 0.2 0.1 0.3c16.8-3 32.7-9.6 46.6-19.6 13.2-9.6 10.7-20.5 8.7-27-29.3-93.2-117.9-161-222.5-161-128.6 0-232.8 102.2-232.8 228.3 0 126.1 104.2 228.4 232.8 228.4 104.6 0 193.2-67.8 222.5-161.1 2-6.4 4.6-17.3-8.7-26.9z"/>
	<path id="Layer" class="s1" d="m413.3 207.3q-7.9 1.2-16.1 1.2c-35.3 0-48.6-11.5-63.9-24.8-14.8-12.9-33.2-28.9-66.7-28.9h-20c-24.3 0-46.3 8.6-62.1 24.3-15.3 15.3-23.8 36.2-23.8 58.9v26.9c0 22.7 8.4 43.6 23.8 58.9 15.8 15.7 37.8 24.3 62.1 24.3h20c33.5 0 51.9-16 66.7-28.9 15.3-13.3 28.6-24.8 63.9-24.8q8.2 0 16 1.2c3.1-7.5 5.4-15.2 6.8-23.1q0.1-0.2 0.1-0.4c-7.5-1.3-15.2-2-22.9-2-81.1 0-76.9 53.7-130.6 53.7h-20c-36.9 0-61.1-25.9-61.1-58.9v-26.9c0-33 24.2-58.9 61.1-58.9h20c53.7 0 49.5 53.8 130.6 53.8 7.7 0 15.4-0.7 22.9-2.1q0-0.2-0.1-0.4c-1.4-7.8-3.7-15.6-6.8-23.1z"/>
	<path id="Layer" class="s1" d="m413.3 207.3q-7.9 1.2-16.1 1.2c-35.3 0-48.6-11.5-63.9-24.8-14.8-12.9-33.2-28.9-66.7-28.9h-20c-24.3 0-46.3 8.6-62.1 24.3-15.3 15.3-23.8 36.2-23.8 58.9v26.9c0 22.7 8.4 43.6 23.8 58.9 15.8 15.7 37.8 24.3 62.1 24.3h20c33.5 0 51.9-16 66.7-28.9 15.3-13.3 28.6-24.8 63.9-24.8q8.2 0 16 1.2c3.1-7.5 5.4-15.2 6.8-23.1q0.1-0.2 0.1-0.4c-7.5-1.3-15.2-2-22.9-2-81.1 0-76.9 53.7-130.6 53.7h-20c-36.9 0-61.1-25.9-61.1-58.9v-26.9c0-33 24.2-58.9 61.1-58.9h20c53.7 0 49.5 53.8 130.6 53.8 7.7 0 15.4-0.7 22.9-2.1q0-0.2-0.1-0.4c-1.4-7.8-3.7-15.6-6.8-23.1z"/>
</svg>