<svg width="48" height="48" viewBox="0 0 48 48" fill="none" xmlns="http://www.w3.org/2000/svg">
<g clip-path="url(#clip0_4086_81230)">
<path d="M39.3094 28.524C39.8707 28.5253 40.4227 28.568 40.9654 28.652C40.9654 28.662 40.9554 28.672 40.9554 28.68C40.7399 29.2218 40.4853 29.7472 40.1934 30.252L37.7554 34.464C36.6606 36.3659 35.0838 37.9454 33.1838 39.0434C31.2838 40.1414 29.1279 40.719 26.9334 40.718H22.0694C19.875 40.7174 17.7195 40.1391 15.8195 39.0413C13.9194 37.9434 12.3419 36.3648 11.2454 34.464L8.80941 30.252C7.71156 28.3513 7.13357 26.195 7.13357 24C7.13357 21.805 7.71156 19.6487 8.80941 17.748L11.2454 13.536C12.3403 11.6338 13.9175 10.0541 15.8179 8.95606C17.7183 7.85804 19.8746 7.28061 22.0694 7.282H26.9334C29.1274 7.28299 31.2826 7.86145 33.1822 8.95924C35.0819 10.057 36.6591 11.6355 37.7554 13.536L40.1934 17.748C40.4874 18.252 40.7354 18.786 40.9554 19.32C40.9554 19.328 40.9654 19.338 40.9654 19.348C40.4174 19.4323 39.8638 19.4751 39.3094 19.476C35.6774 19.476 34.3074 18.262 32.7274 16.864C31.1994 15.512 29.3054 13.83 25.8474 13.83H23.7894C21.2874 13.83 19.0154 14.74 17.3894 16.386C15.7974 17.996 14.9234 20.194 14.9234 22.584V25.406C14.9234 27.798 15.7974 29.996 17.3894 31.604C19.0154 33.25 21.2874 34.16 23.7894 34.16H25.8574C29.3154 34.16 31.2094 32.478 32.7354 31.126C34.3174 29.72 35.6774 28.514 39.3094 28.524ZM39.3194 22.05C40.1194 22.05 40.9054 21.9767 41.6774 21.83C41.6734 21.8207 41.6721 21.8113 41.6734 21.802C41.5232 20.9686 41.2893 20.1525 40.9754 19.366C42.4101 19.1411 43.7712 18.5798 44.9474 17.728C44.9474 17.72 44.9374 17.702 44.9374 17.692C44.2749 15.5259 43.2694 13.4799 41.9594 11.632C40.6609 9.80517 39.0884 8.18952 37.2974 6.842C33.5924 4.05412 29.0782 2.55265 24.4414 2.566C21.5454 2.566 18.7314 3.126 16.0914 4.248C13.5454 5.334 11.2454 6.878 9.27741 8.846C7.30941 10.814 5.75541 13.104 4.68141 15.66C3.5662 18.3024 2.99353 21.1419 2.99741 24.01C2.99741 26.906 3.55941 29.72 4.68141 32.358C5.76541 34.906 7.30941 37.204 9.27741 39.172C11.2454 41.14 13.5354 42.694 16.0914 43.77C18.7394 44.882 21.5454 45.452 24.4414 45.452C29.1214 45.452 33.5634 43.972 37.2974 41.178C39.0907 39.8323 40.6635 38.2156 41.9594 36.386C43.2636 34.5346 44.2686 32.4896 44.9374 30.326C44.9374 30.318 44.9474 30.298 44.9474 30.29C43.7712 29.4382 42.4101 28.8769 40.9754 28.652C41.2974 27.862 41.5274 27.044 41.6734 26.216C41.6834 26.198 41.6834 26.188 41.6834 26.17C43.4218 26.488 45.0656 27.1957 46.4914 28.24C47.8614 29.25 47.5954 30.39 47.3834 31.072C44.3674 40.874 35.2374 48 24.4414 48C11.1914 48 0.441406 37.25 0.441406 24C0.441406 10.75 11.1814 0 24.4414 0C35.2374 0 44.3674 7.126 47.3834 16.928C47.5954 17.61 47.8614 18.758 46.4914 19.77C45.0672 20.8166 43.4227 21.5239 41.6834 21.838C41.9394 23.27 41.9394 24.738 41.6834 26.17C40.9041 26.0224 40.1126 25.9488 39.3194 25.95C30.9514 25.95 31.3834 31.596 25.8474 31.596H23.7894C19.9914 31.596 17.4894 28.882 17.4894 25.406V22.584C17.4894 19.108 19.9914 16.396 23.7894 16.396H25.8574C31.3934 16.396 30.9614 22.042 39.3194 22.05Z" fill="#006BFF"/>
</g>
<defs>
<clipPath id="clip0_4086_81230">
<rect width="48" height="48" fill="white"/>
</clipPath>
</defs>
</svg>
