<svg width="44" height="48" viewBox="0 0 44 48" fill="none" xmlns="http://www.w3.org/2000/svg">
<path d="M43.2674 41.9042C43.2763 43.6108 42.5524 45.2391 41.2795 46.3758C40.0065 47.5125 38.307 48.0482 36.6123 47.8469C33.5627 47.3957 31.3279 44.7419 31.4022 41.6599V6.22736C31.3286 3.1421 33.5688 0.487005 36.6224 0.0403937C38.3155 -0.157771 40.0123 0.379361 41.2829 1.5157C42.5535 2.65204 43.276 4.27855 43.2674 5.98314V41.9042Z" fill="#F9AB00"/>
<path d="M5.93257 36.0324C9.20903 36.0324 11.8651 38.6885 11.8651 41.9649C11.8651 45.2414 9.20903 47.8975 5.93257 47.8975C2.6561 47.8975 0 45.2414 0 41.9649C0 38.6885 2.6561 36.0324 5.93257 36.0324ZM21.5424 18.0515C18.2505 18.2319 15.6963 20.9933 15.7727 24.2893V40.2248C15.7727 44.5496 17.6756 47.175 20.4638 47.7347C22.2142 48.0894 24.0314 47.6381 25.4124 46.5057C26.7935 45.3732 27.592 43.6797 27.587 41.8937V24.0146C27.5899 22.418 26.9513 20.8872 25.8148 19.7659C24.6782 18.6446 23.1388 18.0269 21.5424 18.0515Z" fill="#E37400"/>
</svg>
