<svg width="48" height="48" viewBox="0 0 48 48" fill="none" xmlns="http://www.w3.org/2000/svg">
<g clip-path="url(#clip0_4086_81214)">
<path d="M36.6321 11.3691H11.3691V36.6321H36.6321V11.3691Z" fill="white"/>
<path d="M36.6312 48.0004L47.9997 36.6319L42.3154 35.6621L36.6312 36.6319L35.5938 41.8312L36.6312 48.0004Z" fill="#EA4335"/>
<path d="M0 36.6319V44.2108C0 46.3046 1.69575 48.0004 3.78937 48.0004H11.3685L12.5357 42.3161L11.3685 36.6319L5.17481 35.6621L0 36.6319Z" fill="#188038"/>
<path d="M47.9997 11.3685V3.78937C47.9997 1.69575 46.3039 0 44.2103 0H36.6312C35.9397 2.81925 35.5938 4.89394 35.5938 6.22425C35.5938 7.55437 35.9397 9.26925 36.6312 11.3685C39.1456 12.0885 41.0402 12.4485 42.3154 12.4485C43.5906 12.4485 45.4853 12.0885 47.9997 11.3685Z" fill="#1967D2"/>
<path d="M47.9994 11.3691H36.6309V36.6321H47.9994V11.3691Z" fill="#FBBC04"/>
<path d="M36.6321 36.6309H11.3691V47.9994H36.6321V36.6309Z" fill="#34A853"/>
<path d="M36.6315 0H3.78956C1.69575 0 0 1.69575 0 3.78937V36.6315H11.3685V11.3685H36.6315V0Z" fill="#4285F4"/>
<path d="M16.5506 30.9658C15.6063 30.3279 14.9525 29.3964 14.5957 28.1646L16.7874 27.2616C16.9861 28.0194 17.3336 28.6069 17.8295 29.0237C18.3221 29.4405 18.9221 29.6458 19.6231 29.6458C20.34 29.6458 20.9557 29.4279 21.4704 28.992C21.9853 28.5563 22.2442 28.0005 22.2442 27.3279C22.2442 26.6394 21.9725 26.0773 21.4295 25.6416C20.8863 25.2058 20.2042 24.9879 19.3895 24.9879H18.1231V22.8186H19.26C19.961 22.8186 20.5515 22.629 21.0315 22.2499C21.5115 21.8711 21.7515 21.3531 21.7515 20.6931C21.7515 20.1058 21.5368 19.6384 21.1074 19.2879C20.678 18.9373 20.1346 18.7605 19.4746 18.7605C18.8304 18.7605 18.3189 18.9311 17.94 19.2752C17.5612 19.6203 17.2765 20.0561 17.1125 20.5416L14.9431 19.6384C15.2304 18.8237 15.7578 18.1037 16.5315 17.4816C17.3053 16.8594 18.2936 16.5469 19.4936 16.5469C20.381 16.5469 21.18 16.7175 21.8874 17.0616C22.5946 17.4058 23.1504 17.8826 23.5515 18.489C23.9527 19.0984 24.1515 19.7805 24.1515 20.5384C24.1515 21.312 23.9653 21.9658 23.5927 22.5026C23.22 23.0394 22.7621 23.4499 22.2189 23.7373V23.8667C22.9203 24.1559 23.5295 24.6308 23.981 25.2405C24.4389 25.8563 24.6695 26.592 24.6695 27.4511C24.6695 28.3099 24.4515 29.0773 24.0157 29.7499C23.58 30.4226 22.977 30.9531 22.2125 31.3384C21.4453 31.7237 20.5831 31.9196 19.6263 31.9196C18.5178 31.9226 17.4948 31.6037 16.5506 30.9658ZM30.0123 20.0899L27.6061 21.8299L26.403 20.0048L30.7198 16.8909H32.3745V31.5784H30.0123V20.0899Z" fill="#4285F4"/>
</g>
<defs>
<clipPath id="clip0_4086_81214">
<rect width="48" height="48" fill="white"/>
</clipPath>
</defs>
</svg>
