<svg width="48" height="48" viewBox="0 0 48 48" fill="none" xmlns="http://www.w3.org/2000/svg">
<path d="M22.6369 25.09H15.8209V21.272H22.6409V25.092L22.6369 25.09ZM29.4569 0V12H41.4569L29.4569 0ZM32.1829 21.272H25.3629V25.092H32.1829V21.272ZM32.1829 27.818H25.3629V31.638H32.1829V27.818ZM41.4549 13V44.728C41.4549 46.536 39.9909 48 38.1829 48H9.81887C9.38919 48 8.96371 47.9154 8.56673 47.7509C8.16976 47.5865 7.80906 47.3455 7.50522 47.0417C6.8916 46.428 6.54688 45.5958 6.54688 44.728V3.272C6.54688 1.464 8.01087 0 9.81887 0H28.4549V13H41.4549ZM34.9089 18.546H13.0909V34.364H34.9109V18.544L34.9089 18.546ZM22.6369 27.818H15.8209V31.638H22.6409V27.818H22.6369Z" fill="#42A148"/>
</svg>
