<svg width="48" height="62" viewBox="0 0 48 62" fill="none" xmlns="http://www.w3.org/2000/svg">
<g clip-path="url(#clip0_4086_81241)">
<mask id="mask0_4086_81241" style="mask-type:luminance" maskUnits="userSpaceOnUse" x="0" y="0" width="48" height="61">
<path d="M45.9053 12.0821L26.0721 0.637064C25.44 0.270932 24.7224 0.078125 23.9919 0.078125C23.2615 0.078125 22.5439 0.270932 21.9118 0.637064L2.07506 12.0819C1.44383 12.449 0.919975 12.9754 0.555843 13.6083C0.191712 14.2413 4.88645e-05 14.9588 0 15.689L0 38.5961C0.000517688 39.3248 0.192471 40.0407 0.556644 40.672C0.920817 41.3033 1.44443 41.8278 2.07506 42.1931L11.9985 47.9291V59.6238C11.9994 59.8425 12.0577 60.0572 12.1676 60.2463C12.2775 60.4354 12.4352 60.5923 12.6248 60.7013C12.8144 60.8103 13.0294 60.8675 13.2481 60.8673C13.4668 60.8671 13.6816 60.8094 13.8711 60.7001L45.9255 42.2032C46.5569 41.8387 47.0811 41.3144 47.4454 40.6829C47.8097 40.0515 48.0012 39.3352 48.0007 38.6062V15.6856C47.9969 14.9542 47.8014 14.2366 47.4337 13.6043C47.0661 12.972 46.539 12.4471 45.9053 12.0821" fill="white"/>
</mask>
<g mask="url(#mask0_4086_81241)">
<path d="M47.9805 13.2891L23.997 27.1401L0 13.2891V40.9909L11.9985 47.9113V61.7655L47.9805 40.9909V13.2891Z" fill="#EF6C00"/>
</g>
<mask id="mask1_4086_81241" style="mask-type:luminance" maskUnits="userSpaceOnUse" x="0" y="0" width="48" height="61">
<path d="M45.9053 12.0821L26.0721 0.637064C25.44 0.270932 24.7224 0.078125 23.9919 0.078125C23.2615 0.078125 22.5439 0.270932 21.9118 0.637064L2.07506 12.0819C1.44383 12.449 0.919975 12.9754 0.555843 13.6083C0.191712 14.2413 4.88645e-05 14.9588 0 15.689L0 38.5961C0.000517688 39.3248 0.192471 40.0407 0.556644 40.672C0.920817 41.3033 1.44443 41.8278 2.07506 42.1931L11.9985 47.9291V59.6238C11.9994 59.8425 12.0577 60.0572 12.1676 60.2463C12.2775 60.4354 12.4352 60.5923 12.6248 60.7013C12.8144 60.8103 13.0294 60.8675 13.2481 60.8673C13.4668 60.8671 13.6816 60.8094 13.8711 60.7001L45.9255 42.2032C46.5569 41.8387 47.0811 41.3144 47.4454 40.6829C47.8097 40.0515 48.0012 39.3352 48.0007 38.6062V15.6856C47.9969 14.9542 47.8014 14.2366 47.4337 13.6043C47.0661 12.972 46.539 12.4471 45.9053 12.0821" fill="white"/>
</mask>
<g mask="url(#mask1_4086_81241)">
<path d="M23.997 27.1413L0 13.2903L23.997 -0.560547L47.9805 13.2903L23.997 27.1413Z" fill="#FF9800"/>
</g>
<mask id="mask2_4086_81241" style="mask-type:luminance" maskUnits="userSpaceOnUse" x="0" y="0" width="48" height="61">
<path d="M45.9053 12.0821L26.0721 0.637064C25.44 0.270932 24.7224 0.078125 23.9919 0.078125C23.2615 0.078125 22.5439 0.270932 21.9118 0.637064L2.07506 12.0819C1.44383 12.449 0.919975 12.9754 0.555843 13.6083C0.191712 14.2413 4.88645e-05 14.9588 0 15.689L0 38.5961C0.000517688 39.3248 0.192471 40.0407 0.556644 40.672C0.920817 41.3033 1.44443 41.8278 2.07506 42.1931L11.9985 47.9291V59.6238C11.9994 59.8425 12.0577 60.0572 12.1676 60.2463C12.2775 60.4354 12.4352 60.5923 12.6248 60.7013C12.8144 60.8103 13.0294 60.8675 13.2481 60.8673C13.4668 60.8671 13.6816 60.8094 13.8711 60.7001L45.9255 42.2032C46.5569 41.8387 47.0811 41.3144 47.4454 40.6829C47.8097 40.0515 48.0012 39.3352 48.0007 38.6062V15.6856C47.9969 14.9542 47.8014 14.2366 47.4337 13.6043C47.0661 12.972 46.539 12.4471 45.9053 12.0821" fill="white"/>
</mask>
<g mask="url(#mask2_4086_81241)">
<path d="M23.5718 26.7181L0.151875 13.1981L0 13.289L23.997 27.14L47.9805 13.289L47.4169 12.9551L23.5718 26.7181Z" fill="#FF9800"/>
</g>
<mask id="mask3_4086_81241" style="mask-type:luminance" maskUnits="userSpaceOnUse" x="0" y="0" width="48" height="61">
<path d="M45.9053 12.0821L26.0721 0.637064C25.44 0.270932 24.7224 0.078125 23.9919 0.078125C23.2615 0.078125 22.5439 0.270932 21.9118 0.637064L2.07506 12.0819C1.44383 12.449 0.919975 12.9754 0.555843 13.6083C0.191712 14.2413 4.88645e-05 14.9588 0 15.689L0 38.5961C0.000517688 39.3248 0.192471 40.0407 0.556644 40.672C0.920817 41.3033 1.44443 41.8278 2.07506 42.1931L11.9985 47.9291V59.6238C11.9994 59.8425 12.0577 60.0572 12.1676 60.2463C12.2775 60.4354 12.4352 60.5923 12.6248 60.7013C12.8144 60.8103 13.0294 60.8675 13.2481 60.8673C13.4668 60.8671 13.6816 60.8094 13.8711 60.7001L45.9255 42.2032C46.5569 41.8387 47.0811 41.3144 47.4454 40.6829C47.8097 40.0515 48.0012 39.3352 48.0007 38.6062V15.6856C47.9969 14.9542 47.8014 14.2366 47.4337 13.6043C47.0661 12.972 46.539 12.4471 45.9053 12.0821" fill="white"/>
</mask>
<g mask="url(#mask3_4086_81241)">
<path d="M23.997 27.3132V27.1411L0.151875 13.3711L0 13.4622L23.997 27.3132Z" fill="#FF9800"/>
</g>
</g>
<defs>
<clipPath id="clip0_4086_81241">
<rect width="48" height="61.125" fill="white"/>
</clipPath>
</defs>
</svg>
