<svg width="48" height="48" viewBox="0 0 48 48" fill="none" xmlns="http://www.w3.org/2000/svg">
<path d="M36.3287 15.8599V10.1679C37.0817 9.81535 37.7194 9.2566 38.1679 8.55645C38.6164 7.8563 38.8573 7.0434 38.8627 6.21195V6.07795C38.8596 4.9155 38.3965 3.80153 37.5747 2.97937C36.7529 2.1572 35.6392 1.69364 34.4767 1.68995H34.3427C33.1806 1.69364 32.0672 2.15692 31.2454 2.97866C30.4237 3.80039 29.9604 4.91385 29.9567 6.07595V6.20995C29.9613 7.03648 30.1987 7.84499 30.6415 8.54288C31.0844 9.24076 31.7148 9.7998 32.4607 10.1559L32.4867 10.1679V15.8719C30.3099 16.2026 28.2603 17.1069 26.5487 18.4919L26.5727 18.4719L10.9167 6.28195C11.2148 5.16526 11.1163 3.97976 10.6381 2.92757C10.1598 1.87537 9.33143 1.02163 8.29412 0.511907C7.25681 0.00218254 6.07481 -0.131966 4.94965 0.132333C3.82449 0.396632 2.82584 1.04302 2.12397 1.96127C1.42209 2.87953 1.06044 4.01282 1.10069 5.1679C1.14093 6.32298 1.58057 7.42834 2.34466 8.29553C3.10874 9.16271 4.14996 9.73802 5.29078 9.92337C6.43161 10.1087 7.6014 9.89263 8.60072 9.31195L8.57672 9.32395L23.9707 21.3059C22.6125 23.3475 21.8901 25.7459 21.8947 28.1979C21.8888 30.7829 22.6908 33.3052 24.1887 35.4119L24.1627 35.372L19.4787 40.0579C19.1035 39.9378 18.7126 39.8738 18.3187 39.868H18.3147C17.5105 39.868 16.7244 40.1064 16.0558 40.5532C15.3871 41 14.866 41.635 14.5582 42.378C14.2505 43.1209 14.17 43.9385 14.3268 44.7272C14.4837 45.5159 14.871 46.2404 15.4396 46.809C16.0083 47.3777 16.7328 47.7649 17.5215 47.9218C18.3102 48.0787 19.1277 47.9982 19.8707 47.6904C20.6137 47.3827 21.2487 46.8615 21.6955 46.1929C22.1423 45.5242 22.3807 44.7381 22.3807 43.9339C22.3746 43.5295 22.3072 43.1282 22.1807 42.7439L22.1907 42.7719L26.8247 38.138C28.3351 39.2904 30.0885 40.0833 31.9514 40.4562C33.8143 40.8291 35.7378 40.7723 37.5754 40.29C39.4131 39.8077 41.1165 38.9126 42.5562 37.6729C43.9959 36.4332 45.1339 34.8815 45.8837 33.1358C46.6335 31.3902 46.9752 29.4965 46.883 27.5988C46.7908 25.7012 46.267 23.8495 45.3515 22.1848C44.436 20.52 43.1529 19.086 41.5998 17.9917C40.0467 16.8974 38.2645 16.1718 36.3887 15.8699L36.3167 15.8599H36.3287ZM34.4007 34.616C33.1334 34.6124 31.8956 34.2334 30.8435 33.5267C29.7915 32.8201 28.9725 31.8176 28.4898 30.6457C28.0072 29.4739 27.8827 28.1853 28.132 26.9428C28.3813 25.7002 28.9932 24.5594 29.8904 23.6644C30.7877 22.7693 31.93 22.1603 33.1732 21.9141C34.4164 21.6679 35.7046 21.7957 36.8752 22.2812C38.0459 22.7667 39.0464 23.5883 39.7504 24.6421C40.4544 25.6958 40.8303 26.9346 40.8307 28.2019V28.2059C40.831 29.0483 40.6653 29.8825 40.343 30.6608C40.0208 31.4391 39.5483 32.1463 38.9527 32.7419C38.357 33.3376 37.6499 33.81 36.8716 34.1322C36.0933 34.4545 35.2591 34.6202 34.4167 34.6199L34.4007 34.616Z" fill="#F7781D"/>
</svg>
