<svg width="48" height="48" viewBox="0 0 48 48" fill="none" xmlns="http://www.w3.org/2000/svg">
<g clip-path="url(#clip0_4086_81223)">
<path d="M10.2207 30.2693C10.2207 33.018 7.97895 35.2631 5.22983 35.2631C2.4807 35.2631 0.236328 33.018 0.236328 30.2693C0.236328 27.5205 2.48145 25.2754 5.2302 25.2754H10.2211L10.2207 30.2693ZM12.7366 30.2693C12.7366 27.5205 14.9817 25.2754 17.7305 25.2754C20.4792 25.2754 22.7243 27.5201 22.7243 30.2693V42.7699C22.7243 45.5186 20.4796 47.7638 17.7305 47.7638C14.9817 47.7638 12.7366 45.5186 12.7366 42.7699V30.2693Z" fill="#DE1C59"/>
<path d="M17.7305 10.2207C14.9817 10.2207 12.7366 7.97895 12.7366 5.22983C12.7366 2.4807 14.9817 0.236328 17.7305 0.236328C20.4792 0.236328 22.7243 2.48145 22.7243 5.2302V10.2211L17.7305 10.2207ZM17.7305 12.7366C20.4792 12.7366 22.7243 14.9817 22.7243 17.7305C22.7243 20.4792 20.4796 22.7243 17.7305 22.7243H5.22983C2.48108 22.7243 0.236328 20.4796 0.236328 17.7305C0.236328 14.9817 2.48145 12.7366 5.2302 12.7366H17.7305Z" fill="#35C5F0"/>
<path d="M37.779 17.7305C37.779 14.9817 40.0208 12.7366 42.7699 12.7366C45.519 12.7366 47.7638 14.9817 47.7638 17.7305C47.7638 20.4792 45.5186 22.7243 42.7699 22.7243H37.779V17.7305ZM35.2631 17.7305C35.2631 20.4792 33.018 22.7243 30.2693 22.7243C27.5205 22.7243 25.2754 20.4796 25.2754 17.7305V5.22983C25.2754 2.48108 27.5201 0.236328 30.2693 0.236328C33.018 0.236328 35.2631 2.48145 35.2631 5.2302V17.7305Z" fill="#2EB57D"/>
<path d="M30.2693 37.779C33.018 37.779 35.2631 40.0208 35.2631 42.7699C35.2631 45.519 33.018 47.7638 30.2693 47.7638C27.5205 47.7638 25.2754 45.5186 25.2754 42.7699V37.779H30.2693ZM30.2693 35.2631C27.5205 35.2631 25.2754 33.018 25.2754 30.2693C25.2754 27.5205 27.5201 25.2754 30.2693 25.2754H42.7699C45.5186 25.2754 47.7638 27.5201 47.7638 30.2693C47.7638 33.018 45.5186 35.2631 42.7699 35.2631H30.2693Z" fill="#EBB02E"/>
</g>
<defs>
<clipPath id="clip0_4086_81223">
<rect width="48" height="48" fill="white"/>
</clipPath>
</defs>
</svg>
