<svg width="48" height="17" viewBox="0 0 48 17" fill="none" xmlns="http://www.w3.org/2000/svg">
<g clip-path="url(#clip0_4086_81259)">
<path d="M48.0008 3.66016V15.0414L46.4258 16.5789V5.44141L48.0008 3.66016Z" fill="#E79225"/>
<path d="M37.6781 3.66953L36.0469 5.44141L36.1312 5.55391L46.3594 5.51641L46.4531 5.44141L48 3.66016L37.6781 3.66953Z" fill="#FFF16D"/>
<path d="M36.0469 5.44141H46.4531V16.5883H36.0469V5.44141Z" fill="url(#paint0_linear_4086_81259)"/>
<path d="M44.868 9.45312C44.6617 8.9375 44.3523 8.46875 43.9492 8.06562C43.5648 7.67187 43.1336 7.37187 42.6461 7.175C42.168 6.97812 41.6523 6.875 41.0898 6.875C40.5273 6.875 40.0023 6.97812 39.5242 7.175C39.0367 7.37187 38.6055 7.67187 38.2211 8.06562C37.818 8.46875 37.518 8.9375 37.3117 9.45312C37.1055 9.96875 37.0117 10.5312 37.0117 11.15C37.0117 11.75 37.1148 12.3125 37.3211 12.8375C37.5273 13.3625 37.8273 13.8313 38.2305 14.2438C38.6055 14.6281 39.0367 14.9187 39.5148 15.1156C39.993 15.3125 40.5273 15.4156 41.0992 15.4156C41.6523 15.4156 42.168 15.3125 42.6461 15.1156C43.1242 14.9187 43.5648 14.6281 43.9492 14.2438C44.3523 13.8313 44.6617 13.3625 44.868 12.8469C45.0742 12.3312 45.1773 11.7594 45.1773 11.1594C45.1773 10.5312 45.0742 9.96875 44.868 9.45312ZM42.7211 13.1281C42.318 13.6062 41.7836 13.85 41.0898 13.85C40.3961 13.85 39.8523 13.6062 39.4492 13.1281C39.0461 12.65 38.8492 11.9844 38.8492 11.1406C38.8492 10.2781 39.0555 9.6125 39.4492 9.125C39.8523 8.6375 40.3867 8.40313 41.0898 8.40313C41.7836 8.40313 42.318 8.64688 42.7211 9.125C43.1148 9.6125 43.3211 10.2781 43.3211 11.1406C43.3211 11.9844 43.1242 12.65 42.7211 13.1281Z" fill="white"/>
<path d="M35.0242 2.73047V2.78672L36.3555 13.0148L35.5773 15.1711L35.4742 15.0961L34.1055 5.28984L34.1336 5.15859L34.9867 2.78672L35.0242 2.73047Z" fill="#009ADA"/>
<path d="M24.7777 4.15547L35.0246 2.73047L34.1621 5.18672L34.0402 5.31797L24.459 6.72422L24.5059 4.97109L24.7777 4.15547Z" fill="#91C9ED"/>
<path d="M34.1617 5.1875L35.5773 15.1719L25.4805 16.5875L24.1211 6.94063L24.7117 6.48125L34.1617 5.1875Z" fill="url(#paint1_linear_4086_81259)"/>
<path d="M32.4473 7.09961C32.4004 6.79023 32.2973 6.55586 32.1285 6.39648C31.9879 6.27461 31.8191 6.20898 31.6223 6.20898C31.5754 6.20898 31.5191 6.20898 31.4629 6.21836C31.2004 6.25586 31.0035 6.37773 30.8816 6.57461C30.7879 6.71523 30.7504 6.89336 30.7504 7.09961C30.7504 7.17461 30.7598 7.25898 30.7691 7.34336L31.1348 9.94023L28.2285 10.3715L27.8629 7.77461C27.816 7.47461 27.7129 7.24023 27.5441 7.08086C27.4035 6.94961 27.2348 6.88398 27.0473 6.88398C27.0004 6.88398 26.9535 6.88398 26.9066 6.89336C26.6348 6.93086 26.4285 7.05273 26.2973 7.24961C26.2035 7.39023 26.166 7.56836 26.166 7.77461C26.166 7.84961 26.1754 7.93398 26.1848 8.02773L27.1785 14.7871C27.2254 15.0965 27.3285 15.3309 27.516 15.4902C27.6566 15.6121 27.8254 15.6684 28.0316 15.6684C28.0879 15.6684 28.1441 15.6684 28.2004 15.659C28.4535 15.6215 28.641 15.4996 28.7629 15.3027C28.8473 15.1621 28.8848 14.9934 28.8848 14.7965C28.8848 14.7215 28.8754 14.6371 28.866 14.5527L28.4629 11.8809L31.3691 11.4496L31.7723 14.1215C31.8191 14.4309 31.9223 14.6652 32.1004 14.8152C32.241 14.9371 32.4098 15.0027 32.6066 15.0027C32.6535 15.0027 32.7098 15.0027 32.766 14.9934C33.0285 14.9559 33.2254 14.834 33.3473 14.6371C33.4316 14.4965 33.4785 14.3277 33.4785 14.1215C33.4785 14.0465 33.4691 13.9621 33.4598 13.8777L32.4473 7.09961Z" fill="white"/>
<path d="M15.1879 0.125L11.541 8.7875L12.0379 12.5938L12.066 12.5844L16.1629 3.36875L16.1441 3.17188L15.2629 0.246875L15.1879 0.125Z" fill="#66BF6B"/>
<path d="M15.1875 0.125L16.1344 3.30313L16.1531 3.36875L25.1719 7.40937L25.2 7.39062L24.4313 4.35312L15.1875 0.125Z" fill="#98D0A0"/>
<path d="M16.134 3.30273L25.1996 7.39023L21.1027 16.6809L12.0371 12.5934L16.134 3.30273Z" fill="url(#paint2_linear_4086_81259)"/>
<path d="M22.4531 8.14141C22.2563 7.61641 21.9844 7.16641 21.6281 6.79141C21.2719 6.41641 20.8406 6.11641 20.3344 5.90078C19.8281 5.68516 19.3219 5.58203 18.8063 5.58203H18.7781C18.2531 5.58203 17.7375 5.70391 17.2313 5.92891C16.6969 6.16328 16.2375 6.48203 15.8438 6.90391C15.45 7.31641 15.1313 7.82266 14.8875 8.40391C14.6438 8.97578 14.5125 9.55703 14.4844 10.1289V10.3258C14.4844 10.832 14.5688 11.3289 14.7469 11.8164C14.9344 12.332 15.2063 12.7727 15.5625 13.1477C15.9187 13.5227 16.3594 13.8227 16.8844 14.0383C17.3813 14.2539 17.8875 14.357 18.4031 14.357H18.4125C18.9281 14.357 19.4438 14.2445 19.95 14.0289C20.4844 13.7945 20.9531 13.4664 21.3469 13.0445C21.7406 12.632 22.0688 12.1352 22.3125 11.5539C22.5562 10.9727 22.6875 10.4008 22.7156 9.82891V9.66016C22.725 9.14453 22.6406 8.63828 22.4531 8.14141ZM20.6437 10.8414C20.3062 11.6477 19.8469 12.2008 19.2938 12.5008C18.9938 12.6602 18.6844 12.7445 18.375 12.7445C18.1031 12.7445 17.8125 12.6789 17.5219 12.557C16.8844 12.2852 16.4906 11.8539 16.3219 11.2352C16.2656 11.0289 16.2375 10.8133 16.2375 10.5883C16.2375 10.1383 16.35 9.64141 16.575 9.10703C16.9219 8.28203 17.3813 7.71953 17.9344 7.41016C18.2344 7.24141 18.5438 7.16641 18.8531 7.16641C19.1344 7.16641 19.4156 7.23203 19.7156 7.35391C20.3438 7.62578 20.7375 8.05703 20.9062 8.67578C20.9625 8.87266 20.9906 9.08828 20.9906 9.31328C20.9906 9.78203 20.8781 10.2883 20.6437 10.8414Z" fill="white"/>
<path d="M10.8191 1.59766L12.3004 11.5164L11.6254 15.0039L11.5316 14.882L10.0879 5.30078V5.11328L10.7254 1.76641L10.8191 1.59766Z" fill="#760D16"/>
<path d="M0 6.72578L0.703125 3.21953L10.8188 1.59766L10.1344 5.16953V5.40391L0.121875 6.81953L0 6.72578Z" fill="#EF463E"/>
<path d="M10.1344 5.16797L11.625 15.0023L1.6125 16.568L0 6.72422L10.1344 5.16797Z" fill="url(#paint3_linear_4086_81259)"/>
<path d="M9.05625 13.4367C8.98125 13.343 8.86875 13.2773 8.7375 13.2305C8.60625 13.1836 8.44687 13.1648 8.25 13.1648C8.07188 13.1648 7.86563 13.1836 7.64062 13.2211L4.99687 13.6711C5.025 13.4648 5.12812 13.2023 5.30625 12.8742C5.50312 12.5086 5.80313 12.068 6.1875 11.5617C6.31875 11.3836 6.42188 11.2523 6.49688 11.1586C6.54375 11.093 6.61875 11.0086 6.7125 10.8867C7.32187 10.0898 7.6875 9.44297 7.8375 8.93672C7.92187 8.64609 7.96875 8.35547 7.9875 8.06484C7.99687 7.98047 7.99688 7.90547 7.99688 7.83047C7.99688 7.62422 7.97812 7.41797 7.94062 7.21172C7.9125 7.02422 7.86562 6.87422 7.8 6.75234C7.73437 6.63047 7.65937 6.53672 7.56562 6.48047C7.4625 6.41484 7.30313 6.38672 7.10625 6.38672C6.94688 6.38672 6.75 6.40547 6.51562 6.44297L3.45938 6.96797C3.09375 7.03359 2.8125 7.13672 2.64375 7.30547C2.50313 7.43672 2.4375 7.60547 2.4375 7.79297C2.4375 7.83984 2.4375 7.89609 2.44688 7.95234C2.49375 8.21484 2.625 8.40234 2.84062 8.49609C2.97187 8.55234 3.12187 8.58047 3.30937 8.58047C3.43125 8.58047 3.57188 8.57109 3.72188 8.54297L6.27188 8.09297C6.27188 8.13984 6.28125 8.18672 6.28125 8.22422C6.28125 8.38359 6.25312 8.54297 6.19687 8.69297C6.12187 8.90859 5.93437 9.20859 5.625 9.59297C5.54063 9.69609 5.40937 9.86484 5.23125 10.0805C4.5375 10.9148 4.05 11.6273 3.75 12.218C3.53438 12.6305 3.39375 13.0242 3.30937 13.4273C3.2625 13.6617 3.23438 13.8773 3.23438 14.093C3.23438 14.243 3.24375 14.393 3.27188 14.5336C3.30938 14.7398 3.35625 14.9086 3.42188 15.0398C3.4875 15.1711 3.58125 15.2742 3.68437 15.3305C3.7875 15.3867 3.92812 15.4055 4.13437 15.4055C4.3875 15.4055 4.73438 15.368 5.175 15.293L7.95 14.8148C8.4375 14.7305 8.78438 14.6086 8.98125 14.4492C9.14063 14.318 9.225 14.1398 9.225 13.9336C9.225 13.8773 9.21562 13.8211 9.20625 13.7648C9.1875 13.643 9.14062 13.5305 9.05625 13.4367Z" fill="white"/>
</g>
<defs>
<linearGradient id="paint0_linear_4086_81259" x1="556.318" y1="21.3926" x2="556.318" y2="1086.48" gradientUnits="userSpaceOnUse">
<stop offset="0.00562" stop-color="#FFE513"/>
<stop offset="1" stop-color="#FDB924"/>
</linearGradient>
<linearGradient id="paint1_linear_4086_81259" x1="75.8117" y1="159.019" x2="1116.1" y2="1002.72" gradientUnits="userSpaceOnUse">
<stop offset="0.00562" stop-color="#008CD2"/>
<stop offset="1" stop-color="#00649D"/>
</linearGradient>
<linearGradient id="paint2_linear_4086_81259" x1="670.188" y1="374.934" x2="670.188" y2="1308.06" gradientUnits="userSpaceOnUse">
<stop stop-color="#26A146"/>
<stop offset="1" stop-color="#008A52"/>
</linearGradient>
<linearGradient id="paint3_linear_4086_81259" x1="508.408" y1="98.7392" x2="662.947" y2="1068.58" gradientUnits="userSpaceOnUse">
<stop stop-color="#D92231"/>
<stop offset="1" stop-color="#BA2234"/>
</linearGradient>
<clipPath id="clip0_4086_81259">
<rect width="48" height="16.5938" fill="white" transform="translate(0 0.125)"/>
</clipPath>
</defs>
</svg>
