<svg width="109" height="61" viewBox="0 0 109 61" fill="none" xmlns="http://www.w3.org/2000/svg">
<path d="M21.2649 6.14146V0H6.42464V6.14146H21.2649Z" fill="#124486"/>
<path d="M66.2233 0.0124132H74.7378V6.15222H66.2233V0.0124132Z" fill="#124486"/>
<path d="M74.7378 27.74V10.7333H66.2145V27.74L57.1042 27.7255V10.72H33.5998V19.1328H48.5822V27.7255H25.7527V10.72H0V36.1474H74.7214L74.7378 27.74ZM17.2302 27.7255H8.52331V19.1328H17.2302V27.7255Z" fill="#124486"/>
<path d="M83.2464 10.72V27.7268H91.7698V19.1328H100.475V27.7255H91.7698V36.1383H109V10.72H83.2464Z" fill="url(#paint0_linear_179_1398)"/>
<path d="M11.9417 47.3263V47.3677L11.9689 47.3263H11.9417Z" fill="#124486"/>
<path d="M11.9417 53.3834V60.9996H15.3794V48.4125L11.9417 53.3834Z" fill="#124486"/>
<path d="M5.07225 47.3263H5.05422L5.07225 47.3516V47.3263Z" fill="#124486"/>
<path d="M1.63623 61H5.07389V53.3693L1.63623 48.3985V61Z" fill="#124486"/>
<path d="M8.51244 52.3295L10.5914 55.3381L11.9417 53.3834L11.9417 47.3661L8.51244 52.3295Z" fill="#124486"/>
<path d="M15.3781 47.3263H11.9689L11.9417 47.3677V53.3842L15.3794 48.4133L15.3781 47.3263Z" fill="#124486"/>
<path d="M5.07225 47.3516L5.07264 53.3689L6.43387 55.3381L8.51244 52.3295L5.07225 47.3516Z" fill="#124486"/>
<path d="M5.05422 47.3263H1.63623V48.3985L5.07389 53.3693V47.3516L5.05422 47.3263Z" fill="#124486"/>
<path d="M6.43344 55.3381L8.51239 58.3468L10.5914 55.3381L8.51244 52.3295L6.43344 55.3381Z" fill="#124486"/>
<path d="M22.0719 47.3263H25.5067V60.9975H22.0719V47.3263Z" fill="#124486"/>
<path d="M42.5063 47.3263V55.6369L35.6356 47.3263H32.2009V60.9979H35.6356V52.689L42.5063 60.9979H45.944V47.3263H42.5063Z" fill="#124486"/>
<path d="M62.942 47.3263V55.6369L56.0713 47.3263H52.6336V60.9979H56.0713V52.689L62.942 60.9979H66.3767V47.3263H62.942Z" fill="#124486"/>
<path d="M84.5456 47.3263V52.4681H77.6749V47.3263H74.2402V60.9979H77.6749V55.8578H84.5456V60.9979H87.9803V47.3263H84.5456Z" fill="#124486"/>
<path d="M103.615 60.9437H107.246L102.369 47.3822H98.36L93.5028 60.9437H97.1342L97.9559 58.6902H102.788L103.615 60.9437ZM99.193 55.298L100.367 52.0808L101.546 55.298H99.193Z" fill="#124486"/>
<path d="M74.7214 27.726H83.2305V36.1387H74.7214V27.726Z" fill="#F5D45C"/>
<defs>
<linearGradient id="paint0_linear_179_1398" x1="-21.146" y1="30.988" x2="159.306" y2="27.2884" gradientUnits="userSpaceOnUse">
<stop stop-color="#3CACA2"/>
<stop offset="0.65" stop-color="#124486"/>
<stop offset="1" stop-color="#153F5F"/>
</linearGradient>
</defs>
</svg>
