<svg xmlns="http://www.w3.org/2000/svg" width="204.994" height="54.365" viewBox="0 0 204.994 54.365">
  <g id="LOGO" transform="translate(-1581.496 -428.135)">
    <path id="Path_348" data-name="Path 348" d="M1816.046,475.764l-11.4,30.229-.027.962h7.992l2.47-7.252h10.98l2.519,7.252h8.087v-.811l-11.422-30.379Zm7.875,17.732h-6.7l3.308-9.743Z" transform="translate(-168.777 -36.027)" fill="#323232"/>
    <path id="Path_349" data-name="Path 349" d="M1971.344,491.4a9.7,9.7,0,0,0,1.729-5.745,9.293,9.293,0,0,0-1.426-5.073,9.6,9.6,0,0,0-4.337-3.535,17.653,17.653,0,0,0-7.138-1.28H1949.21v31.191h7.584V495.913h1.96l7.884,11.042h8.373V506l-8.18-11.211A9.9,9.9,0,0,0,1971.344,491.4Zm-6.245-5.559a3.533,3.533,0,0,1-1.413,3.2,7.81,7.81,0,0,1-4.322,1h-2.57v-8.062h3.313a6.159,6.159,0,0,1,3.733.984A3.343,3.343,0,0,1,1965.1,485.838Z" transform="translate(-278.143 -36.027)" fill="#323232"/>
    <path id="Path_350" data-name="Path 350" d="M2076.327,494.181h11.505l.917-6.207h-12.422v-5.958h14.291v-6.253h-21.875v31.191h22.116v-6.3h-14.532Z" transform="translate(-368.56 -36.027)" fill="#323232"/>
    <path id="Path_351" data-name="Path 351" d="M2199.893,494.875c-.038-.063-.077-.126-.117-.189q-.564-.893-1.247-1.906t-.877-1.291l-10.878-15.726h-8.051v31.191h7.584V487.888q.427.781.87,1.478c.57.9,1.272,1.968,2.149,3.268l10,14.321h8.148V475.764h-7.584Z" transform="translate(-451.749 -36.027)" fill="#323232"/>
    <path id="Path_352" data-name="Path 352" d="M2309.777,475.764V482.3h10.029v24.657h7.584V482.3h9.98v-6.534Z" transform="translate(-550.88 -36.027)" fill="#323232"/>
    <path id="Path_353" data-name="Path 353" d="M1632.5,455.318a27.159,27.159,0,0,1-27.182,27.182H1581.5V451.519h23.821a3.8,3.8,0,0,1,0,7.6H1589.1v15.757h16.22a19.555,19.555,0,1,0,0-39.111H1589.1v4.058h16.22a15.5,15.5,0,1,1,0,30.994H1593.16v-7.632h12.158a7.865,7.865,0,0,0,0-15.731H1581.5V428.135h23.821a27.159,27.159,0,0,1,27.182,27.182Z" fill="#f5b133"/>
  </g>
</svg>
