<svg width="183" height="183" viewBox="0 0 183 183" fill="none" xmlns="http://www.w3.org/2000/svg">
<path d="M2.65625 91.25C2.65625 42.1139 42.4889 2.28125 91.625 2.28125C140.761 2.28125 180.594 42.1139 180.594 91.25C180.594 140.386 140.761 180.219 91.625 180.219C42.4889 180.219 2.65625 140.386 2.65625 91.25Z" stroke="white" stroke-width="4.5625"/>
<path d="M42.9385 54.789V64.9985C42.9385 65.9188 43.6845 66.6648 44.6047 66.6648L123.719 66.6692C124.639 66.6692 125.385 67.4152 125.385 68.3355V100.923C125.385 101.843 124.639 102.589 123.719 102.589H44.6092C43.6889 102.589 42.9429 103.335 42.9429 104.255L42.9385 114.469C42.9385 115.39 43.6845 116.136 44.6047 116.136H123.824C124.266 116.136 124.688 116.31 125.001 116.622L136.086 127.696C137.136 128.744 138.93 128.002 138.93 126.517V69.4344C138.93 68.9921 138.753 68.5677 138.443 68.2573L123.795 53.6119C123.482 53.2992 123.058 53.125 122.618 53.125H44.6047C43.6845 53.1228 42.9385 53.8688 42.9385 54.789Z" fill="white"/>
<path d="M114.654 83.4912C115.074 84.4249 114.676 85.9683 113.461 88.1214C112.248 90.2701 111.1 91.3466 110.023 91.3466C108.949 91.3466 107.218 90.4822 104.833 88.7513C102.447 87.0203 101.257 86.0174 101.257 85.736C101.257 84.9855 101.936 83.4912 103.292 81.2488C104.647 79.0041 105.84 77.8828 106.868 77.8828C107.899 77.8828 109.347 78.5841 111.216 79.9868C113.088 81.3872 114.234 82.5554 114.654 83.4912Z" fill="white"/>
<path d="M89.5413 83.4912C89.9612 84.4249 89.5637 85.9683 88.3486 88.1214C87.1358 90.2701 85.9878 91.3466 84.9112 91.3466C83.8369 91.3466 82.1059 90.4822 79.7204 88.7513C77.335 87.0203 76.1445 86.0174 76.1445 85.736C76.1445 84.9855 76.8235 83.4912 78.1793 81.2488C79.535 79.0041 80.7278 77.8828 81.7552 77.8828C82.7871 77.8828 84.2344 78.5841 86.1039 79.9868C87.9734 81.3872 89.1214 82.5554 89.5413 83.4912Z" fill="white"/>
<path d="M64.43 83.5303C64.8499 84.4639 64.4523 86.0073 63.2373 88.1605C62.0245 90.3091 60.8764 91.3857 59.7999 91.3857C58.7255 91.3857 56.9945 90.5213 54.6091 88.7903C52.2237 87.0593 51.0332 86.0565 51.0332 85.775C51.0332 85.0246 51.7122 83.5303 53.068 81.2878C54.4237 79.0431 55.6164 77.9219 56.6439 77.9219C57.6758 77.9219 59.1231 78.6232 60.9926 80.0259C62.8621 81.4286 64.0101 82.5945 64.43 83.5303Z" fill="white"/>
</svg>
