<svg width="197" height="160" viewBox="0 0 197 160" fill="none" xmlns="http://www.w3.org/2000/svg">
<g clip-path="url(#clip0_2963_14074)">
<path d="M194.897 8.91549H1.22447C0.936855 8.91517 0.661108 8.80065 0.457732 8.59706C0.254357 8.39347 0.139962 8.11743 0.139648 7.8295V1.44145C0.139962 1.15353 0.254357 0.877487 0.457732 0.673893C0.661108 0.4703 0.936855 0.355783 1.22447 0.355469H194.897C195.185 0.355783 195.461 0.4703 195.664 0.673893C195.867 0.877487 195.982 1.15353 195.982 1.44145V7.8295C195.982 8.11743 195.867 8.39347 195.664 8.59706C195.461 8.80065 195.185 8.91517 194.897 8.91549Z" fill="#E9E9FD"/>
<path d="M6.43764 5.8649C7.28826 5.8649 7.97782 5.1746 7.97782 4.32308C7.97782 3.47155 7.28826 2.78125 6.43764 2.78125C5.58702 2.78125 4.89746 3.47155 4.89746 4.32308C4.89746 5.1746 5.58702 5.8649 6.43764 5.8649Z" fill="white"/>
<path d="M12.2814 5.8649C13.132 5.8649 13.8216 5.1746 13.8216 4.32308C13.8216 3.47155 13.132 2.78125 12.2814 2.78125C11.4308 2.78125 10.7412 3.47155 10.7412 4.32308C10.7412 5.1746 11.4308 5.8649 12.2814 5.8649Z" fill="white"/>
<path d="M18.129 5.8649C18.9797 5.8649 19.6692 5.1746 19.6692 4.32308C19.6692 3.47155 18.9797 2.78125 18.129 2.78125C17.2784 2.78125 16.5889 3.47155 16.5889 4.32308C16.5889 5.1746 17.2784 5.8649 18.129 5.8649Z" fill="white"/>
<path d="M193.432 159.354H107.293C106.596 159.353 105.927 159.076 105.434 158.582C104.941 158.088 104.664 157.419 104.663 156.721V95.7657C104.664 95.0677 104.941 94.3984 105.434 93.9048C105.927 93.4112 106.596 93.1336 107.293 93.1328H193.432C194.129 93.1336 194.797 93.4112 195.291 93.9048C195.784 94.3984 196.061 95.0677 196.062 95.7657V156.721C196.061 157.419 195.784 158.088 195.291 158.582C194.797 159.076 194.129 159.353 193.432 159.354Z" fill="#E9E9FD"/>
<path d="M189.845 96.7246H110.88C110.183 96.7255 109.514 97.0033 109.021 97.4971C108.527 97.9909 108.25 98.6603 108.249 99.3587V153.133C108.25 153.831 108.527 154.5 109.021 154.994C109.514 155.488 110.183 155.766 110.88 155.767H189.845C190.543 155.766 191.211 155.488 191.704 154.994C192.197 154.5 192.474 153.831 192.475 153.133V99.3586C192.474 98.6605 192.197 97.9911 191.704 97.4973C191.211 97.0035 190.543 96.7256 189.845 96.7246Z" fill="white"/>
<path d="M157.558 122.287C158.868 116.573 155.303 110.877 149.595 109.566C143.887 108.254 138.198 111.823 136.887 117.537C135.577 123.251 139.142 128.946 144.85 130.258C150.558 131.57 156.247 128.001 157.558 122.287Z" fill="#9E616A"/>
<path d="M177.718 145.77C177.328 143.926 176.445 142.221 175.164 140.839C173.883 139.457 172.251 138.449 170.443 137.922L170.435 137.918C170.09 137.748 169.725 137.622 169.348 137.544L156.604 134.934L154.051 132.191L143.187 132.886L142.053 136.04L129.574 141.593L129.78 141.447C129.246 141.662 128.726 141.911 128.224 142.194L128.161 142.222C127.801 142.384 127.467 142.597 127.169 142.856C123.995 145.061 121.898 148.6 121.821 152.546L121.491 155.766H179.837L177.718 145.77Z" fill="url(#paint0_linear_2963_14074)"/>
<path d="M158.828 114.222C157.96 111.507 155.42 109.215 152.574 109.288C152.795 108.611 152.417 107.852 151.85 107.421C151.283 106.99 150.566 106.817 149.869 106.672C148.429 106.371 146.927 106.142 145.495 106.481C144.063 106.819 142.706 107.848 142.384 109.285C141.08 108.061 138.668 108.4 137.75 109.935C137.278 110.726 137.211 111.788 137.721 112.554C138.228 113.315 139.189 113.658 140.102 113.701C141.015 113.744 141.919 113.539 142.828 113.444C145 113.215 147.293 113.653 149.049 114.953C150.804 116.253 151.926 118.482 151.614 120.645C152.316 120.196 153.327 120.508 153.817 121.182C154.307 121.856 154.346 122.777 154.118 123.579C153.89 124.381 153.428 125.092 152.972 125.79C152.133 127.075 151.294 128.36 150.455 129.645L150.799 129.874C152.065 130.408 153.434 129.409 154.355 128.389C155.909 126.668 157.161 124.697 158.057 122.558C159.158 119.929 159.696 116.936 158.828 114.222Z" fill="#12141D"/>
<path d="M113.085 112.155H3.41022C2.5224 112.154 1.67123 111.801 1.04344 111.172C0.415657 110.544 0.0625284 109.692 0.0615234 108.803V31.1921C0.0625252 30.3034 0.415653 29.4513 1.04344 28.8228C1.67122 28.1944 2.52239 27.8408 3.41022 27.8398H113.085C113.973 27.8409 114.824 28.1944 115.452 28.8228C116.08 29.4513 116.433 30.3034 116.434 31.1921V108.803C116.433 109.692 116.08 110.544 115.452 111.172C114.824 111.801 113.973 112.154 113.085 112.155Z" fill="#E9E9FD"/>
<path d="M108.516 32.4102H7.97423C7.08605 32.4113 6.23458 32.765 5.60654 33.3937C4.9785 34.0224 4.62517 34.8748 4.62402 35.7639V104.231C4.62516 105.12 4.97849 105.972 5.60653 106.601C6.23457 107.23 7.08605 107.584 7.97423 107.585H108.516C109.404 107.583 110.255 107.23 110.882 106.601C111.51 105.972 111.863 105.12 111.863 104.231V35.7639C111.863 34.8751 111.51 34.0227 110.882 33.394C110.255 32.7652 109.404 32.4114 108.516 32.4102Z" fill="white"/>
<path d="M72.7134 64.5416L72.528 64.8762C74.1785 60.804 72.6776 55.7862 69.7332 52.7156C66.7889 49.6451 62.6956 48.2414 58.665 47.6844C55.6729 47.271 52.5672 47.283 49.7222 48.3801C45.6022 49.969 42.4545 53.647 39.8264 57.4731C38.6243 59.2232 37.4424 61.2183 37.5621 63.4057C37.6733 65.4355 38.8769 67.1581 39.8625 68.8802C40.8483 70.6024 41.6714 72.7391 40.964 74.6187C40.5424 75.7388 39.6515 76.5455 38.9286 77.4618C38.2057 78.3781 37.611 79.6166 37.9602 80.7663C38.2427 81.6962 39.0926 82.308 39.9666 82.5119C40.8405 82.7157 41.7472 82.5825 42.6323 82.4486L65.6064 78.9739C67.1675 78.7377 68.6484 78.1272 69.9229 77.1943C71.1974 76.2614 72.2276 75.0337 72.9257 73.6161C73.6238 72.1985 73.9691 70.6328 73.9321 69.0527C73.8951 67.4726 73.477 65.9249 72.7134 64.5416Z" fill="#12141D"/>
<path d="M55.626 78.8132C61.8296 78.8132 66.8585 73.7789 66.8585 67.5687C66.8585 61.3585 61.8296 56.3242 55.626 56.3242C49.4225 56.3242 44.3936 61.3585 44.3936 67.5687C44.3936 73.7789 49.4225 78.8132 55.626 78.8132Z" fill="#FFB9B9"/>
<path d="M83.6432 93.0231C82.9163 91.4286 81.7697 90.062 80.3264 89.0698C78.883 88.0776 77.1972 87.4971 75.4496 87.3905L72.3191 87.2008L72.3267 87.2337L64.3687 82.4414C64.5644 82.6658 51.4244 83.1356 51.4244 83.1356L46.5489 87.3462L44.5042 87.4701C42.7566 87.5767 41.0708 88.1572 39.6274 89.1494C38.1841 90.1416 37.0376 91.5082 36.3107 93.1028L29.6709 107.664H42.9049L43.2119 106.341C43.5459 106.748 43.8697 107.163 44.1834 107.584H90.2829L83.6432 93.0231Z" fill="url(#paint1_linear_2963_14074)"/>
<path d="M66.2828 57.1321C65.9929 55.5966 64.4284 54.8943 63.088 54.554C59.2001 53.5609 55.1557 53.3386 51.1826 53.8995C48.2862 54.313 45.3211 55.2247 43.2196 57.4879C41.5805 59.2531 40.5888 61.7817 40.5116 64.3925C40.4666 65.914 40.7384 67.4974 41.4946 68.7789C42.2509 70.0603 43.54 70.9897 44.8707 70.9571L45.0054 71.4263C50.6449 70.6397 55.8835 67.127 59.1828 61.9199C58.5635 64.1333 57.3313 66.1261 55.6284 67.668C59.4358 66.1429 62.7454 63.5895 65.1885 60.2923C65.8556 59.4058 66.5034 58.3003 66.2828 57.1321Z" fill="#12141D"/>
<path d="M189.169 3.26401H182.437C182.371 3.26422 182.306 3.25145 182.245 3.22646C182.185 3.20146 182.13 3.16472 182.083 3.11835C182.037 3.07198 182 3.01688 181.975 2.95621C181.949 2.89554 181.937 2.83051 181.937 2.76482C181.937 2.69914 181.949 2.63409 181.975 2.57343C182 2.51276 182.037 2.45766 182.083 2.41129C182.13 2.36491 182.185 2.32818 182.245 2.30318C182.306 2.27819 182.371 2.26542 182.437 2.26563H189.169C189.301 2.26604 189.427 2.31881 189.52 2.41239C189.613 2.50596 189.666 2.6327 189.666 2.76482C189.666 2.89695 189.613 3.02368 189.52 3.11725C189.427 3.21082 189.301 3.2636 189.169 3.26401Z" fill="white"/>
<path d="M189.169 5.1351H182.437C182.371 5.13531 182.306 5.12255 182.245 5.09755C182.185 5.07256 182.13 5.03582 182.083 4.98944C182.037 4.94307 182 4.88797 181.975 4.8273C181.949 4.76664 181.937 4.7016 181.937 4.63591C181.937 4.57023 181.949 4.50519 181.975 4.44452C182 4.38386 182.037 4.32876 182.083 4.28238C182.13 4.23601 182.185 4.19927 182.245 4.17427C182.306 4.14928 182.371 4.13652 182.437 4.13672H189.169C189.301 4.13713 189.427 4.18991 189.52 4.28348C189.613 4.37705 189.666 4.50379 189.666 4.63591C189.666 4.76804 189.613 4.89477 189.52 4.98835C189.427 5.08192 189.301 5.13469 189.169 5.1351Z" fill="white"/>
<path d="M189.169 7.0062H182.437C182.371 7.0064 182.306 6.99364 182.245 6.96865C182.185 6.94365 182.13 6.90691 182.083 6.86054C182.037 6.81416 182 6.75906 181.975 6.6984C181.949 6.63773 181.937 6.57269 181.937 6.507C181.937 6.44132 181.949 6.37628 181.975 6.31562C182 6.25495 182.037 6.19985 182.083 6.15348C182.13 6.1071 182.185 6.07036 182.245 6.04537C182.306 6.02037 182.371 6.00761 182.437 6.00781H189.169C189.301 6.00823 189.427 6.061 189.52 6.15457C189.613 6.24815 189.666 6.37488 189.666 6.507C189.666 6.63913 189.613 6.76587 189.52 6.85944C189.427 6.95301 189.301 7.00579 189.169 7.0062Z" fill="white"/>
</g>
<defs>
<linearGradient id="paint0_linear_2963_14074" x1="121.491" y1="143.979" x2="179.837" y2="143.979" gradientUnits="userSpaceOnUse">
<stop stop-color="#34AEFF"/>
<stop offset="0.525" stop-color="#7357FF"/>
<stop offset="1" stop-color="#343DE6"/>
</linearGradient>
<linearGradient id="paint1_linear_2963_14074" x1="29.6709" y1="95.0525" x2="90.2829" y2="95.0525" gradientUnits="userSpaceOnUse">
<stop stop-color="#34AEFF"/>
<stop offset="0.525" stop-color="#7357FF"/>
<stop offset="1" stop-color="#343DE6"/>
</linearGradient>
<clipPath id="clip0_2963_14074">
<rect width="196" height="159" fill="white" transform="translate(0.0615234 0.355469)"/>
</clipPath>
</defs>
</svg>
