<svg width="278" height="210" viewBox="0 0 278 210" fill="none" xmlns="http://www.w3.org/2000/svg">
<path d="M218.213 48.3885C231.725 38.4069 250.749 34.5805 265.633 42.3675C248.876 49.6432 235.233 62.6116 227.117 78.9782C224.01 85.3014 221.213 92.6579 214.802 95.5804C210.813 97.3989 206.105 97.0477 201.975 95.5794C197.844 94.1109 194.17 91.6165 190.547 89.1483L189.46 89.0175C195.908 73.5052 204.701 58.3701 218.213 48.3885Z" fill="#E9E9FD"/>
<path d="M265.512 42.6988C251.614 43.1342 238.207 47.9377 227.194 56.4269C224.791 58.2123 222.684 60.3654 220.952 62.8069C219.341 65.2397 218.411 68.0596 218.258 70.9736C218.061 73.6877 218.174 76.4867 217.321 79.1056C216.864 80.4397 216.13 81.6622 215.168 82.693C214.206 83.7237 213.037 84.5394 211.737 85.0865C208.534 86.5341 205.002 86.7445 201.541 86.8302C197.698 86.9254 193.705 86.9634 190.211 88.7729C189.787 88.9922 189.472 88.3223 189.894 88.1034C195.975 84.9552 203.08 87.0092 209.471 85.1356C212.453 84.2613 215.19 82.4831 216.387 79.5079C217.434 76.9062 217.32 74.0197 217.496 71.2699C217.603 68.4251 218.405 65.6498 219.832 63.1865C221.435 60.6647 223.455 58.434 225.807 56.59C231.034 52.3541 236.894 48.9665 243.174 46.5512C250.325 43.7548 257.902 42.2024 265.577 41.9612C266.052 41.9464 265.984 42.6841 265.512 42.6988Z" fill="white"/>
<path d="M230.581 53.4844C229.408 51.4434 228.998 49.0517 229.425 46.7365C229.852 44.4212 231.089 42.3332 232.913 40.8453C233.283 40.5455 233.767 41.1067 233.396 41.4069C231.694 42.7893 230.543 44.7344 230.15 46.8912C229.756 49.0479 230.147 51.2743 231.251 53.1684C231.49 53.5802 230.819 53.894 230.581 53.4844Z" fill="white"/>
<path d="M218.18 69.5852C222.815 70.8807 227.768 70.3816 232.051 68.1875C232.475 67.9698 232.791 68.6396 232.367 68.857C227.906 71.132 222.75 71.6409 217.93 70.2821C217.47 70.1523 217.723 69.456 218.18 69.5852Z" fill="white"/>
<path d="M250.29 44.735C250.579 45.6193 251.084 46.4179 251.758 47.059C252.433 47.7001 253.256 48.1637 254.154 48.4081C254.615 48.5321 254.362 49.2282 253.904 49.1051C252.913 48.8304 252.005 48.3173 251.258 47.6106C250.511 46.9039 249.949 46.0252 249.62 45.051C249.582 44.9618 249.578 44.8612 249.611 44.7697C249.644 44.6782 249.711 44.6026 249.797 44.5582C249.886 44.5168 249.988 44.5122 250.08 44.5453C250.172 44.5784 250.248 44.6465 250.29 44.735Z" fill="white"/>
<path d="M277.436 98.0074C277.146 97.9382 276.856 97.8689 276.561 97.8038C272.659 96.8936 268.689 96.3019 264.69 96.0345C264.381 96.009 264.068 95.9877 263.759 95.9711C254.119 95.4297 244.463 96.6828 235.28 99.6667C231.627 100.857 228.07 102.324 224.64 104.055C219.903 106.445 214.957 109.413 209.857 110.079C209.325 110.154 208.79 110.197 208.253 110.206L189.385 90.353C189.365 90.2863 189.34 90.2237 189.32 90.1569L188.53 89.3987C188.701 89.2971 188.88 89.1954 189.051 89.0938C189.15 89.0344 189.253 88.9795 189.351 88.9202C189.419 88.882 189.486 88.844 189.544 88.8057C189.567 88.793 189.589 88.7804 189.607 88.7719C189.665 88.7336 189.724 88.7043 189.778 88.6703C190.778 88.099 191.784 87.5338 192.795 86.9746C192.8 86.9703 192.8 86.9703 192.809 86.9704C200.528 82.7292 208.669 79.0952 217.103 76.8125C217.357 76.7439 217.615 76.6707 217.877 76.6112C221.685 75.6033 225.568 74.9083 229.488 74.5331C231.636 74.3346 233.792 74.2449 235.948 74.2643C241.52 74.3253 247.048 75.2624 252.329 77.0412C262.855 80.5887 272.13 87.4633 277.066 97.2555C277.192 97.5061 277.314 97.7525 277.436 98.0074Z" fill="#E9E9FD"/>
<path d="M277.141 98.2011C265.782 90.1812 252.185 85.9443 238.281 86.0921C235.287 86.0708 232.309 86.5215 229.456 87.4277C226.705 88.4002 224.264 90.0917 222.388 92.3264C220.597 94.3749 219.001 96.6777 216.743 98.2551C215.576 99.0454 214.254 99.5798 212.865 99.8235C211.476 100.067 210.051 100.014 208.684 99.6688C205.255 98.8963 202.309 96.9378 199.494 94.9225C196.368 92.6849 193.157 90.3111 189.277 89.6517C188.807 89.5718 188.958 88.8471 189.428 88.9269C196.178 90.0741 200.615 95.9921 206.845 98.3437C209.753 99.441 213.009 99.6688 215.756 98.0142C218.158 96.5672 219.805 94.194 221.601 92.1041C223.399 89.8973 225.711 88.1644 228.333 87.0568C231.131 86.0083 234.087 85.4435 237.075 85.3868C243.799 85.1518 250.518 85.9755 256.986 87.8277C264.38 89.9006 271.364 93.2231 277.637 97.6513C278.025 97.9255 277.527 98.4735 277.141 98.2011Z" fill="white"/>
<path d="M242.756 85.7817C243.048 83.4456 244.161 81.2893 245.896 79.6978C247.631 78.1064 249.875 77.1836 252.227 77.094C252.704 77.0775 252.752 77.8166 252.275 77.8331C250.084 77.9124 247.994 78.7723 246.381 80.2575C244.768 81.7427 243.74 83.7555 243.481 85.9325C243.424 86.4055 242.7 86.2521 242.756 85.7817Z" fill="white"/>
<path d="M223.158 91.169C226.079 94.994 230.334 97.5777 235.075 98.4047C235.545 98.4862 235.393 99.211 234.924 99.1295C229.992 98.2597 225.569 95.5621 222.539 91.575C222.25 91.1947 222.871 90.7909 223.158 91.169Z" fill="white"/>
<path d="M263.76 90.6623C263.458 91.5426 263.38 92.4841 263.533 93.402C263.685 94.3199 264.063 95.1856 264.633 95.9213C264.926 96.2977 264.305 96.7012 264.014 96.3273C263.388 95.5115 262.972 94.555 262.801 93.5412C262.631 92.5274 262.711 91.4872 263.035 90.5115C263.058 90.417 263.116 90.3347 263.197 90.2814C263.278 90.2281 263.377 90.2077 263.473 90.2245C263.568 90.2449 263.652 90.3024 263.706 90.3843C263.76 90.4663 263.779 90.5662 263.76 90.6623Z" fill="white"/>
<path d="M214.65 63.238H213.188V23.1829C213.188 20.1384 212.588 17.1238 211.423 14.3112C210.258 11.4985 208.551 8.94283 206.398 6.7901C204.245 4.63738 201.69 2.92975 198.877 1.7647C196.064 0.599648 193.05 1.64126e-06 190.005 0H105.143C102.098 -6.56476e-06 99.0838 0.599628 96.2712 1.76467C93.4585 2.92971 90.9028 4.63734 88.7501 6.79006C86.5974 8.94278 84.8897 11.4984 83.7247 14.3111C82.5596 17.1238 81.96 20.1384 81.96 23.1828V242.929C81.96 249.077 84.4024 254.974 88.7501 259.321C93.0977 263.669 98.9943 266.111 105.143 266.111H190.005C196.154 266.111 202.05 263.669 206.398 259.321C210.745 254.974 213.188 249.077 213.188 242.929V91.75H214.65V63.238Z" fill="#333955"/>
<path d="M190.938 6.03127H179.861C180.37 7.2802 180.565 8.63523 180.427 9.97701C180.289 11.3188 179.824 12.6061 179.072 13.7256C178.319 14.8451 177.303 15.7624 176.113 16.3967C174.922 17.031 173.594 17.3628 172.245 17.3629H123.629C122.28 17.3628 120.952 17.031 119.762 16.3967C118.571 15.7624 117.555 14.8452 116.803 13.7257C116.05 12.6061 115.585 11.3188 115.447 9.97701C115.31 8.63523 115.504 7.28018 116.013 6.03125H105.667C101.076 6.03125 96.672 7.85526 93.4253 11.102C90.1785 14.3488 88.3545 18.7523 88.3545 23.3439V242.767C88.3545 245.041 88.8023 247.292 89.6723 249.393C90.5424 251.493 91.8176 253.402 93.4253 255.009C95.0329 256.617 96.9414 257.892 99.0419 258.762C101.142 259.632 103.394 260.08 105.667 260.08H190.938C193.212 260.08 195.463 259.632 197.563 258.762C199.664 257.892 201.572 256.617 203.18 255.009C204.788 253.402 206.063 251.493 206.933 249.393C207.803 247.292 208.251 245.041 208.251 242.767V23.3439C208.251 18.7523 206.427 14.3488 203.18 11.102C199.933 7.85527 195.53 6.03126 190.938 6.03127Z" fill="white"/>
<path d="M149.943 189.595C143.664 189.6 137.445 188.368 131.642 185.968C125.84 183.567 120.568 180.047 116.128 175.606C111.688 171.166 108.167 165.894 105.767 160.092C103.366 154.289 102.134 148.071 102.14 141.791C102.131 132.974 104.564 124.327 109.17 116.808C113.776 109.289 120.374 103.193 128.234 99.196C133.93 96.2977 140.15 94.5687 146.525 94.1112C152.901 93.6536 159.303 94.4766 165.355 96.5317C176.074 100.184 185.149 107.523 190.962 117.241C196.776 126.959 198.951 138.425 197.101 149.597C195.251 160.769 189.495 170.921 180.859 178.246C172.223 185.571 161.267 189.593 149.943 189.595ZM149.943 95.8629C142.691 95.8416 135.539 97.5569 129.086 100.866C123.445 103.739 118.459 107.748 114.441 112.641C110.424 117.533 107.461 123.203 105.738 129.295C104.016 135.387 103.572 141.769 104.434 148.041C105.295 154.313 107.444 160.339 110.745 165.741C114.046 171.143 118.429 175.804 123.617 179.431C128.805 183.059 134.687 185.575 140.894 186.821C147.101 188.067 153.499 188.017 159.685 186.673C165.871 185.33 171.713 182.721 176.844 179.013C179.324 177.223 181.618 175.188 183.69 172.938C189.751 166.38 193.768 158.198 195.249 149.392C196.731 140.586 195.612 131.54 192.031 123.36C188.449 115.181 182.56 108.223 175.085 103.339C167.61 98.455 158.872 95.857 149.943 95.8629Z" fill="#E9E9FD"/>
<path d="M46.3577 99.3653C47.6699 99.5298 48.93 99.9801 50.0493 100.684C51.1686 101.388 52.1199 102.33 52.8362 103.441C53.5525 104.553 54.0163 105.808 54.195 107.118C54.3737 108.429 54.263 109.762 53.8706 111.025L69.7532 124.255L64.0676 135.867L41.9007 116.869C39.8229 116.069 38.1106 114.535 37.0884 112.557C36.0662 110.579 35.8051 108.295 36.3545 106.138C36.9039 103.98 38.2256 102.099 40.0693 100.851C41.913 99.6025 44.1504 99.074 46.3577 99.3653Z" fill="#FFB6B6"/>
<path d="M194.696 154.537C194.377 151.113 193.061 144.958 191.943 142.682C188.508 133.691 166.314 126.302 163.333 125.349L162.577 116.945L131.739 113.627L127.828 124.374L116.767 128.524C116.016 128.804 115.337 129.246 114.777 129.82C114.218 130.394 113.792 131.084 113.53 131.842L103.607 134.71L93.8156 137.541L59.7973 113.57L58.1912 114.62L47.456 121.625L45.7998 122.706L89.8226 162.423L106.176 158.587L118.473 155.693L119.523 159.955L116.805 174.927C124.68 182.805 135.104 187.619 146.207 188.507C157.311 189.394 168.367 186.297 177.393 179.77L184.379 173.571C189.248 168.306 192.842 161.993 194.883 155.118L194.696 154.537Z" fill="#12141D"/>
<path d="M156.847 106.752C168.488 102.898 174.801 90.336 170.947 78.6949C167.092 67.0537 154.531 60.7412 142.89 64.5954C131.249 68.4497 124.936 81.0112 128.79 92.6524C132.645 104.294 145.206 110.606 156.847 106.752Z" fill="#FFB6B6"/>
<path d="M132.331 60.3631C134.49 57.2805 137.729 55.1228 141.405 54.3188C145.04 53.5712 148.823 54.2651 151.956 56.2541C155.363 54.8818 159.036 53.9713 162.645 54.4341C166.254 54.897 169.791 56.9128 171.461 60.2338C171.812 61.0941 172.238 61.9218 172.735 62.7075C174.206 64.6703 176.94 64.9249 179.355 65.0192C178.134 65.7312 176.913 66.4432 175.692 67.1551C176.909 67.7221 178.125 68.2891 179.343 68.8562C177.686 69.4884 176.03 70.1206 174.374 70.7529C178.229 74.1412 179.161 80.1712 177.701 85.2268C176.32 90.0133 173.152 94.0426 169.614 97.4922C168.924 94.9182 169.683 92.1276 170.189 89.4627C170.722 86.647 170.808 83.3545 168.836 81.3666C167.507 80.0256 165.556 79.6205 163.716 79.2951C154.437 77.6541 145.073 76.5422 135.668 75.9647C134.409 75.7908 133.127 75.9217 131.929 76.3464C129.64 77.3635 128.721 80.1566 128.057 82.6333C127.74 78.2861 127.994 73.916 128.812 69.6348C129.44 66.3582 130.428 63.0786 132.331 60.3631Z" fill="#12141D"/>
<path d="M161.189 212.116H134.944C134.032 212.116 133.158 211.754 132.513 211.109C131.869 210.465 131.507 209.591 131.507 208.679C131.507 207.768 131.869 206.893 132.513 206.249C133.158 205.604 134.032 205.242 134.944 205.242H161.189C162.1 205.242 162.974 205.604 163.619 206.249C164.263 206.893 164.625 207.768 164.625 208.679C164.625 209.591 164.263 210.465 163.619 211.109C162.974 211.754 162.1 212.116 161.189 212.116Z" fill="#343DE6"/>
<path d="M75.0697 28.1974H2.88088C2.21566 28.1963 1.57803 27.9313 1.10802 27.4606C0.638008 26.9898 0.374023 26.3518 0.374023 25.6866C0.374023 25.0214 0.638008 24.3833 1.10802 23.9126C1.57803 23.4418 2.21566 23.1768 2.88088 23.1758H75.0697C75.7356 23.1758 76.3742 23.4403 76.8451 23.9112C77.316 24.382 77.5805 25.0207 77.5805 25.6866C77.5805 26.3525 77.316 26.9911 76.8451 27.462C76.3742 27.9329 75.7356 28.1974 75.0697 28.1974Z" fill="#343DE6"/>
<path d="M116.749 44.2342H2.88077C2.2149 44.2342 1.5763 43.9697 1.10547 43.4988C0.634628 43.028 0.370117 42.3894 0.370117 41.7235C0.370117 41.0577 0.634628 40.4191 1.10547 39.9482C1.5763 39.4774 2.2149 39.2129 2.88077 39.2129H116.749C117.415 39.2129 118.054 39.4774 118.524 39.9482C118.995 40.4191 119.26 41.0577 119.26 41.7235C119.26 42.3894 118.995 43.028 118.524 43.4988C118.054 43.9697 117.415 44.2342 116.749 44.2342Z" fill="#343DE6"/>
<path d="M94.8672 59.3416H2.88077C2.2149 59.3416 1.5763 59.0771 1.10547 58.6063C0.634629 58.1354 0.370117 57.4968 0.370117 56.831C0.370117 56.1651 0.634629 55.5265 1.10547 55.0557C1.5763 54.5848 2.2149 54.3203 2.88077 54.3203H94.8672C95.533 54.3203 96.1716 54.5848 96.6425 55.0557C97.1133 55.5265 97.3778 56.1651 97.3778 56.831C97.3778 57.4968 97.1133 58.1354 96.6425 58.6063C96.1716 59.0771 95.533 59.3416 94.8672 59.3416Z" fill="#C6C6FF"/>
<path d="M54.7513 74.3943H2.88077C2.2149 74.3943 1.5763 74.1298 1.10547 73.659C0.634629 73.1882 0.370117 72.5496 0.370117 71.8837C0.370117 71.2178 0.634629 70.5792 1.10547 70.1084C1.5763 69.6376 2.2149 69.373 2.88077 69.373H54.7513C55.4171 69.373 56.0557 69.6376 56.5265 70.1084C56.9974 70.5792 57.2619 71.2178 57.2619 71.8837C57.2619 72.5496 56.9974 73.1882 56.5265 73.659C56.0557 74.1298 55.4171 74.3943 54.7513 74.3943Z" fill="#C6C6FF"/>
<path d="M83.4056 89.4451H2.88064C2.21546 89.4441 1.5779 89.1791 1.10792 88.7084C0.637937 88.2377 0.373962 87.5997 0.373962 86.9345C0.373962 86.2693 0.637937 85.6313 1.10792 85.1606C1.5779 84.6898 2.21546 84.4249 2.88064 84.4238H83.4056C84.0707 84.4249 84.7083 84.6898 85.1783 85.1606C85.6483 85.6313 85.9122 86.2693 85.9122 86.9345C85.9122 87.5997 85.6483 88.2377 85.1783 88.7084C84.7083 89.1791 84.0707 89.4441 83.4056 89.4451Z" fill="#C6C6FF"/>
</svg>
