<svg width="397" height="287" viewBox="0 0 397 287" fill="none" xmlns="http://www.w3.org/2000/svg">
<path d="M396.378 31.3734H1.33479C1.16896 31.3685 1.01116 31.2763 0.895168 31.1165C0.77918 30.9568 0.714233 30.7422 0.714233 30.5187C0.714233 30.2952 0.77918 30.0807 0.895168 29.9209C1.01116 29.7612 1.16896 29.669 1.33479 29.6641H396.378C396.544 29.669 396.702 29.7612 396.818 29.9209C396.934 30.0807 396.999 30.2952 396.999 30.5187C396.999 30.7422 396.934 30.9568 396.818 31.1165C396.702 31.2763 396.544 31.3685 396.378 31.3734Z" fill="#CACACA"/>
<path d="M377.346 19.4081C382.425 19.4081 386.542 15.199 386.542 10.0068C386.542 4.81459 382.425 0.605469 377.346 0.605469C372.267 0.605469 368.149 4.81459 368.149 10.0068C368.149 15.199 372.267 19.4081 377.346 19.4081Z" fill="#353EE7"/>
<path d="M345.576 19.4081C350.655 19.4081 354.773 15.199 354.773 10.0068C354.773 4.81459 350.655 0.605469 345.576 0.605469C340.497 0.605469 336.38 4.81459 336.38 10.0068C336.38 15.199 340.497 19.4081 345.576 19.4081Z" fill="#7357FF"/>
<path d="M313.806 19.4081C318.885 19.4081 323.003 15.199 323.003 10.0068C323.003 4.81459 318.885 0.605469 313.806 0.605469C308.727 0.605469 304.61 4.81459 304.61 10.0068C304.61 15.199 308.727 19.4081 313.806 19.4081Z" fill="#34AEFF"/>
<path d="M146.724 66.2031H38.4502C35.1036 66.2053 31.8946 67.5351 29.5275 69.9007C27.1603 72.2663 25.8284 75.4744 25.824 78.821V137.794C25.828 141.141 27.1596 144.35 29.5266 146.717C31.8936 149.084 35.1028 150.416 38.4502 150.42H146.724C150.072 150.416 153.281 149.084 155.648 146.717C158.015 144.35 159.346 141.141 159.351 137.794V78.821C159.346 75.4744 158.014 72.2663 155.647 69.9007C153.28 67.5351 150.071 66.2053 146.724 66.2031Z" fill="#ABABFF"/>
<path d="M303.437 66.2031H195.162C191.816 66.2053 188.607 67.5351 186.24 69.9007C183.873 72.2663 182.541 75.4744 182.536 78.821V137.794C182.54 141.141 183.872 144.35 186.239 146.717C188.606 149.084 191.815 150.416 195.162 150.42H303.437C306.784 150.416 309.993 149.084 312.36 146.717C314.727 144.35 316.059 141.141 316.063 137.794V78.821C316.058 75.4744 314.726 72.2663 312.359 69.9007C309.992 67.5351 306.783 66.2053 303.437 66.2031Z" fill="#ABABFF"/>
<path d="M311.328 167.029C325.163 167.029 336.378 155.814 336.378 141.979C336.378 128.145 325.163 116.93 311.328 116.93C297.494 116.93 286.278 128.145 286.278 141.979C286.278 155.814 297.494 167.029 311.328 167.029Z" fill="url(#paint0_linear_2963_14000)"/>
<path d="M307.91 155.018C307.478 155.018 307.051 154.917 306.664 154.723C306.277 154.53 305.941 154.249 305.681 153.903L298.847 144.791C298.628 144.498 298.468 144.165 298.377 143.81C298.287 143.456 298.266 143.087 298.318 142.725C298.37 142.363 298.493 142.014 298.679 141.699C298.865 141.384 299.112 141.109 299.405 140.89C299.698 140.67 300.031 140.511 300.385 140.42C300.74 140.329 301.108 140.309 301.471 140.361C301.833 140.412 302.181 140.535 302.496 140.721C302.811 140.908 303.086 141.154 303.306 141.447L307.777 147.408L319.26 130.184C319.67 129.57 320.307 129.144 321.032 128.999C321.756 128.855 322.508 129.004 323.122 129.413C323.737 129.823 324.163 130.46 324.309 131.184C324.454 131.908 324.306 132.66 323.897 133.275L310.229 153.777C309.982 154.148 309.649 154.454 309.259 154.669C308.869 154.885 308.433 155.004 307.988 155.017C307.962 155.017 307.936 155.018 307.91 155.018Z" fill="white"/>
<path d="M323.752 189.938H215.478C212.131 189.94 208.922 191.269 206.555 193.635C204.188 196.001 202.856 199.209 202.851 202.555V261.528C202.856 264.876 204.187 268.085 206.554 270.452C208.921 272.819 212.13 274.15 215.478 274.154H323.752C327.099 274.15 330.308 272.819 332.675 270.452C335.042 268.085 336.374 264.876 336.378 261.528V202.555C336.374 199.209 335.042 196.001 332.674 193.635C330.307 191.269 327.098 189.94 323.752 189.938Z" fill="#ABABFF"/>
<path d="M231.548 189.938H123.274C119.927 189.94 116.718 191.269 114.351 193.635C111.984 196.001 110.652 199.209 110.648 202.555V261.528C110.652 264.876 111.983 268.085 114.35 270.452C116.717 272.819 119.926 274.15 123.274 274.154H231.548C231.893 274.154 232.238 274.138 232.583 274.104C233.936 274.005 235.262 273.677 236.506 273.136C238.761 272.171 240.686 270.571 242.048 268.531C243.41 266.491 244.148 264.099 244.174 261.646V202.555C244.17 199.209 242.838 196.001 240.471 193.635C238.104 191.269 234.895 189.94 231.548 189.938Z" fill="#ABABFF"/>
<path d="M237.494 286.557C251.329 286.557 262.544 275.341 262.544 261.507C262.544 247.672 251.329 236.457 237.494 236.457C223.66 236.457 212.444 247.672 212.444 261.507C212.444 275.341 223.66 286.557 237.494 286.557Z" fill="url(#paint1_linear_2963_14000)"/>
<path d="M234.08 274.542C233.648 274.542 233.221 274.442 232.834 274.248C232.447 274.055 232.111 273.774 231.851 273.428L225.017 264.315C224.798 264.023 224.638 263.69 224.547 263.335C224.456 262.981 224.436 262.612 224.488 262.25C224.54 261.887 224.662 261.539 224.849 261.224C225.035 260.909 225.282 260.634 225.575 260.415C225.867 260.195 226.201 260.035 226.555 259.945C226.909 259.854 227.278 259.834 227.641 259.885C228.003 259.937 228.351 260.06 228.666 260.246C228.981 260.433 229.256 260.679 229.476 260.972L233.947 266.933L245.43 249.708C245.633 249.403 245.893 249.141 246.198 248.937C246.502 248.733 246.843 248.591 247.202 248.519C247.561 248.447 247.931 248.447 248.29 248.518C248.649 248.589 248.991 248.73 249.296 248.933C249.6 249.136 249.862 249.397 250.066 249.701C250.269 250.006 250.411 250.347 250.483 250.706C250.554 251.066 250.554 251.435 250.483 251.794C250.412 252.154 250.27 252.495 250.067 252.8L236.399 273.302C236.152 273.672 235.819 273.978 235.429 274.194C235.039 274.41 234.603 274.529 234.158 274.541C234.132 274.542 234.106 274.542 234.08 274.542Z" fill="white"/>
<defs>
<linearGradient id="paint0_linear_2963_14000" x1="286.278" y1="141.979" x2="336.378" y2="141.979" gradientUnits="userSpaceOnUse">
<stop stop-color="#34AEFF"/>
<stop offset="0.525" stop-color="#7357FF"/>
<stop offset="1" stop-color="#343DE6"/>
</linearGradient>
<linearGradient id="paint1_linear_2963_14000" x1="212.444" y1="261.507" x2="262.544" y2="261.507" gradientUnits="userSpaceOnUse">
<stop stop-color="#34AEFF"/>
<stop offset="0.525" stop-color="#7357FF"/>
<stop offset="1" stop-color="#343DE6"/>
</linearGradient>
</defs>
</svg>
