<svg width="341" height="225" viewBox="0 0 341 225" fill="none" xmlns="http://www.w3.org/2000/svg">
<path d="M170.268 106.677C170.954 106.576 171.649 106.512 172.344 106.467C164.448 124.662 163.901 145.207 170.817 163.797C170.122 163.714 169.436 163.605 168.751 163.477C162.056 162.18 156.038 158.549 151.769 153.23C147.5 147.912 145.257 141.251 145.439 134.434C145.622 127.616 148.217 121.085 152.764 116.002C157.311 110.919 163.514 107.615 170.268 106.677Z" fill="#12141D"/>
<path d="M170.268 106.677C170.954 106.576 171.649 106.512 172.344 106.467C164.448 124.662 163.901 145.207 170.817 163.797C170.122 163.714 169.436 163.605 168.751 163.477C162.056 162.18 156.038 158.549 151.769 153.23C147.5 147.912 145.257 141.251 145.439 134.434C145.622 127.616 148.217 121.085 152.764 116.002C157.311 110.919 163.514 107.615 170.268 106.677Z" fill="url(#paint0_linear_2963_12622)"/>
<path d="M313.243 106.467C313.938 106.512 314.633 106.576 315.318 106.677C322.073 107.615 328.276 110.919 332.823 116.002C337.369 121.085 339.965 127.617 340.147 134.434C340.329 141.251 338.086 147.912 333.817 153.23C329.549 158.548 323.531 162.179 316.836 163.477C316.15 163.605 315.465 163.714 314.77 163.797C321.685 145.207 321.138 124.662 313.243 106.467Z" fill="#12141D"/>
<path d="M313.243 106.467C313.938 106.512 314.633 106.576 315.318 106.677C322.073 107.615 328.276 110.919 332.823 116.002C337.369 121.085 339.965 127.617 340.147 134.434C340.329 141.251 338.086 147.912 333.817 153.23C329.549 158.548 323.531 162.179 316.836 163.477C316.15 163.605 315.465 163.714 314.77 163.797C321.685 145.207 321.138 124.662 313.243 106.467Z" fill="url(#paint1_linear_2963_12622)"/>
<path d="M315.299 106.677C307.768 88.6869 293.818 74.1387 276.16 65.8586C258.503 57.5785 238.397 56.1578 219.75 61.8723C201.104 67.5869 185.247 80.0288 175.26 96.7808C165.274 113.533 161.871 133.399 165.712 152.52C169.554 171.64 180.366 188.651 196.048 200.245C211.73 211.84 231.162 217.192 250.569 215.261C269.976 213.33 287.972 204.254 301.061 189.796C314.151 175.339 321.399 156.531 321.397 137.029C321.394 126.607 319.321 116.291 315.299 106.677ZM314.751 163.796C308.064 181.773 294.89 196.595 277.823 205.345C260.755 214.096 241.031 216.141 222.531 211.078C204.032 206.016 188.097 194.212 177.864 177.991C167.63 161.769 163.839 142.305 167.237 123.428C170.634 104.552 180.974 87.6307 196.222 75.9954C211.469 64.3601 230.519 58.8533 249.623 60.5588C268.727 62.2644 286.5 71.0589 299.445 85.2112C312.39 99.3636 319.569 117.849 319.569 137.029C319.566 146.167 317.935 155.231 314.751 163.796Z" fill="#12141D"/>
<path d="M315.299 106.677C307.768 88.6869 293.818 74.1387 276.16 65.8586C258.503 57.5785 238.397 56.1578 219.75 61.8723C201.104 67.5869 185.247 80.0288 175.26 96.7808C165.274 113.533 161.871 133.399 165.712 152.52C169.554 171.64 180.366 188.651 196.048 200.245C211.73 211.84 231.162 217.192 250.569 215.261C269.976 213.33 287.972 204.254 301.061 189.796C314.151 175.339 321.399 156.531 321.397 137.029C321.394 126.607 319.321 116.291 315.299 106.677ZM314.751 163.796C308.064 181.773 294.89 196.595 277.823 205.345C260.755 214.096 241.031 216.141 222.531 211.078C204.032 206.016 188.097 194.212 177.864 177.991C167.63 161.769 163.839 142.305 167.237 123.428C170.634 104.552 180.974 87.6307 196.222 75.9954C211.469 64.3601 230.519 58.8533 249.623 60.5588C268.727 62.2644 286.5 71.0589 299.445 85.2112C312.39 99.3636 319.569 117.849 319.569 137.029C319.566 146.167 317.935 155.231 314.751 163.796Z" fill="url(#paint2_linear_2963_12622)"/>
<path d="M207.171 132.821C208.01 134.75 207.214 137.931 204.797 142.371C202.38 146.804 200.098 149.02 197.951 149.02C195.812 149.02 192.364 147.238 187.615 143.667C182.867 140.096 180.492 138.027 180.492 137.445C180.492 135.899 181.843 132.814 184.544 128.19C187.246 123.558 189.62 121.246 191.667 121.246C193.722 121.246 196.608 122.689 200.326 125.583C204.051 128.484 206.333 130.892 207.171 132.821Z" fill="#343DE6"/>
<path d="M258.34 132.821C259.203 134.75 258.384 137.931 255.898 142.371C253.412 146.804 251.065 149.02 248.856 149.02C246.656 149.02 243.109 147.238 238.225 143.667C233.341 140.096 230.898 138.027 230.898 137.445C230.898 135.899 232.288 132.814 235.066 128.19C237.845 123.558 240.287 121.246 242.393 121.246C244.506 121.246 247.474 122.689 251.299 125.583C255.13 128.484 257.477 130.892 258.34 132.821Z" fill="#7357FF"/>
<path d="M308.753 133.271C309.592 135.146 308.796 138.239 306.379 142.556C303.962 146.865 301.68 149.02 299.533 149.02C297.394 149.02 293.946 147.287 289.197 143.816C284.449 140.344 282.074 138.332 282.074 137.767C282.074 136.263 283.425 133.264 286.126 128.768C288.828 124.265 291.202 122.018 293.249 122.018C295.304 122.018 298.19 123.421 301.908 126.234C305.633 129.054 307.915 131.395 308.753 133.271Z" fill="#34AEFF"/>
<path d="M172.342 0H73.3633V9.1916H172.342V0Z" fill="#343DE6"/>
<path d="M172.341 31.7969H42.9727V40.9885H172.341V31.7969Z" fill="#7357FF"/>
<path d="M172.343 63.5938H0V72.7854H172.343V63.5938Z" fill="#34AEFF"/>
<defs>
<linearGradient id="paint0_linear_2963_12622" x1="172.344" y1="135.132" x2="145.429" y2="135.132" gradientUnits="userSpaceOnUse">
<stop stop-color="#34AEFF"/>
<stop offset="0.525" stop-color="#7357FF"/>
<stop offset="1" stop-color="#343DE6"/>
</linearGradient>
<linearGradient id="paint1_linear_2963_12622" x1="340.157" y1="135.132" x2="313.243" y2="135.132" gradientUnits="userSpaceOnUse">
<stop stop-color="#34AEFF"/>
<stop offset="0.525" stop-color="#7357FF"/>
<stop offset="1" stop-color="#343DE6"/>
</linearGradient>
<linearGradient id="paint2_linear_2963_12622" x1="164.172" y1="137.035" x2="321.397" y2="137.035" gradientUnits="userSpaceOnUse">
<stop stop-color="#34AEFF"/>
<stop offset="0.525" stop-color="#7357FF"/>
<stop offset="1" stop-color="#343DE6"/>
</linearGradient>
</defs>
</svg>
