<svg width="398" height="166" viewBox="0 0 398 166" fill="none" xmlns="http://www.w3.org/2000/svg">
<path d="M-6.10352e-05 276.511C0.00198364 276.805 0.118652 277.085 0.325012 277.294C0.531189 277.499 0.81073 277.614 1.10184 277.613H5.5314C6.13788 277.615 6.63123 277.125 6.6333 276.519V142.555C6.6333 139.602 7.625 137.205 8.84259 137.2H284.584C285.807 137.205 286.793 139.602 286.799 142.555V275.69C286.801 276.258 287.232 276.731 287.796 276.787C288.689 276.875 289.581 276.952 290.468 277.024C290.49 277.024 290.512 277.029 290.534 277.029C291.019 277.073 291.504 277.106 291.989 277.145H291.994C292.248 276.688 292.49 276.219 292.738 275.751C292.818 275.592 292.859 275.417 292.859 275.239V135.608C292.859 134.792 292.826 133.971 292.771 133.161C292.693 132.049 292.555 130.942 292.358 129.845C291.427 124.726 289.322 121.261 286.931 121.25H6.50107C6.1521 121.252 5.80722 121.325 5.48734 121.465C5.01746 121.673 4.59265 121.97 4.23666 122.341C3.75345 122.843 3.34021 123.408 3.00809 124.021C1.82907 126.098 0.986115 129.195 0.688599 132.798C0.688599 132.831 0.683075 132.864 0.683075 132.897C0.605927 133.789 0.567383 134.699 0.572876 135.608L0.495758 147.414L0.446136 154.455L0.297363 176.548L0.24231 184.394L-6.10352e-05 276.511Z" fill="#E9E9FD"/>
<path d="M162.425 80.4082H190.526C191.354 80.4094 192.024 81.0813 192.023 81.9092V126.301H160.924V81.9091C160.924 81.0806 161.595 80.4086 162.424 80.4082H162.425ZM176.381 105.631C178.21 105.622 179.691 104.142 179.699 102.313V97.1925C179.699 95.3599 178.214 93.8742 176.381 93.8742C174.549 93.8742 173.063 95.3599 173.063 97.1925V102.313C173.071 104.142 174.552 105.622 176.381 105.631Z" fill="#E9E9FD"/>
<path d="M192.121 124.881V129.164C192.12 129.626 191.746 130 191.284 130.001H161.666C161.205 129.999 160.831 129.625 160.829 129.164V124.881H192.121Z" fill="#12141D"/>
<path d="M116.934 11.1289H237.056C239.205 11.1323 240.946 12.8734 240.949 15.0221V96.0807C240.947 98.23 239.205 99.9718 237.056 99.9738H116.934C114.785 99.9718 113.043 98.23 113.041 96.0807V15.0221C113.045 12.8734 114.786 11.1323 116.934 11.1289Z" fill="#E9E9FD"/>
<path d="M117.935 13.9414H236.051C237.201 13.9439 238.133 14.8773 238.133 16.0278V95.0773C238.131 96.2264 237.2 97.1574 236.051 97.1594H117.935C116.786 97.1574 115.855 96.2264 115.853 95.0773V16.0278C115.853 14.8773 116.785 13.9439 117.935 13.9414Z" fill="white"/>
<path d="M142.775 131.491H213.047C213.761 131.491 214.34 130.912 214.34 130.198C214.34 130.108 214.331 130.019 214.312 129.932L213.222 124.753C213.094 124.156 212.567 123.729 211.957 123.727H143.865C143.255 123.729 142.728 124.156 142.6 124.753L141.51 129.932C141.363 130.63 141.81 131.316 142.509 131.463C142.596 131.481 142.685 131.491 142.775 131.491Z" fill="#D1D1FF"/>
<path d="M144.632 124.66H146.258C146.407 124.66 146.527 124.781 146.527 124.929V125.69C146.527 125.838 146.407 125.959 146.258 125.959H144.632C144.483 125.959 144.363 125.838 144.363 125.69V124.929C144.363 124.781 144.483 124.66 144.632 124.66Z" fill="#ABABFF"/>
<path d="M148.96 124.66H150.587C150.735 124.66 150.855 124.781 150.855 124.929V125.69C150.855 125.838 150.735 125.959 150.587 125.959H148.96C148.812 125.959 148.691 125.838 148.691 125.69V124.929C148.691 124.781 148.812 124.66 148.96 124.66Z" fill="#ABABFF"/>
<path d="M153.288 124.66H154.915C155.063 124.66 155.184 124.781 155.184 124.929V125.69C155.184 125.838 155.063 125.959 154.915 125.959H153.288C153.14 125.959 153.019 125.838 153.019 125.69V124.929C153.019 124.781 153.14 124.66 153.288 124.66Z" fill="#ABABFF"/>
<path d="M157.616 124.66H159.243C159.391 124.66 159.512 124.781 159.512 124.929V125.69C159.512 125.838 159.391 125.959 159.243 125.959H157.616C157.468 125.959 157.347 125.838 157.347 125.69V124.929C157.347 124.781 157.468 124.66 157.616 124.66Z" fill="#ABABFF"/>
<path d="M161.944 124.66H163.571C163.719 124.66 163.84 124.781 163.84 124.929V125.69C163.84 125.838 163.719 125.959 163.571 125.959H161.944C161.796 125.959 161.676 125.838 161.676 125.69V124.929C161.676 124.781 161.796 124.66 161.944 124.66Z" fill="#ABABFF"/>
<path d="M166.273 124.66H167.899C168.048 124.66 168.168 124.781 168.168 124.929V125.69C168.168 125.838 168.048 125.959 167.899 125.959H166.273C166.124 125.959 166.004 125.838 166.004 125.69V124.929C166.004 124.781 166.124 124.66 166.273 124.66Z" fill="#ABABFF"/>
<path d="M170.601 124.66H172.227C172.376 124.66 172.496 124.781 172.496 124.929V125.69C172.496 125.838 172.376 125.959 172.227 125.959H170.601C170.452 125.959 170.332 125.838 170.332 125.69V124.929C170.332 124.781 170.452 124.66 170.601 124.66Z" fill="#ABABFF"/>
<path d="M174.933 124.66H176.559C176.708 124.66 176.828 124.781 176.828 124.929V125.69C176.828 125.838 176.708 125.959 176.559 125.959H174.933C174.784 125.959 174.664 125.838 174.664 125.69V124.929C174.664 124.781 174.784 124.66 174.933 124.66Z" fill="#ABABFF"/>
<path d="M179.261 124.66H180.887C181.036 124.66 181.156 124.781 181.156 124.929V125.69C181.156 125.838 181.036 125.959 180.887 125.959H179.261C179.112 125.959 178.992 125.838 178.992 125.69V124.929C178.992 124.781 179.112 124.66 179.261 124.66Z" fill="#ABABFF"/>
<path d="M183.589 124.66H185.216C185.364 124.66 185.485 124.781 185.485 124.929V125.69C185.485 125.838 185.364 125.959 185.216 125.959H183.589C183.441 125.959 183.32 125.838 183.32 125.69V124.929C183.32 124.781 183.441 124.66 183.589 124.66Z" fill="#ABABFF"/>
<path d="M187.917 124.66H189.544C189.692 124.66 189.812 124.781 189.812 124.929V125.69C189.812 125.838 189.692 125.959 189.544 125.959H187.917C187.769 125.959 187.648 125.838 187.648 125.69V124.929C187.648 124.781 187.769 124.66 187.917 124.66Z" fill="#ABABFF"/>
<path d="M192.245 124.66H193.872C194.02 124.66 194.141 124.781 194.141 124.929V125.69C194.141 125.838 194.02 125.959 193.872 125.959H192.245C192.097 125.959 191.976 125.838 191.976 125.69V124.929C191.976 124.781 192.097 124.66 192.245 124.66Z" fill="#ABABFF"/>
<path d="M196.577 124.66H198.204C198.352 124.66 198.473 124.781 198.473 124.929V125.69C198.473 125.838 198.352 125.959 198.204 125.959H196.577C196.429 125.959 196.308 125.838 196.308 125.69V124.929C196.308 124.781 196.429 124.66 196.577 124.66Z" fill="#ABABFF"/>
<path d="M200.905 124.66H202.532C202.68 124.66 202.801 124.781 202.801 124.929V125.69C202.801 125.838 202.68 125.959 202.532 125.959H200.905C200.757 125.959 200.636 125.838 200.636 125.69V124.929C200.636 124.781 200.757 124.66 200.905 124.66Z" fill="#ABABFF"/>
<path d="M205.234 124.66H206.86C207.008 124.66 207.129 124.781 207.129 124.929V125.69C207.129 125.838 207.008 125.959 206.86 125.959H205.234C205.085 125.959 204.965 125.838 204.965 125.69V124.929C204.965 124.781 205.085 124.66 205.234 124.66Z" fill="#ABABFF"/>
<path d="M209.562 124.66H211.188C211.337 124.66 211.457 124.781 211.457 124.929V125.69C211.457 125.838 211.337 125.959 211.188 125.959H209.562C209.413 125.959 209.293 125.838 209.293 125.69V124.929C209.293 124.781 209.413 124.66 209.562 124.66Z" fill="#ABABFF"/>
<path d="M144.581 126.824H146.208C146.356 126.824 146.477 126.945 146.477 127.093V127.854C146.477 128.002 146.356 128.123 146.208 128.123H144.581C144.433 128.123 144.312 128.002 144.312 127.854V127.093C144.312 126.945 144.433 126.824 144.581 126.824Z" fill="#ABABFF"/>
<path d="M148.909 126.824H150.536C150.684 126.824 150.805 126.945 150.805 127.093V127.854C150.805 128.002 150.684 128.123 150.536 128.123H148.909C148.761 128.123 148.64 128.002 148.64 127.854V127.093C148.64 126.945 148.761 126.824 148.909 126.824Z" fill="#ABABFF"/>
<path d="M153.237 126.824H154.864C155.012 126.824 155.133 126.945 155.133 127.093V127.854C155.133 128.002 155.012 128.123 154.864 128.123H153.237C153.089 128.123 152.969 128.002 152.969 127.854V127.093C152.969 126.945 153.089 126.824 153.237 126.824Z" fill="#ABABFF"/>
<path d="M157.566 126.824H159.192C159.341 126.824 159.461 126.945 159.461 127.093V127.854C159.461 128.002 159.341 128.123 159.192 128.123H157.566C157.417 128.123 157.297 128.002 157.297 127.854V127.093C157.297 126.945 157.417 126.824 157.566 126.824Z" fill="#ABABFF"/>
<path d="M161.894 126.824H163.52C163.669 126.824 163.789 126.945 163.789 127.093V127.854C163.789 128.002 163.669 128.123 163.52 128.123H161.894C161.745 128.123 161.625 128.002 161.625 127.854V127.093C161.625 126.945 161.745 126.824 161.894 126.824Z" fill="#ABABFF"/>
<path d="M166.222 126.824H167.848C167.997 126.824 168.117 126.945 168.117 127.093V127.854C168.117 128.002 167.997 128.123 167.848 128.123H166.222C166.073 128.123 165.953 128.002 165.953 127.854V127.093C165.953 126.945 166.073 126.824 166.222 126.824Z" fill="#ABABFF"/>
<path d="M170.554 126.824H172.18C172.329 126.824 172.449 126.945 172.449 127.093V127.854C172.449 128.002 172.329 128.123 172.18 128.123H170.554C170.405 128.123 170.285 128.002 170.285 127.854V127.093C170.285 126.945 170.405 126.824 170.554 126.824Z" fill="#ABABFF"/>
<path d="M174.882 126.824H176.508C176.657 126.824 176.777 126.945 176.777 127.093V127.854C176.777 128.002 176.657 128.123 176.508 128.123H174.882C174.733 128.123 174.613 128.002 174.613 127.854V127.093C174.613 126.945 174.733 126.824 174.882 126.824Z" fill="#ABABFF"/>
<path d="M179.21 126.824H180.837C180.985 126.824 181.105 126.945 181.105 127.093V127.854C181.105 128.002 180.985 128.123 180.837 128.123H179.21C179.062 128.123 178.941 128.002 178.941 127.854V127.093C178.941 126.945 179.062 126.824 179.21 126.824Z" fill="#ABABFF"/>
<path d="M183.538 126.824H185.165C185.313 126.824 185.434 126.945 185.434 127.093V127.854C185.434 128.002 185.313 128.123 185.165 128.123H183.538C183.39 128.123 183.269 128.002 183.269 127.854V127.093C183.269 126.945 183.39 126.824 183.538 126.824Z" fill="#ABABFF"/>
<path d="M187.866 126.824H189.493C189.641 126.824 189.762 126.945 189.762 127.093V127.854C189.762 128.002 189.641 128.123 189.493 128.123H187.866C187.718 128.123 187.597 128.002 187.597 127.854V127.093C187.597 126.945 187.718 126.824 187.866 126.824Z" fill="#ABABFF"/>
<path d="M192.194 126.824H193.821C193.969 126.824 194.09 126.945 194.09 127.093V127.854C194.09 128.002 193.969 128.123 193.821 128.123H192.194C192.046 128.123 191.926 128.002 191.926 127.854V127.093C191.926 126.945 192.046 126.824 192.194 126.824Z" fill="#ABABFF"/>
<path d="M196.523 126.824H198.149C198.298 126.824 198.418 126.945 198.418 127.093V127.854C198.418 128.002 198.298 128.123 198.149 128.123H196.523C196.374 128.123 196.254 128.002 196.254 127.854V127.093C196.254 126.945 196.374 126.824 196.523 126.824Z" fill="#ABABFF"/>
<path d="M200.851 126.824H202.477C202.626 126.824 202.746 126.945 202.746 127.093V127.854C202.746 128.002 202.626 128.123 202.477 128.123H200.851C200.702 128.123 200.582 128.002 200.582 127.854V127.093C200.582 126.945 200.702 126.824 200.851 126.824Z" fill="#ABABFF"/>
<path d="M205.179 126.824H206.805C206.954 126.824 207.074 126.945 207.074 127.093V127.854C207.074 128.002 206.954 128.123 206.805 128.123H205.179C205.03 128.123 204.91 128.002 204.91 127.854V127.093C204.91 126.945 205.03 126.824 205.179 126.824Z" fill="#ABABFF"/>
<path d="M209.511 126.824H211.137C211.286 126.824 211.406 126.945 211.406 127.093V127.854C211.406 128.002 211.286 128.123 211.137 128.123H209.511C209.362 128.123 209.242 128.002 209.242 127.854V127.093C209.242 126.945 209.362 126.824 209.511 126.824Z" fill="#ABABFF"/>
<path d="M165.357 129.422H182.133C182.282 129.422 182.402 129.542 182.402 129.691V130.451C182.402 130.6 182.282 130.72 182.133 130.72H165.357C165.208 130.72 165.088 130.6 165.088 130.451V129.691C165.088 129.542 165.208 129.422 165.357 129.422Z" fill="#ABABFF"/>
<path d="M119.593 24.8321H230.113C230.356 24.8268 230.548 24.6257 230.543 24.383C230.538 24.1478 230.348 23.9583 230.113 23.9531H119.593C119.35 23.9585 119.158 24.1596 119.163 24.4023C119.168 24.6375 119.358 24.827 119.593 24.8321Z" fill="#E9E9FD"/>
<path d="M127.116 21.7096C125.693 21.7096 124.54 20.5307 124.54 19.0765C124.54 17.6222 125.693 16.4434 127.116 16.4434C128.538 16.4434 129.691 17.6222 129.691 19.0765C129.691 20.5307 128.538 21.7096 127.116 21.7096Z" fill="#E9E9FD"/>
<path d="M136.014 21.7096C134.592 21.7096 133.438 20.5307 133.438 19.0765C133.438 17.6222 134.592 16.4434 136.014 16.4434C137.437 16.4434 138.59 17.6222 138.59 19.0765C138.59 20.5307 137.437 21.7096 136.014 21.7096Z" fill="#E9E9FD"/>
<path d="M144.913 21.7096C143.49 21.7096 142.337 20.5307 142.337 19.0765C142.337 17.6222 143.49 16.4434 144.913 16.4434C146.335 16.4434 147.488 17.6222 147.488 19.0765C147.488 20.5307 146.335 21.7096 144.913 21.7096Z" fill="#E9E9FD"/>
<path d="M232.529 14.3245H261.729C265.685 14.3245 268.892 11.1179 268.892 7.16226C268.892 3.20666 265.685 0 261.729 0H232.529C228.574 0 225.367 3.20666 225.367 7.16226C225.367 11.1179 228.574 14.3245 232.529 14.3245Z" fill="#353EE7"/>
<path d="M297.054 14.3245H326.254C330.21 14.3245 333.416 11.1179 333.416 7.16226C333.416 3.20666 330.21 0 326.254 0H297.054C293.098 0 289.892 3.20666 289.892 7.16226C289.892 11.1179 293.098 14.3245 297.054 14.3245Z" fill="#7357FF"/>
<path d="M361.579 14.3245H390.779C394.734 14.3245 397.941 11.1179 397.941 7.16226C397.941 3.20666 394.734 0 390.779 0H361.579C357.623 0 354.416 3.20666 354.416 7.16226C354.416 11.1179 357.623 14.3245 361.579 14.3245Z" fill="#34AEFF"/>
<path d="M181.296 64.269C181.53 64.269 181.763 64.1787 181.938 63.9989L187.064 58.7592C187.406 58.4101 187.406 57.8522 187.064 57.5031L181.938 52.2639C181.591 51.9095 181.021 51.9038 180.668 52.2499C180.313 52.5968 180.307 53.1657 180.654 53.5201L185.165 58.1312L180.654 62.7427C180.307 63.0971 180.313 63.666 180.668 64.0129C180.843 64.184 181.07 64.269 181.296 64.269Z" fill="#E9E9FD"/>
<path d="M172.688 64.2678C172.914 64.2678 173.141 64.1827 173.316 64.0116C173.671 63.6647 173.677 63.0962 173.33 62.7414L168.819 58.1299L173.33 53.5188C173.677 53.1644 173.671 52.5955 173.316 52.2486C172.962 51.9012 172.392 51.9078 172.045 52.2626L166.92 57.5018C166.579 57.8509 166.579 58.4088 166.92 58.7579L172.045 63.9976C172.221 64.1774 172.454 64.2678 172.688 64.2678Z" fill="#E9E9FD"/>
<path d="M215.297 17.6328H217.482C217.732 17.6328 217.934 17.8347 217.934 18.084V20.2719C217.934 20.5212 217.732 20.7231 217.482 20.7231H215.297C215.047 20.7231 214.843 20.5212 214.843 20.2719V18.084C214.843 17.8347 215.047 17.6328 215.297 17.6328Z" fill="#E9E9FD"/>
<path d="M209.941 17.6328H212.127C212.376 17.6328 212.578 17.8347 212.578 18.084V20.2719C212.578 20.5212 212.376 20.7231 212.127 20.7231H209.941C209.692 20.7231 209.488 20.5212 209.488 20.2719V18.084C209.488 17.8347 209.692 17.6328 209.941 17.6328Z" fill="#E9E9FD"/>
<path d="M220.343 17.7344H222.529C222.779 17.7344 222.98 17.9363 222.98 18.1856V20.3735C222.98 20.6227 222.779 20.8246 222.529 20.8246H220.343C220.094 20.8246 219.89 20.6227 219.89 20.3735V18.1856C219.89 17.9363 220.094 17.7344 220.343 17.7344Z" fill="#E9E9FD"/>
<path d="M172.11 18.5684H189.583C189.888 18.5684 190.133 18.8156 190.133 19.1184C190.133 19.4213 189.888 19.6685 189.583 19.6685H172.11C171.808 19.6685 171.56 19.4213 171.56 19.1184C171.56 18.8156 171.808 18.5684 172.11 18.5684Z" fill="#E9E9FD"/>
</svg>
