<svg width="235" height="151" viewBox="0 0 235 151" fill="none" xmlns="http://www.w3.org/2000/svg">
<path d="M231.875 151.281H2.75785C2.02669 151.281 1.32572 150.99 0.808713 150.473C0.291704 149.956 0.000866362 149.255 0 148.524V2.75785C0.000770283 2.02666 0.291578 1.32564 0.808607 0.808607C1.32564 0.291578 2.02666 0.000770283 2.75785 0H231.875C232.606 0.000770283 233.307 0.291578 233.824 0.808607C234.341 1.32564 234.632 2.02666 234.633 2.75785V148.524C234.632 149.255 234.341 149.956 233.824 150.473C233.307 150.99 232.606 151.281 231.875 151.281ZM2.75785 1.09121C2.31598 1.09169 1.89234 1.26744 1.57989 1.57989C1.26744 1.89234 1.09169 2.31598 1.09121 2.75785V148.524C1.09169 148.965 1.26744 149.389 1.57989 149.702C1.89234 150.014 2.31598 150.19 2.75785 150.19H231.875C232.317 150.19 232.741 150.014 233.053 149.702C233.366 149.389 233.541 148.965 233.542 148.524V2.75785C233.541 2.31598 233.366 1.89234 233.053 1.57989C232.741 1.26744 232.317 1.09169 231.875 1.09121H2.75785Z" fill="#7357FF"/>
<path d="M202.725 108.981C202.725 109.141 202.72 109.301 202.712 109.457C202.589 111.799 201.572 114.005 199.871 115.62C198.169 117.235 195.913 118.135 193.567 118.135C191.222 118.135 188.966 117.235 187.264 115.62C185.563 114.005 184.546 111.799 184.423 109.457C184.415 109.301 184.41 109.141 184.41 108.981C184.41 106.553 185.375 104.224 187.092 102.506C188.809 100.789 191.139 99.8242 193.567 99.8242C195.996 99.8242 198.325 100.789 200.042 102.506C201.76 104.224 202.724 106.553 202.724 108.981H202.725Z" fill="#353EE7"/>
<path d="M172.308 102.874H100.357C99.9618 102.889 99.588 103.056 99.3139 103.341C99.0398 103.626 98.8867 104.006 98.8867 104.401C98.8867 104.796 99.0398 105.176 99.3139 105.46C99.588 105.745 99.9618 105.912 100.357 105.927H172.308C172.712 105.942 173.106 105.795 173.402 105.52C173.699 105.245 173.874 104.863 173.889 104.458C173.904 104.054 173.759 103.66 173.484 103.363C173.209 103.066 172.827 102.89 172.423 102.874C172.385 102.873 172.346 102.873 172.308 102.874Z" fill="#353EE7"/>
<path d="M172.418 112.033H141.458C141.054 112.033 140.666 112.194 140.38 112.48C140.094 112.766 139.934 113.153 139.934 113.558C139.934 113.962 140.094 114.35 140.38 114.636C140.666 114.921 141.054 115.082 141.458 115.082H172.418C172.822 115.083 173.21 114.923 173.497 114.637C173.783 114.352 173.944 113.964 173.945 113.56C173.946 113.156 173.786 112.768 173.5 112.481C173.215 112.195 172.828 112.034 172.423 112.033H172.418Z" fill="#E9E9FD"/>
<path d="M183.592 91.5494H62.1968C61.517 91.5486 60.8653 91.2783 60.3846 90.7976C59.904 90.3169 59.6336 89.6652 59.6328 88.9854V35.7105C59.6336 35.0307 59.904 34.379 60.3846 33.8983C60.8653 33.4176 61.517 33.1473 62.1968 33.1465H183.59C184.27 33.1473 184.922 33.4176 185.402 33.8983C185.883 34.379 186.153 35.0307 186.154 35.7105V88.984C186.154 89.6637 185.884 90.3156 185.403 90.7966C184.923 91.2775 184.271 91.5482 183.592 91.5494Z" fill="#353EE7"/>
<path d="M183.592 91.5494H62.1968C61.517 91.5486 60.8653 91.2783 60.3846 90.7976C59.904 90.3169 59.6336 89.6652 59.6328 88.9854V35.7105C59.6336 35.0307 59.904 34.379 60.3846 33.8983C60.8653 33.4176 61.517 33.1473 62.1968 33.1465H183.59C184.27 33.1473 184.922 33.4176 185.402 33.8983C185.883 34.379 186.153 35.0307 186.154 35.7105V88.984C186.154 89.6637 185.884 90.3156 185.403 90.7966C184.923 91.2775 184.271 91.5482 183.592 91.5494Z" fill="url(#paint0_linear_2963_12678)"/>
<path d="M87.0514 52.0308C86.6466 52.0131 86.2514 52.1569 85.9526 52.4306C85.6539 52.7044 85.4762 53.0855 85.4585 53.4903C85.4408 53.8951 85.5846 54.2903 85.8584 54.5891C86.1321 54.8878 86.5133 55.0655 86.9181 55.0832C86.9625 55.0852 87.0069 55.0852 87.0514 55.0832H159.001C159.394 55.0661 159.766 54.8977 160.038 54.6134C160.31 54.329 160.462 53.9506 160.462 53.557C160.462 53.1634 160.31 52.7849 160.038 52.5006C159.766 52.2162 159.394 52.0479 159.001 52.0308H87.0514Z" fill="white"/>
<path d="M87.0514 60.8745C86.6466 60.8568 86.2514 61.0007 85.9526 61.2744C85.6539 61.5481 85.4762 61.9293 85.4585 62.3341C85.4408 62.7389 85.5846 63.1341 85.8584 63.4328C86.1321 63.7315 86.5133 63.9093 86.9181 63.927C86.9625 63.9289 87.0069 63.9289 87.0514 63.927H159.001C159.394 63.9098 159.766 63.7415 160.038 63.4572C160.31 63.1728 160.462 62.7944 160.462 62.4007C160.462 62.0071 160.31 61.6287 160.038 61.3443C159.766 61.06 159.394 60.8917 159.001 60.8745H87.0514Z" fill="white"/>
<path d="M127.773 69.6108C127.38 69.628 127.009 69.7963 126.737 70.0807C126.464 70.365 126.312 70.7434 126.312 71.1371C126.312 71.5307 126.464 71.9091 126.737 72.1935C127.009 72.4778 127.38 72.6461 127.773 72.6633H158.734C158.934 72.6721 159.134 72.6412 159.323 72.5726C159.511 72.504 159.684 72.3989 159.832 72.2634C159.98 72.1279 160.1 71.9645 160.185 71.7827C160.27 71.6009 160.318 71.4042 160.326 71.2037C160.335 71.0033 160.304 70.8031 160.236 70.6146C160.167 70.4261 160.062 70.2529 159.927 70.105C159.791 69.9571 159.628 69.8373 159.446 69.7525C159.264 69.6677 159.067 69.6196 158.867 69.6108C158.822 69.6089 158.778 69.6089 158.734 69.6108H127.773Z" fill="white"/>
<path d="M9.79069 9.65559C10.8379 9.65559 11.6868 8.80666 11.6868 7.75944C11.6868 6.71222 10.8379 5.86328 9.79069 5.86328C8.74347 5.86328 7.89453 6.71222 7.89453 7.75944C7.89453 8.80666 8.74347 9.65559 9.79069 9.65559Z" fill="#34AEFF"/>
<path d="M16.4274 9.65559C17.4746 9.65559 18.3236 8.80666 18.3236 7.75944C18.3236 6.71222 17.4746 5.86328 16.4274 5.86328C15.3802 5.86328 14.5312 6.71222 14.5312 7.75944C14.5312 8.80666 15.3802 9.65559 16.4274 9.65559Z" fill="#7357FF"/>
<path d="M23.0602 9.65559C24.1074 9.65559 24.9564 8.80666 24.9564 7.75944C24.9564 6.71222 24.1074 5.86328 23.0602 5.86328C22.013 5.86328 21.1641 6.71222 21.1641 7.75944C21.1641 8.80666 22.013 9.65559 23.0602 9.65559Z" fill="#353EE7"/>
<defs>
<linearGradient id="paint0_linear_2963_12678" x1="59.6328" y1="62.3479" x2="186.154" y2="62.3479" gradientUnits="userSpaceOnUse">
<stop stop-color="#34AEFF"/>
<stop offset="0.525" stop-color="#7357FF"/>
<stop offset="1" stop-color="#343DE6"/>
</linearGradient>
</defs>
</svg>
