<svg width="185" height="142" viewBox="0 0 185 142" fill="none" xmlns="http://www.w3.org/2000/svg">
<path d="M119.474 141.711H51.74C51.74 141.711 50.367 121.574 58.4905 121.345C66.6139 121.116 65.6986 130.27 75.8816 117.684C86.0646 105.098 98.4214 105.785 100.023 113.222C101.625 120.659 96.934 126.608 105.515 124.778C114.096 122.947 126.453 127.753 119.474 141.711Z" fill="#E9E9FD"/>
<path d="M118.03 126.521C113.043 126.07 108.04 127.2 103.73 129.75C99.4199 132.3 96.0213 136.141 94.0153 140.729C93.6323 141.608 94.9278 142.375 95.3142 141.488C97.1838 137.126 100.392 133.47 104.475 131.05C108.558 128.63 113.305 127.57 118.03 128.025C118.994 128.112 118.988 126.607 118.03 126.521Z" fill="white"/>
<path d="M57.9761 122.157C60.1421 124.671 61.776 127.599 62.7791 130.763C63.7822 133.926 64.1337 137.26 63.8124 140.564C63.718 141.527 65.2229 141.52 65.3166 140.564C65.6392 137.063 65.2494 133.532 64.1706 130.186C63.0918 126.84 61.3465 123.746 59.0397 121.093C58.4027 120.362 57.3425 121.429 57.9761 122.157Z" fill="white"/>
<path d="M95.0024 108.962C90.5525 116.452 87.0966 124.489 84.7218 132.872C84.0474 135.256 83.4637 137.664 82.9707 140.094C82.778 141.039 84.2276 141.443 84.4212 140.494C86.1376 132.047 88.952 123.861 92.7928 116.145C93.8825 113.961 95.052 111.82 96.3013 109.721C96.394 109.55 96.4163 109.349 96.3636 109.161C96.3109 108.973 96.1873 108.813 96.0187 108.714C95.8502 108.616 95.65 108.587 95.4604 108.633C95.2708 108.679 95.1066 108.797 95.0024 108.962Z" fill="white"/>
<path d="M149.055 41.9524V94.819H5.63991C5.04901 94.8191 4.46388 94.7029 3.91793 94.4768C3.37198 94.2508 2.87592 93.9193 2.45809 93.5015C2.04027 93.0837 1.70885 92.5876 1.4828 92.0417C1.25675 91.4957 1.14047 90.9106 1.14063 90.3197V37.4531H144.555C145.146 37.453 145.731 37.5692 146.277 37.7953C146.823 38.0213 147.319 38.3527 147.737 38.7706C148.155 39.1884 148.486 39.6845 148.712 40.2304C148.938 40.7764 149.055 41.3615 149.055 41.9524Z" fill="#353EE7"/>
<path d="M149.055 41.9524V94.819H5.63991C5.04901 94.8191 4.46388 94.7029 3.91793 94.4768C3.37198 94.2508 2.87592 93.9193 2.45809 93.5015C2.04027 93.0837 1.70885 92.5876 1.4828 92.0417C1.25675 91.4957 1.14047 90.9106 1.14063 90.3197V37.4531H144.555C145.146 37.453 145.731 37.5692 146.277 37.7953C146.823 38.0213 147.319 38.3527 147.737 38.7706C148.155 39.1884 148.486 39.6845 148.712 40.2304C148.938 40.7764 149.055 41.3615 149.055 41.9524Z" fill="url(#paint0_linear_2963_12657)"/>
<path d="M159.08 95.3195H5.14935C3.95294 95.3182 2.80593 94.8423 1.95994 93.9963C1.11395 93.1503 0.638086 92.0033 0.636719 90.8069V26.1259C0.638087 24.9295 1.11396 23.7825 1.95994 22.9365C2.80593 22.0905 3.95294 21.6146 5.14935 21.6133H159.08C160.277 21.6147 161.424 22.0905 162.27 22.9365C163.116 23.7825 163.591 24.9295 163.593 26.1259V90.8069C163.591 92.0033 163.116 93.1503 162.27 93.9963C161.424 94.8423 160.277 95.3182 159.08 95.3195ZM5.14935 22.6161C4.2188 22.6171 3.32667 22.9872 2.66868 23.6452C2.01069 24.3032 1.64057 25.1954 1.63953 26.1259V90.8069C1.64057 91.7375 2.01069 92.6296 2.66868 93.2876C3.32667 93.9456 4.2188 94.3157 5.14935 94.3167H159.08C160.011 94.3157 160.903 93.9456 161.561 93.2876C162.219 92.6296 162.589 91.7375 162.59 90.8069V26.1259C162.589 25.1954 162.219 24.3032 161.561 23.6452C160.903 22.9873 160.011 22.6171 159.08 22.6161H5.14935Z" fill="#7357FF"/>
<path d="M116.461 55.7076H25.7073C25.3084 55.7076 24.9258 55.5492 24.6437 55.2671C24.3616 54.985 24.2031 54.6024 24.2031 54.2034C24.2031 53.8045 24.3616 53.4219 24.6437 53.1398C24.9258 52.8577 25.3084 52.6992 25.7073 52.6992H116.461C116.86 52.6992 117.243 52.8577 117.525 53.1398C117.807 53.4219 117.965 53.8045 117.965 54.2034C117.965 54.6024 117.807 54.985 117.525 55.2671C117.243 55.5492 116.86 55.7076 116.461 55.7076Z" fill="white"/>
<path d="M116.461 68.2428H25.7073C25.3084 68.2428 24.9258 68.0843 24.6437 67.8022C24.3616 67.5201 24.2031 67.1375 24.2031 66.7386C24.2031 66.3396 24.3616 65.957 24.6437 65.675C24.9258 65.3929 25.3084 65.2344 25.7073 65.2344H116.461C116.86 65.2344 117.243 65.3929 117.525 65.675C117.807 65.957 117.965 66.3396 117.965 66.7386C117.965 67.1375 117.807 67.5201 117.525 67.8022C117.243 68.0843 116.86 68.2428 116.461 68.2428Z" fill="white"/>
<path d="M116.461 80.778H25.7073C25.3084 80.778 24.9258 80.6195 24.6437 80.3374C24.3616 80.0553 24.2031 79.6727 24.2031 79.2737C24.2031 78.8748 24.3616 78.4922 24.6437 78.2101C24.9258 77.928 25.3084 77.7695 25.7073 77.7695H116.461C116.86 77.7695 117.243 77.928 117.525 78.2101C117.807 78.4922 117.965 78.8748 117.965 79.2737C117.965 79.6727 117.807 80.0553 117.525 80.3374C117.243 80.6195 116.86 80.778 116.461 80.778Z" fill="white"/>
<path d="M162.948 38.3846C172.049 38.3846 179.428 31.0065 179.428 21.9052C179.428 12.8039 172.049 5.42578 162.948 5.42578C153.847 5.42578 146.469 12.8039 146.469 21.9052C146.469 31.0065 153.847 38.3846 162.948 38.3846Z" fill="#E9E9FD"/>
<path d="M163.015 26.8658L154.768 18.6189C154.501 18.3498 154.351 17.9858 154.352 17.6066C154.352 17.2273 154.503 16.8638 154.772 16.5957C155.04 16.3275 155.403 16.1766 155.782 16.1759C156.162 16.1753 156.526 16.325 156.795 16.5922L162.878 22.6753L182.289 0.539619C182.54 0.254406 182.894 0.080372 183.272 0.0557519C183.651 0.0311318 184.025 0.157926 184.31 0.408301C184.596 0.658676 184.77 1.01215 184.795 1.39106C184.82 1.76998 184.694 2.14336 184.444 2.42917L163.015 26.8658Z" fill="#353EE7"/>
<defs>
<linearGradient id="paint0_linear_2963_12657" x1="1.14062" y1="66.1361" x2="149.055" y2="66.1361" gradientUnits="userSpaceOnUse">
<stop stop-color="#34AEFF"/>
<stop offset="0.525" stop-color="#7357FF"/>
<stop offset="1" stop-color="#343DE6"/>
</linearGradient>
</defs>
</svg>
