<svg width="207" height="134" viewBox="0 0 207 134" fill="none" xmlns="http://www.w3.org/2000/svg">
<path d="M203.388 123.361H87.2937C86.3666 123.36 85.4778 122.991 84.8223 122.336C84.1667 121.68 83.798 120.792 83.7969 119.864V80.7C83.798 79.7729 84.1667 78.8841 84.8223 78.2285C85.4778 77.573 86.3666 77.2042 87.2937 77.2031H203.388C204.315 77.2042 205.204 77.5729 205.86 78.2285C206.515 78.8841 206.884 79.7729 206.885 80.7V119.864C206.884 120.792 206.515 121.68 205.86 122.336C205.204 122.991 204.315 123.36 203.388 123.361Z" fill="#E9E9FD"/>
<path d="M132.753 87.6914H101.98V91.1882H132.753V87.6914Z" fill="white"/>
<path d="M173.317 91.8876C174.476 91.8876 175.415 90.9482 175.415 89.7895C175.415 88.6307 174.476 87.6914 173.317 87.6914C172.158 87.6914 171.219 88.6307 171.219 89.7895C171.219 90.9482 172.158 91.8876 173.317 91.8876Z" fill="#353EE7"/>
<path d="M180.309 91.8876C181.468 91.8876 182.407 90.9482 182.407 89.7895C182.407 88.6307 181.468 87.6914 180.309 87.6914C179.15 87.6914 178.211 88.6307 178.211 89.7895C178.211 90.9482 179.15 91.8876 180.309 91.8876Z" fill="#353EE7"/>
<path d="M187.301 91.8876C188.46 91.8876 189.399 90.9482 189.399 89.7895C189.399 88.6307 188.46 87.6914 187.301 87.6914C186.142 87.6914 185.203 88.6307 185.203 89.7895C185.203 90.9482 186.142 91.8876 187.301 91.8876Z" fill="#353EE7"/>
<path d="M58.7166 0.995466C58.7166 0.995466 13.1063 19.7283 8.21947 21.7645C3.33266 23.8006 0.889234 28.6875 0.889234 33.5743C0.889234 38.4611 -2.7759 102.228 58.7166 133.058C58.7166 133.058 64.2976 134.603 68.5319 133.058C72.7661 131.514 126.521 105.451 126.521 33.3706C126.521 33.3706 126.521 26.0404 117.969 21.9681C109.417 17.8957 68.0702 0.995466 68.0702 0.995466C68.0702 0.995466 62.9926 -1.24433 58.7166 0.995466Z" fill="#353EE7"/>
<path d="M58.7166 0.995466C58.7166 0.995466 13.1063 19.7283 8.21947 21.7645C3.33266 23.8006 0.889234 28.6875 0.889234 33.5743C0.889234 38.4611 -2.7759 102.228 58.7166 133.058C58.7166 133.058 64.2976 134.603 68.5319 133.058C72.7661 131.514 126.521 105.451 126.521 33.3706C126.521 33.3706 126.521 26.0404 117.969 21.9681C109.417 17.8957 68.0702 0.995466 68.0702 0.995466C68.0702 0.995466 62.9926 -1.24433 58.7166 0.995466Z" fill="url(#paint0_linear_2963_12734)"/>
<path opacity="0.2" d="M63.6016 15.6562V115.589C63.6016 115.589 109.619 93.4381 109.212 35.2036L63.6016 15.6562Z" fill="#12141D"/>
<defs>
<linearGradient id="paint0_linear_2963_12734" x1="0.847656" y1="66.8724" x2="126.521" y2="66.8724" gradientUnits="userSpaceOnUse">
<stop stop-color="#34AEFF"/>
<stop offset="0.525" stop-color="#7357FF"/>
<stop offset="1" stop-color="#343DE6"/>
</linearGradient>
</defs>
</svg>
