<svg width="325" height="119" viewBox="0 0 325 119" fill="none" xmlns="http://www.w3.org/2000/svg">
<path d="M268.957 110.869H138.302C137.609 110.869 136.944 110.593 136.454 110.103C135.964 109.613 135.688 108.948 135.688 108.255V83.6291H136.733V108.255C136.734 108.671 136.899 109.07 137.193 109.364C137.487 109.658 137.886 109.823 138.302 109.824H268.957C269.373 109.823 269.771 109.658 270.065 109.364C270.359 109.07 270.525 108.671 270.525 108.255V83.457H271.571V108.255C271.57 108.948 271.294 109.613 270.804 110.103C270.314 110.593 269.65 110.869 268.957 110.869Z" fill="#333955"/>
<path d="M316.321 83.1055H9.29688V84.1512H316.321V83.1055Z" fill="#333955"/>
<path d="M9.3183 92.5407C14.2855 92.5407 18.3123 88.5139 18.3123 83.5467C18.3123 78.5795 14.2855 74.5527 9.3183 74.5527C4.35107 74.5527 0.324341 78.5795 0.324341 83.5467C0.324341 88.5139 4.35107 92.5407 9.3183 92.5407Z" fill="#353EE7"/>
<path d="M100.713 92.5407C105.68 92.5407 109.707 88.5139 109.707 83.5467C109.707 78.5795 105.68 74.5527 100.713 74.5527C95.7455 74.5527 91.7188 78.5795 91.7188 83.5467C91.7188 88.5139 95.7455 92.5407 100.713 92.5407Z" fill="#353EE7"/>
<path d="M162.74 118.976C167.707 118.976 171.734 114.949 171.734 109.982C171.734 105.015 167.707 100.988 162.74 100.988C157.773 100.988 153.746 105.015 153.746 109.982C153.746 114.949 157.773 118.976 162.74 118.976Z" fill="#333955"/>
<path d="M209.892 118.976C214.86 118.976 218.886 114.949 218.886 109.982C218.886 105.015 214.86 100.988 209.892 100.988C204.925 100.988 200.898 105.015 200.898 109.982C200.898 114.949 204.925 118.976 209.892 118.976Z" fill="#E9E9FD"/>
<path d="M187.045 92.5407C192.012 92.5407 196.039 88.5139 196.039 83.5467C196.039 78.5795 192.012 74.5527 187.045 74.5527C182.078 74.5527 178.051 78.5795 178.051 83.5467C178.051 88.5139 182.078 92.5407 187.045 92.5407Z" fill="#353EE7"/>
<path d="M315.088 92.5407C320.055 92.5407 324.082 88.5139 324.082 83.5467C324.082 78.5795 320.055 74.5527 315.088 74.5527C310.12 74.5527 306.094 78.5795 306.094 83.5467C306.094 88.5139 310.12 92.5407 315.088 92.5407Z" fill="#353EE7"/>
<path d="M271.048 92.5407C276.016 92.5407 280.042 88.5139 280.042 83.5467C280.042 78.5795 276.016 74.5527 271.048 74.5527C266.081 74.5527 262.054 78.5795 262.054 83.5467C262.054 88.5139 266.081 92.5407 271.048 92.5407Z" fill="#353EE7"/>
<path d="M17.7252 0.833984H1.04309V12.3312H17.7252V0.833984Z" fill="#353EE7"/>
<path d="M37.2103 84.149C37.0717 84.149 36.9387 84.0939 36.8406 83.9958C36.7426 83.8978 36.6875 83.7648 36.6875 83.6261V57.8173C36.6883 57.1243 36.964 56.4598 37.4541 55.9697C37.9442 55.4796 38.6086 55.2039 39.3017 55.2031H64.7511C64.8897 55.2031 65.0227 55.2582 65.1208 55.3563C65.2188 55.4543 65.2739 55.5873 65.2739 55.726C65.2739 55.8646 65.2188 55.9976 65.1208 56.0957C65.0227 56.1937 64.8897 56.2488 64.7511 56.2488H39.3017C38.8859 56.2493 38.4872 56.4147 38.1931 56.7087C37.899 57.0028 37.7336 57.4015 37.7332 57.8173V83.6261C37.7332 83.7648 37.6781 83.8978 37.58 83.9958C37.482 84.0939 37.349 84.149 37.2103 84.149Z" fill="#333955"/>
<path d="M65.9432 64.527C70.9104 64.527 74.9371 60.5003 74.9371 55.533C74.9371 50.5658 70.9104 46.5391 65.9432 46.5391C60.976 46.5391 56.9492 50.5658 56.9492 55.533C56.9492 60.5003 60.976 64.527 65.9432 64.527Z" fill="#E8E0D5"/>
<path d="M238.503 83.6261H237.457V57.8173C237.458 57.1243 237.734 56.4598 238.224 55.9697C238.714 55.4796 239.378 55.2039 240.071 55.2031H265.521V56.2488H240.071C239.655 56.2493 239.257 56.4147 238.963 56.7087C238.669 57.0028 238.503 57.4015 238.503 57.8173V83.6261Z" fill="#333955"/>
<path d="M266.717 64.527C271.684 64.527 275.711 60.5003 275.711 55.533C275.711 50.5658 271.684 46.5391 266.717 46.5391C261.749 46.5391 257.723 50.5658 257.723 55.533C257.723 60.5003 261.749 64.527 266.717 64.527Z" fill="#E8E0D5"/>
</svg>
