<svg width="363" height="328" viewBox="0 0 363 328" fill="none" xmlns="http://www.w3.org/2000/svg">
<path d="M76.9043 320.972C79.293 326.275 77.0257 335.02 70.1432 347.227C63.2607 359.413 56.7629 365.506 50.6496 365.506C44.5565 365.506 34.7388 360.607 21.2167 350.789C7.69462 340.972 0.933594 335.283 0.933594 333.684C0.933594 329.433 4.77966 320.952 12.4719 308.239C20.1641 295.507 26.9251 289.15 32.755 289.15C38.6051 289.15 46.8237 293.118 57.4106 301.073C68.0178 309.049 74.5157 315.668 76.9043 320.972Z" fill="#343DE6"/>
<path d="M219.291 320.972C221.68 326.275 219.413 335.02 212.53 347.227C205.647 359.413 199.15 365.506 193.036 365.506C186.943 365.506 177.126 360.607 163.603 350.789C150.081 340.972 143.32 335.283 143.32 333.684C143.32 329.433 147.166 320.952 154.859 308.239C162.551 295.507 169.312 289.15 175.142 289.15C180.992 289.15 189.21 293.118 199.797 301.073C210.404 309.049 216.902 315.668 219.291 320.972Z" fill="#7357FF"/>
<path d="M361.678 321.208C364.066 326.512 361.799 335.257 354.917 347.463C348.034 359.649 341.536 365.742 335.423 365.742C329.33 365.742 319.512 360.843 305.99 351.026C292.468 341.208 285.707 335.52 285.707 333.921C285.707 329.67 289.553 321.188 297.245 308.476C304.938 295.743 311.699 289.387 317.528 289.387C323.379 289.387 331.597 293.354 342.184 301.31C352.791 309.285 359.289 315.905 361.678 321.208Z" fill="#34AEFF"/>
<path d="M143.65 215.581C146.039 220.885 143.772 229.63 136.889 241.836C130.007 254.022 123.509 260.115 117.396 260.115C111.303 260.115 101.485 255.216 87.9628 245.399C74.4407 235.581 67.6797 229.893 67.6797 228.294C67.6797 224.043 71.5258 215.561 79.218 202.849C86.9102 190.116 93.6712 183.76 99.5011 183.76C105.351 183.76 113.57 187.727 124.157 195.683C134.764 203.658 141.262 210.278 143.65 215.581Z" fill="#343DE6"/>
<path d="M286.037 215.581C288.426 220.885 286.159 229.63 279.276 241.836C272.394 254.022 265.896 260.115 259.782 260.115C253.689 260.115 243.872 255.216 230.35 245.399C216.827 235.581 210.066 229.893 210.066 228.294C210.066 224.043 213.912 215.561 221.605 202.849C229.297 190.116 236.058 183.76 241.888 183.76C247.738 183.76 255.957 187.727 266.543 195.683C277.151 203.658 283.648 210.278 286.037 215.581Z" fill="#7357FF"/>
<path d="M428.428 215.818C430.816 221.121 428.549 229.866 421.667 242.072C414.784 254.258 408.286 260.351 402.173 260.351C396.08 260.351 386.262 255.453 372.74 245.635C359.218 235.817 352.457 230.129 352.457 228.53C352.457 224.279 356.303 215.797 363.995 203.085C371.688 190.352 378.449 183.996 384.278 183.996C390.129 183.996 398.347 187.964 408.934 195.919C419.541 203.895 426.039 210.514 428.428 215.818Z" fill="#34AEFF"/>
<path d="M210.4 110.191C212.789 115.494 210.522 124.239 203.639 136.445C196.757 148.631 190.259 154.724 184.146 154.724C178.053 154.724 168.235 149.826 154.713 140.008C141.191 130.19 134.43 124.502 134.43 122.903C134.43 118.652 138.276 110.17 145.968 97.458C153.66 84.7254 160.421 78.3691 166.251 78.3691C172.101 78.3691 180.32 82.3367 190.907 90.2921C201.514 98.2677 208.012 104.887 210.4 110.191Z" fill="#343DE6"/>
<path d="M352.787 110.191C355.176 115.494 352.909 124.239 346.026 136.445C339.144 148.631 332.646 154.724 326.532 154.724C320.439 154.724 310.622 149.826 297.1 140.008C283.577 130.19 276.816 124.502 276.816 122.903C276.816 118.652 280.662 110.17 288.355 97.458C296.047 84.7254 302.808 78.3691 308.638 78.3691C314.488 78.3691 322.707 82.3367 333.293 90.2921C343.901 98.2677 350.398 104.887 352.787 110.191Z" fill="#7357FF"/>
</svg>
