<svg width="243" height="55" viewBox="0 0 243 55" fill="none" xmlns="http://www.w3.org/2000/svg">
<path d="M84.9868 0.33594C85.2701 0.33594 85.5007 0.566491 85.5007 0.849793V3.70626L91.958 0.392602C92.0186 0.361341 92.1241 0.33594 92.1925 0.33594C98.4955 0.33594 103.646 5.48618 103.646 11.7892C103.646 15.5092 101.831 18.7916 99.0679 20.8763C101.833 22.9689 103.648 26.263 103.648 29.9909C103.648 36.3193 98.4759 41.491 92.1475 41.491C92.0792 41.491 91.9736 41.4656 91.9111 41.4343L85.5007 38.1187V40.9752C85.5007 41.2585 85.2701 41.489 84.9868 41.489H81.3586C81.0753 41.489 80.8447 41.2585 80.8447 40.9752V21.355V20.3762V2.21941V1.76222V1.30503V0.847837C80.8447 0.564535 81.0753 0.333984 81.3586 0.333984L84.9868 0.33594ZM85.5026 36.7296H91.4989H92.1964C95.9379 36.7042 98.8999 33.7305 98.8999 29.9811C98.8999 26.2591 95.977 23.2991 92.2745 23.2326H92.2374H92.1964H89.6388C89.3555 23.2326 89.125 23.0021 89.125 22.7188V18.9948C89.125 18.7115 89.3555 18.481 89.6388 18.481H90.2308C90.2465 18.479 90.2738 18.4771 90.2895 18.4771H92.1514C92.1983 18.4771 92.2433 18.481 92.2765 18.481H92.296C95.9868 18.4282 98.8999 15.4858 98.8999 11.7794C98.8999 8.03981 95.936 5.07589 92.1964 5.07589H85.5046L85.5026 36.7296ZM92.2667 18.4829C92.2706 18.4829 92.2784 18.4829 92.2823 18.4829H92.2804C92.2765 18.4829 92.2687 18.4829 92.2667 18.4829Z" fill="white"/>
<path d="M140.743 13.3066C141.026 13.3066 141.257 13.5372 141.257 13.8205V15.6805V39.1399V41.0019C141.257 41.2852 141.026 41.5157 140.743 41.5157H137.019C136.736 41.5157 136.505 41.2852 136.505 41.0019V36.809C135.665 37.3326 134.329 38.1552 132.684 39.0852C131.603 39.6968 130.493 40.2927 129.528 40.7401C128.565 41.1895 127.811 41.5138 127.148 41.5138C119.384 41.5138 113.044 35.1756 113.044 27.4092V15.6786V15.1901V14.7329V14.2757V13.8185C113.044 13.5352 113.274 13.3047 113.558 13.3047H117.282C117.565 13.3047 117.796 13.5352 117.796 13.8185V15.6805V27.4092C117.796 32.6083 121.949 36.7621 127.148 36.7621C128.034 36.7621 130.064 36.6351 132.058 36.3987C133.834 36.1877 135.634 35.8517 136.503 35.5312V13.8166C136.503 13.5333 136.734 13.3027 137.017 13.3027L140.743 13.3066Z" fill="white"/>
<path d="M167.217 13.3027C167.5 13.3027 167.731 13.5333 167.731 13.8166V17.5405C167.731 17.8239 167.5 18.0544 167.217 18.0544H165.355C160.146 18.0544 156.002 22.132 156.002 27.7551V39.138V40.9999C156.002 41.2833 155.772 41.5138 155.488 41.5138H151.764C151.481 41.5138 151.25 41.2833 151.25 40.9999V39.138V27.7551C151.25 19.6995 157.585 13.3047 165.355 13.3047H167.217V13.3027Z" fill="white"/>
<path d="M192.897 14.0764C193.86 14.5239 194.972 15.1198 196.052 15.7313C197.695 16.6613 199.034 17.4839 199.872 18.0075V15.6766V15.1882V14.731V14.2738V13.8166C199.872 13.5333 200.103 13.3027 200.386 13.3027H204.11C204.393 13.3027 204.624 13.5333 204.624 13.8166V15.6786V39.138V40.9999C204.624 41.2833 204.393 41.5138 204.11 41.5138H200.386C200.103 41.5138 199.872 41.2833 199.872 40.9999V39.138V36.8071C199.032 37.3307 197.695 38.1532 196.052 39.0833C194.972 39.6948 193.862 40.2907 192.897 40.7381C191.934 41.1875 191.18 41.5138 190.517 41.5138C182.753 41.5138 176.413 35.1737 176.413 27.4092C176.413 19.6448 182.753 13.3047 190.517 13.3047C191.18 13.3027 191.934 13.6271 192.897 14.0764ZM181.164 27.4073C181.164 32.6083 185.318 36.7621 190.517 36.7621C191.402 36.7621 193.432 36.6351 195.427 36.3987C197.203 36.1877 199.003 35.8536 199.872 35.5312V32.198V22.6165V19.2833C199.003 18.9629 197.203 18.6269 195.427 18.4159C193.432 18.1794 191.402 18.0525 190.517 18.0525C185.318 18.0525 181.164 22.2062 181.164 27.4073Z" fill="white"/>
<path d="M228.107 13.1055C228.141 13.1055 228.193 13.1113 228.225 13.1191C228.889 13.1543 229.645 13.4865 230.601 13.9417C231.611 14.4243 232.771 15.0612 233.881 15.704C235.475 16.6262 236.698 17.3902 237.46 17.8728V15.4833V14.9948V14.5376V14.0785V13.6213C237.46 13.338 237.691 13.1074 237.974 13.1074L241.698 13.1113C241.982 13.1113 242.212 13.3419 242.212 13.6252V15.4872V51.9785V53.8405C242.212 54.1238 241.982 54.3543 241.698 54.3543H237.974C237.691 54.3543 237.46 54.1238 237.46 53.8405V51.9785V36.5532C236.698 37.0357 235.475 37.7997 233.881 38.7219C232.771 39.3627 231.611 40.0016 230.601 40.4842C229.59 40.9668 228.797 41.3204 228.107 41.3204C220.341 41.3204 214.003 34.9803 214.003 27.2159C214.003 19.4475 220.341 13.1074 228.107 13.1055ZM218.753 27.2139C218.753 32.413 222.906 36.5688 228.106 36.5688C229.01 36.5688 231.085 36.4359 233.094 36.1897C234.098 36.0666 235.09 35.9142 235.919 35.7384C236.562 35.6016 237.109 35.4414 237.458 35.2968V32.751V27.2296V27.2178V27.2061V22.1965V19.1369C237.109 18.9923 236.564 18.8321 235.919 18.6953C235.09 18.5195 234.098 18.3671 233.092 18.244C231.083 17.9959 229.008 17.865 228.104 17.865C222.906 17.8591 218.753 22.0129 218.753 27.2139Z" fill="white"/>
<path d="M0 1.27864V6.86654C0 7.37062 0.408349 7.77897 0.912432 7.77897L44.2108 7.78092C44.7149 7.78092 45.1233 8.18927 45.1233 8.69335V26.5277C45.1233 27.0318 44.7149 27.4402 44.2108 27.4402H0.916338C0.412255 27.4402 0.00391144 27.8485 0.00391144 28.3506L0.00195572 33.9405C0.00195572 34.4446 0.410305 34.8529 0.914388 34.8529H44.2694C44.5117 34.8529 44.7423 34.9487 44.9142 35.1206L50.9808 41.1813C51.5552 41.7557 52.536 41.3474 52.536 40.5365V9.29512C52.536 9.05285 52.4403 8.8223 52.2683 8.65036L44.2519 0.633882C44.0799 0.461947 43.8494 0.366211 43.6071 0.366211H0.912432C0.408349 0.370119 0 0.776508 0 1.27864Z" fill="white"/>
<path d="M12.4489 16.9894C12.6794 17.5013 12.4606 18.3453 11.7963 19.5234C11.132 20.6996 10.5048 21.2877 9.91477 21.2877C9.32667 21.2877 8.37907 20.8149 7.07393 19.8673C5.76878 18.9197 5.11621 18.3707 5.11621 18.2164C5.11621 17.8061 5.48743 16.9874 6.22988 15.7604C6.97233 14.5315 7.6249 13.918 8.1876 13.918C8.75225 13.918 9.5455 14.3009 10.5673 15.0688C11.5911 15.8347 12.2183 16.4755 12.4489 16.9894Z" fill="white"/>
<path d="M26.1886 16.9894C26.4192 17.5013 26.2003 18.3453 25.536 19.5234C24.8717 20.6996 24.2446 21.2877 23.6545 21.2877C23.0664 21.2877 22.1188 20.8149 20.8137 19.8673C19.5085 18.9197 18.856 18.3707 18.856 18.2164C18.856 17.8061 19.2272 16.9874 19.9696 15.7604C20.7121 14.5315 21.3647 13.918 21.9273 13.918C22.492 13.918 23.2852 14.3009 24.3071 15.0688C25.3328 15.8347 25.96 16.4755 26.1886 16.9894Z" fill="white"/>
<path d="M39.9318 17.0128C40.1623 17.5247 39.9435 18.3687 39.2792 19.5469C38.6149 20.7231 37.9877 21.3112 37.3977 21.3112C36.8096 21.3112 35.862 20.8384 34.5568 19.8908C33.2517 18.9432 32.5991 18.3941 32.5991 18.2398C32.5991 17.8295 32.9703 17.0108 33.7128 15.7838C34.4552 14.5549 35.1078 13.9414 35.6705 13.9414C36.2352 13.9414 37.0284 14.3243 38.0503 15.0922C39.0741 15.86 39.7032 16.5009 39.9318 17.0128Z" fill="white"/>
</svg>
