<svg width="274" height="257" viewBox="0 0 274 257" fill="none" xmlns="http://www.w3.org/2000/svg">
<path d="M132.691 220.715H62.4844V256.095H132.691V220.715Z" fill="white"/>
<path d="M124.396 229.771H70.7788V231.589H124.396V229.771Z" fill="#343DE6"/>
<path d="M124.396 237.496H70.7788V239.314H124.396V237.496Z" fill="#343DE6"/>
<path d="M124.396 245.221H70.7788V247.038H124.396V245.221Z" fill="#343DE6"/>
<path d="M133.244 256.648H61.9312V220.162H133.244V256.648ZM63.0368 255.542H132.138V221.268H63.0368V255.542Z" fill="#12141D"/>
<path d="M82.2401 176.771C67.3766 176.783 52.8048 172.646 40.1648 164.826L39.8438 164.627L40.0423 164.306L82.0293 96.3535H162.279V96.7314C162.279 140.865 126.374 176.771 82.2401 176.771Z" fill="#343DE6"/>
<path d="M30.753 147.918L30.495 147.758C16.3288 138.999 6.1162 125.082 2.00964 108.94C-2.09692 92.7991 0.223266 75.6939 8.48121 61.2296L8.63182 60.9668L64.687 92.9982L30.753 147.918Z" fill="#7357FF"/>
<path d="M162.279 85.6332H81.7695L99.1253 7.00586L99.494 7.08686C117.295 11.0213 133.22 20.9131 144.637 35.1268C156.053 49.3404 162.277 67.0245 162.279 85.2553V85.6332Z" fill="#343DE6"/>
<path d="M68.9469 73.2492L14.397 42.0779L14.5436 41.8219C21.1569 30.2694 31.2864 21.1304 43.4562 15.7367C55.6261 10.343 69.2003 8.97634 82.2011 11.8359L82.4891 11.8992L68.9469 73.2492Z" fill="#34AEFF"/>
<path d="M273.106 1.4668H202.899V36.8466H273.106V1.4668Z" fill="white"/>
<path d="M264.812 10.5234H211.195V12.341H264.812V10.5234Z" fill="#343DE6"/>
<path d="M264.812 18.248H211.195V20.0656H264.812V18.248Z" fill="#343DE6"/>
<path d="M264.812 25.9727H211.195V27.7902H264.812V25.9727Z" fill="#343DE6"/>
<path d="M273.659 37.3995H202.347V0.914062H273.659V37.3995ZM203.452 36.2939H272.553V2.01968H203.452V36.2939Z" fill="#12141D"/>
<path d="M98.2902 129.148H97.1846V220.162H98.2902V129.148Z" fill="#12141D"/>
<path d="M202.627 19.1973L119.627 56.7383L120.083 57.7456L203.082 20.2047L202.627 19.1973Z" fill="#12141D"/>
</svg>
