<svg width="173" height="304" viewBox="0 0 173 304" fill="none" xmlns="http://www.w3.org/2000/svg">
<path d="M22.1755 43.288C22.7836 43.1988 23.3997 43.1421 24.0161 43.1016C17.0132 59.2398 16.5278 77.462 22.6617 93.9502C22.0456 93.8772 21.4375 93.78 20.8293 93.6664C14.891 92.5159 9.55366 89.2954 5.76743 84.5782C1.9812 79.8611 -0.00821114 73.9533 0.153358 67.9067C0.314926 61.8602 2.61695 56.0671 6.6497 51.5589C10.6824 47.0507 16.1842 44.1198 22.1755 43.288Z" fill="#12141D"/>
<path d="M22.1755 43.288C22.7836 43.1988 23.3997 43.1421 24.0161 43.1016C17.0132 59.2398 16.5278 77.462 22.6617 93.9502C22.0456 93.8772 21.4375 93.78 20.8293 93.6664C14.891 92.5159 9.55366 89.2954 5.76743 84.5782C1.9812 79.8611 -0.00821114 73.9533 0.153358 67.9067C0.314926 61.8602 2.61695 56.0671 6.6497 51.5589C10.6824 47.0507 16.1842 44.1198 22.1755 43.288Z" fill="url(#paint0_linear_2963_13472)"/>
<path d="M148.985 43.1016C149.601 43.1421 150.217 43.1989 150.826 43.288C156.817 44.1199 162.318 47.0508 166.351 51.559C170.384 56.0673 172.686 61.8603 172.847 67.9068C173.009 73.9533 171.019 79.861 167.233 84.5781C163.447 89.2953 158.11 92.5158 152.172 93.6664C151.564 93.78 150.955 93.8772 150.339 93.9502C156.473 77.4619 155.987 59.2399 148.985 43.1016Z" fill="#12141D"/>
<path d="M148.985 43.1016C149.601 43.1421 150.217 43.1989 150.826 43.288C156.817 44.1199 162.318 47.0508 166.351 51.559C170.384 56.0673 172.686 61.8603 172.847 67.9068C173.009 73.9533 171.019 79.861 167.233 84.5781C163.447 89.2953 158.11 92.5158 152.172 93.6664C151.564 93.78 150.955 93.8772 150.339 93.9502C156.473 77.4619 155.987 59.2399 148.985 43.1016Z" fill="url(#paint1_linear_2963_13472)"/>
<path d="M150.809 43.288C144.129 27.3318 131.757 14.4283 116.095 7.08429C100.434 -0.259714 82.6011 -1.51987 66.0623 3.54865C49.5235 8.61717 35.4593 19.6525 26.6018 34.5107C17.7443 49.3689 14.726 66.9891 18.1333 83.9482C21.5407 100.907 31.1304 115.994 45.0393 126.278C58.9483 136.563 76.1834 141.309 93.3964 139.597C110.609 137.884 126.571 129.834 138.181 117.011C149.791 104.187 156.219 87.5064 156.218 70.2084C156.215 60.9654 154.376 51.815 150.809 43.288ZM150.323 93.9501C144.392 109.894 132.707 123.04 117.569 130.802C102.432 138.563 84.9371 140.377 68.529 135.887C52.1208 131.397 37.9877 120.927 28.9111 106.54C19.8346 92.152 16.472 74.888 19.4854 58.1456C22.4988 41.4032 31.67 26.395 45.1936 16.0751C58.7172 5.75514 75.6138 0.870893 92.5579 2.38367C109.502 3.89644 125.266 11.6967 136.748 24.2491C148.229 36.8015 154.596 53.1969 154.596 70.2084C154.594 78.3133 153.147 86.3529 150.323 93.9501Z" fill="#12141D"/>
<path d="M150.809 43.288C144.129 27.3318 131.757 14.4283 116.095 7.08429C100.434 -0.259714 82.6011 -1.51987 66.0623 3.54865C49.5235 8.61717 35.4593 19.6525 26.6018 34.5107C17.7443 49.3689 14.726 66.9891 18.1333 83.9482C21.5407 100.907 31.1304 115.994 45.0393 126.278C58.9483 136.563 76.1834 141.309 93.3964 139.597C110.609 137.884 126.571 129.834 138.181 117.011C149.791 104.187 156.219 87.5064 156.218 70.2084C156.215 60.9654 154.376 51.815 150.809 43.288ZM150.323 93.9501C144.392 109.894 132.707 123.04 117.569 130.802C102.432 138.563 84.9371 140.377 68.529 135.887C52.1208 131.397 37.9877 120.927 28.9111 106.54C19.8346 92.152 16.472 74.888 19.4854 58.1456C22.4988 41.4032 31.67 26.395 45.1936 16.0751C58.7172 5.75514 75.6138 0.870893 92.5579 2.38367C109.502 3.89644 125.266 11.6967 136.748 24.2491C148.229 36.8015 154.596 53.1969 154.596 70.2084C154.594 78.3133 153.147 86.3529 150.323 93.9501Z" fill="url(#paint2_linear_2963_13472)"/>
<path d="M54.9073 66.4753C55.6513 68.1863 54.9451 71.0076 52.8014 74.9456C50.6576 78.8771 48.6337 80.8429 46.7295 80.8429C44.8317 80.8429 41.7737 79.2625 37.5619 76.0951C33.35 72.9277 31.2441 71.0925 31.2441 70.5766C31.2441 69.2051 32.4421 66.4688 34.8381 62.3675C37.234 58.2596 39.3399 56.209 41.1558 56.209C42.978 56.209 45.5379 57.489 48.8354 60.0556C52.1393 62.6287 54.1633 64.7642 54.9073 66.4753Z" fill="#343DE6"/>
<path d="M100.289 66.4753C101.055 68.1863 100.328 71.0076 98.1233 74.9456C95.9183 78.8771 93.8366 80.8429 91.878 80.8429C89.926 80.8429 86.7806 79.2625 82.4484 76.0951C78.1163 72.9277 75.9502 71.0925 75.9502 70.5766C75.9502 69.2051 77.1824 66.4688 79.6468 62.3675C82.1112 58.2596 84.2773 56.209 86.145 56.209C88.0193 56.209 90.6523 57.489 94.0441 60.0556C97.4424 62.6287 99.5242 64.7642 100.289 66.4753Z" fill="#7357FF"/>
<path d="M145.004 66.8737C145.748 68.5372 145.042 71.2801 142.898 75.1088C140.754 78.9311 138.73 80.8422 136.826 80.8422C134.928 80.8422 131.87 79.3057 127.659 76.2262C123.447 73.1468 121.341 71.3627 121.341 70.8611C121.341 69.5277 122.539 66.8674 124.935 62.88C127.331 58.8863 129.437 56.8926 131.252 56.8926C133.075 56.8926 135.635 58.137 138.932 60.6323C142.236 63.1339 144.26 65.2102 145.004 66.8737Z" fill="#34AEFF"/>
<path d="M75.9794 281.288L75.3813 283.521C74.2185 287.867 71.6407 291.702 68.0552 294.419C64.4697 297.137 60.081 298.582 55.5823 298.527C51.0836 298.473 46.7314 296.92 43.2134 294.116C39.6953 291.312 37.212 287.415 36.1556 283.042C36.0059 282.454 35.8879 281.86 35.8022 281.26C36.3697 281.429 36.9313 281.587 37.5035 281.741C50.8984 281.741 62.5783 281.288 75.9794 281.288Z" fill="#12141D"/>
<path d="M75.9794 281.288L75.3813 283.521C74.2185 287.867 71.6407 291.702 68.0552 294.419C64.4697 297.137 60.081 298.582 55.5823 298.527C51.0836 298.473 46.7314 296.92 43.2134 294.116C39.6953 291.312 37.212 287.415 36.1556 283.042C36.0059 282.454 35.8879 281.86 35.8022 281.26C36.3697 281.429 36.9313 281.587 37.5035 281.741C50.8984 281.741 62.5783 281.288 75.9794 281.288Z" fill="url(#paint3_linear_2963_13472)"/>
<path d="M139.147 281.288L138.549 283.521C137.386 287.867 134.808 291.702 131.223 294.419C127.637 297.137 123.248 298.582 118.75 298.527C114.251 298.473 109.899 296.92 106.381 294.116C102.863 291.312 100.379 287.415 99.3231 283.042C99.1734 282.454 99.0554 281.86 98.9696 281.26C99.5372 281.429 100.099 281.587 100.671 281.741C114.066 281.741 125.746 281.288 139.147 281.288Z" fill="#12141D"/>
<path d="M139.147 281.288L138.549 283.521C137.386 287.867 134.808 291.702 131.223 294.419C127.637 297.137 123.248 298.582 118.75 298.527C114.251 298.473 109.899 296.92 106.381 294.116C102.863 291.312 100.379 287.415 99.3231 283.042C99.1734 282.454 99.0554 281.86 98.9696 281.26C99.5372 281.429 100.099 281.587 100.671 281.741C114.066 281.741 125.746 281.288 139.147 281.288Z" fill="url(#paint4_linear_2963_13472)"/>
<rect x="17.8887" y="149.666" width="137.225" height="131.511" stroke="#12141D" stroke-width="2"/>
<rect x="17.8887" y="149.666" width="137.225" height="131.511" stroke="url(#paint5_linear_2963_13472)" stroke-width="2"/>
<path d="M72.0341 193.539C70.6133 192.527 68.9135 191.981 67.1689 191.975H35.278C33.0565 191.975 30.9259 192.857 29.3551 194.428C27.7843 195.999 26.9019 198.129 26.9019 200.351C26.9019 202.572 27.7843 204.703 29.3551 206.274C30.9259 207.844 33.0565 208.727 35.278 208.727H67.1689C67.7381 208.728 68.306 208.671 68.8634 208.557C69.4186 208.437 69.9615 208.266 70.4852 208.046C71.8486 207.458 73.0313 206.519 73.9121 205.324C74.7929 204.129 75.3401 202.721 75.4978 201.245C75.6554 199.769 75.4177 198.277 74.809 196.923C74.2004 195.569 73.2427 194.401 72.0341 193.539Z" fill="#12141D"/>
<path d="M42.4055 203.065C43.9039 203.065 45.1187 201.85 45.1187 200.352C45.1187 198.853 43.9039 197.639 42.4055 197.639C40.9071 197.639 39.6924 198.853 39.6924 200.352C39.6924 201.85 40.9071 203.065 42.4055 203.065Z" fill="#34AEFF"/>
<path d="M51.2239 203.065C52.7223 203.065 53.937 201.85 53.937 200.352C53.937 198.853 52.7223 197.639 51.2239 197.639C49.7255 197.639 48.5107 198.853 48.5107 200.352C48.5107 201.85 49.7255 203.065 51.2239 203.065Z" fill="#7357FF"/>
<path d="M60.0418 203.065C61.5402 203.065 62.7549 201.85 62.7549 200.352C62.7549 198.853 61.5402 197.639 60.0418 197.639C58.5433 197.639 57.3286 198.853 57.3286 200.352C57.3286 201.85 58.5433 203.065 60.0418 203.065Z" fill="#343DE6"/>
<defs>
<linearGradient id="paint0_linear_2963_13472" x1="24.0161" y1="68.5259" x2="0.144236" y2="68.5259" gradientUnits="userSpaceOnUse">
<stop stop-color="#34AEFF"/>
<stop offset="0.525" stop-color="#7357FF"/>
<stop offset="1" stop-color="#343DE6"/>
</linearGradient>
<linearGradient id="paint1_linear_2963_13472" x1="172.856" y1="68.5259" x2="148.985" y2="68.5259" gradientUnits="userSpaceOnUse">
<stop stop-color="#34AEFF"/>
<stop offset="0.525" stop-color="#7357FF"/>
<stop offset="1" stop-color="#343DE6"/>
</linearGradient>
<linearGradient id="paint2_linear_2963_13472" x1="16.7671" y1="70.2138" x2="156.218" y2="70.2138" gradientUnits="userSpaceOnUse">
<stop stop-color="#34AEFF"/>
<stop offset="0.525" stop-color="#7357FF"/>
<stop offset="1" stop-color="#343DE6"/>
</linearGradient>
<linearGradient id="paint3_linear_2963_13472" x1="35.4363" y1="278.319" x2="72.9294" y2="288.365" gradientUnits="userSpaceOnUse">
<stop stop-color="#34AEFF"/>
<stop offset="0.525" stop-color="#7357FF"/>
<stop offset="1" stop-color="#343DE6"/>
</linearGradient>
<linearGradient id="paint4_linear_2963_13472" x1="98.6038" y1="278.319" x2="136.097" y2="288.365" gradientUnits="userSpaceOnUse">
<stop stop-color="#34AEFF"/>
<stop offset="0.525" stop-color="#7357FF"/>
<stop offset="1" stop-color="#343DE6"/>
</linearGradient>
<linearGradient id="paint5_linear_2963_13472" x1="16.8887" y1="215.421" x2="156.114" y2="215.421" gradientUnits="userSpaceOnUse">
<stop stop-color="#34AEFF"/>
<stop offset="0.525" stop-color="#7357FF"/>
<stop offset="1" stop-color="#343DE6"/>
</linearGradient>
</defs>
</svg>
