<svg width="492" height="223" viewBox="0 0 492 223" fill="none" xmlns="http://www.w3.org/2000/svg">
<path d="M484.184 222.781H8.18359C6.19514 222.779 4.28874 221.988 2.88269 220.582C1.47664 219.176 0.685764 217.27 0.683594 215.281V8.28125C0.685764 6.29279 1.47664 4.3864 2.88269 2.98035C4.28874 1.57429 6.19514 0.78342 8.18359 0.78125H484.184C486.172 0.78342 488.078 1.57429 489.484 2.98035C490.891 4.3864 491.681 6.29279 491.684 8.28125V215.281C491.681 217.27 490.891 219.176 489.484 220.582C488.078 221.988 486.172 222.779 484.184 222.781ZM8.18359 3.78125C6.99052 3.78255 5.84668 4.25708 5.00305 5.10071C4.15942 5.94434 3.6849 7.08818 3.68359 8.28125V215.281C3.68489 216.474 4.15942 217.618 5.00305 218.462C5.84668 219.305 6.99052 219.78 8.18359 219.781H484.184C485.377 219.78 486.521 219.305 487.364 218.462C488.208 217.618 488.682 216.474 488.684 215.281V8.28125C488.682 7.08818 488.208 5.94434 487.364 5.10071C486.521 4.25708 485.377 3.78255 484.184 3.78125H8.18359Z" fill="#EFF0FD"/>
<path d="M27.6836 26.2812C26.4901 26.2812 25.3455 26.7554 24.5016 27.5993C23.6577 28.4432 23.1836 29.5878 23.1836 30.7812C23.1836 31.9747 23.6577 33.1193 24.5016 33.9632C25.3455 34.8071 26.4901 35.2812 27.6836 35.2812H90.6836C91.8771 35.2812 93.0217 34.8071 93.8656 33.9632C94.7095 33.1193 95.1836 31.9747 95.1836 30.7812C95.1836 29.5878 94.7095 28.4432 93.8656 27.5993C93.0217 26.7554 91.8771 26.2812 90.6836 26.2812H27.6836Z" fill="#EFF0FD"/>
<path d="M458.975 57.5772V141.027H34.1445V97.0891C37.0864 95.1999 40.046 93.3197 43.0322 91.5015C55.786 83.6967 69.4375 76.3975 84.3154 73.6923C91.3516 72.3804 98.5613 72.2904 105.628 73.4262C113.094 74.6591 120.239 77.2312 127.314 79.812C134.291 82.3664 141.285 85.0005 148.582 86.4816C155.693 87.8775 162.992 88.0215 170.153 86.9073C183.813 84.8586 196.647 79.3686 209.427 74.4019C222.288 69.4086 235.539 64.6902 249.457 64.0693C263.198 63.4485 276.769 66.6946 289.807 70.7212C316.39 78.9251 343.533 91.0936 371.681 82.7477C400.263 74.2866 426.553 49.861 458.229 57.1071C458.529 57.1626 458.796 57.3308 458.975 57.5772Z" fill="#EFF0FD"/>
<path d="M458.975 59.0317C458.84 59.2861 458.623 59.4874 458.359 59.6033C458.095 59.7191 457.8 59.7427 457.521 59.6703C453.746 58.8051 449.88 58.406 446.009 58.4818C414.852 59.0317 390.896 84.1136 360.431 87.8652C332.963 91.2444 307.109 77.8875 281.283 70.9075C267.864 67.28 254.028 65.3554 240.219 67.821C226.516 70.26 213.656 75.8653 200.742 80.8409C188.308 85.6302 175.385 90.0825 161.922 90.3042C147.119 90.5525 133.789 84.4506 120.06 79.8032C112.92 77.3819 105.594 75.4662 98.0289 75.2799C90.6556 75.1916 83.3187 76.3275 76.3173 78.6413C61.7276 83.2799 48.5835 91.5459 35.7854 99.7587C35.5661 99.9136 35.299 99.9859 35.0315 99.9627C34.7553 99.9258 34.4968 99.8056 34.2904 99.6184C34.084 99.4311 33.9395 99.1854 33.876 98.9141C33.8125 98.6427 33.833 98.3585 33.9348 98.0991C34.0367 97.8396 34.215 97.6173 34.4462 97.4616L35.0315 97.0891C37.9672 95.1999 40.9206 93.3197 43.9007 91.5015C56.6278 83.6967 70.2508 76.3975 85.0977 73.6923C92.119 72.3804 99.314 72.2904 106.366 73.4262C113.816 74.6591 120.947 77.2312 128.006 79.812C134.969 82.3664 141.949 85.0005 149.23 86.4816C156.326 87.8775 163.611 88.0215 170.756 86.9073C184.388 84.8586 197.195 79.3686 209.948 74.4019C222.782 69.4086 236.006 64.6902 249.895 64.0693C263.606 63.4485 277.15 66.6946 290.161 70.7212C316.688 78.9251 343.774 91.0936 371.863 82.7477C400.386 74.2866 426.621 49.861 458.23 57.1071C458.53 57.1627 458.796 57.3309 458.975 57.5771C459.112 57.795 459.185 58.0471 459.185 58.3044C459.185 58.5618 459.112 58.8139 458.975 59.0317Z" fill="#343DE6"/>
<path d="M92.6771 80.7156C96.1059 80.7156 98.8855 77.936 98.8855 74.5072C98.8855 71.0784 96.1059 68.2988 92.6771 68.2988C89.2483 68.2988 86.4688 71.0784 86.4688 74.5072C86.4688 77.936 89.2483 80.7156 92.6771 80.7156Z" fill="#343DE6"/>
<path d="M249.662 72.7332C253.09 72.7332 255.87 69.9536 255.87 66.5248C255.87 63.096 253.09 60.3164 249.662 60.3164C246.233 60.3164 243.453 63.096 243.453 66.5248C243.453 69.9536 246.233 72.7332 249.662 72.7332Z" fill="#343DE6"/>
<path d="M441.236 64.7507C444.665 64.7507 447.444 61.9712 447.444 58.5424C447.444 55.1136 444.665 52.334 441.236 52.334C437.807 52.334 435.027 55.1136 435.027 58.5424C435.027 61.9712 437.807 64.7507 441.236 64.7507Z" fill="#343DE6"/>
<path d="M89.1836 176.281C87.9901 176.281 86.8455 176.755 86.0016 177.599C85.1577 178.443 84.6836 179.588 84.6836 180.781C84.6836 181.975 85.1577 183.119 86.0016 183.963C86.8455 184.807 87.9901 185.281 89.1836 185.281H152.184C153.377 185.281 154.522 184.807 155.366 183.963C156.21 183.119 156.684 181.975 156.684 180.781C156.684 179.588 156.21 178.443 155.366 177.599C154.522 176.755 153.377 176.281 152.184 176.281H89.1836Z" fill="#EFF0FD"/>
<path d="M48.6836 197.281C58.0724 197.281 65.6836 189.67 65.6836 180.281C65.6836 170.892 58.0724 163.281 48.6836 163.281C39.2948 163.281 31.6836 170.892 31.6836 180.281C31.6836 189.67 39.2948 197.281 48.6836 197.281Z" fill="#343DE6"/>
<path d="M241.184 176.281C239.99 176.281 238.846 176.755 238.002 177.599C237.158 178.443 236.684 179.588 236.684 180.781C236.684 181.975 237.158 183.119 238.002 183.963C238.846 184.807 239.99 185.281 241.184 185.281H304.184C305.377 185.281 306.522 184.807 307.366 183.963C308.21 183.119 308.684 181.975 308.684 180.781C308.684 179.588 308.21 178.443 307.366 177.599C306.522 176.755 305.377 176.281 304.184 176.281H241.184Z" fill="#EFF0FD"/>
<path d="M200.684 197.281C210.072 197.281 217.684 189.67 217.684 180.281C217.684 170.892 210.072 163.281 200.684 163.281C191.295 163.281 183.684 170.892 183.684 180.281C183.684 189.67 191.295 197.281 200.684 197.281Z" fill="#343DE6"/>
<path d="M393.184 176.281C391.99 176.281 390.846 176.755 390.002 177.599C389.158 178.443 388.684 179.588 388.684 180.781C388.684 181.975 389.158 183.119 390.002 183.963C390.846 184.807 391.99 185.281 393.184 185.281H456.184C457.377 185.281 458.522 184.807 459.366 183.963C460.21 183.119 460.684 181.975 460.684 180.781C460.684 179.588 460.21 178.443 459.366 177.599C458.522 176.755 457.377 176.281 456.184 176.281H393.184Z" fill="#EFF0FD"/>
<path d="M352.684 197.281C362.072 197.281 369.684 189.67 369.684 180.281C369.684 170.892 362.072 163.281 352.684 163.281C343.295 163.281 335.684 170.892 335.684 180.281C335.684 189.67 343.295 197.281 352.684 197.281Z" fill="#343DE6"/>
</svg>
