<svg width="561" height="323" viewBox="0 0 561 323" fill="none" xmlns="http://www.w3.org/2000/svg">
<g clip-path="url(#clip0_2963_13568)">
<path d="M535.093 296.205C534.61 290.497 531.993 285.182 527.765 281.318C527.346 280.935 527.962 280.305 528.38 280.687C532.773 284.716 535.484 290.253 535.974 296.194C536.02 296.76 535.139 296.768 535.093 296.205Z" fill="white"/>
<path d="M492.051 218.305C492.094 218.657 492.138 219.009 492.188 219.364C492.796 224.095 493.787 228.768 495.152 233.338C495.252 233.693 495.358 234.051 495.468 234.402C498.874 245.377 504.288 255.624 511.434 264.623C514.281 268.201 517.396 271.557 520.752 274.662C525.387 278.951 530.755 283.232 533.618 288.642C533.923 289.203 534.193 289.783 534.427 290.377L520.136 319.673C520.07 319.724 520.011 319.778 519.945 319.828L519.428 321.024C519.243 320.876 519.055 320.718 518.871 320.57C518.764 320.485 518.66 320.393 518.553 320.307C518.482 320.248 518.412 320.189 518.345 320.14C518.321 320.12 518.298 320.1 518.281 320.084C518.214 320.035 518.157 319.982 518.097 319.936C517.044 319.058 515.995 318.172 514.951 317.276C514.944 317.273 514.944 317.273 514.94 317.263C507.001 310.419 499.562 302.852 493.509 294.397C493.327 294.143 493.138 293.885 492.963 293.618C490.255 289.791 487.865 285.75 485.816 281.534C484.702 279.222 483.705 276.855 482.83 274.442C480.58 268.204 479.326 261.65 479.114 255.022C478.691 241.808 482.5 228.606 491.366 219.03C491.593 218.785 491.817 218.546 492.051 218.305Z" fill="#F0F0F0"/>
<path d="M494.305 218.551C490.086 234.553 491.016 251.477 496.964 266.92C498.185 270.267 499.927 273.401 502.124 276.206C504.353 278.869 507.254 280.887 510.526 282.05C513.555 283.196 516.787 284.017 519.485 285.878C520.852 286.852 521.997 288.104 522.847 289.551C523.696 290.998 524.23 292.609 524.413 294.277C524.978 298.422 524.019 302.522 522.943 306.5C521.748 310.916 520.436 315.484 521.315 320.084C521.421 320.642 520.55 320.774 520.443 320.218C518.915 312.213 523.669 304.805 523.7 296.879C523.715 293.18 522.615 289.455 519.627 287.08C517.014 285.003 513.683 284.153 510.606 283.02C507.397 281.932 504.503 280.076 502.177 277.612C499.844 274.928 497.985 271.866 496.679 268.559C493.621 261.159 491.745 253.324 491.12 245.341C490.356 236.234 491.156 227.064 493.485 218.227C493.63 217.68 494.448 218.008 494.305 218.551Z" fill="white"/>
<path d="M533.976 262.061C531.25 262.707 528.382 262.363 525.886 261.09C523.39 259.818 521.427 257.699 520.349 255.113C520.133 254.589 520.937 254.228 521.154 254.753C522.153 257.163 523.981 259.136 526.308 260.317C528.635 261.497 531.307 261.807 533.843 261.19C534.394 261.057 534.524 261.929 533.976 262.061Z" fill="white"/>
<path d="M502.21 281.672C505.261 276.824 506.372 271.004 505.322 265.374C505.218 264.816 506.089 264.683 506.193 265.24C507.275 271.102 506.106 277.155 502.92 282.193C502.616 282.673 501.908 282.149 502.21 281.672Z" fill="white"/>
<path d="M518.049 236.607C519.156 236.577 520.239 236.273 521.199 235.721C522.159 235.169 522.967 234.387 523.55 233.446C523.848 232.962 524.556 233.487 524.261 233.968C523.611 235.005 522.718 235.867 521.658 236.479C520.599 237.091 519.405 237.434 518.183 237.478C518.068 237.492 517.952 237.462 517.859 237.393C517.765 237.325 517.702 237.223 517.681 237.11C517.663 236.994 517.693 236.877 517.762 236.783C517.831 236.689 517.934 236.626 518.049 236.607Z" fill="white"/>
<path d="M73.5988 304.98C90.3489 294.064 102.528 274.442 100.035 254.605C84.9528 270.265 64.8173 280.085 43.1914 282.329C34.848 283.163 25.4813 283.223 19.5562 289.156C15.8694 292.848 14.303 298.244 14.2224 303.46C14.142 308.677 15.3954 313.812 16.6407 318.879L16.3347 320.145C36.3142 319.406 56.8486 315.896 73.5988 304.98Z" fill="#F0F0F0"/>
<path d="M96.9227 254.602C90.6569 269.918 79.7243 282.871 65.6778 291.621C62.6873 293.558 59.4101 295.012 55.967 295.928C52.5841 296.713 49.0527 296.577 45.7399 295.536C42.6315 294.627 39.5573 293.336 36.282 293.199C34.6044 293.153 32.9361 293.463 31.3865 294.107C29.837 294.751 28.4411 295.716 27.2905 296.938C24.3442 299.907 22.6406 303.758 21.1055 307.582C19.4011 311.827 17.698 316.264 14.2267 319.409C13.8062 319.79 14.4219 320.42 14.8419 320.039C20.8813 314.568 21.5461 305.791 26.2933 299.444C28.5085 296.482 31.6296 294.17 35.4452 294.072C38.7818 293.987 41.9531 295.314 45.0925 296.262C48.3093 297.326 51.7377 297.586 55.0781 297.019C58.5568 296.28 61.8844 294.955 64.9186 293.1C71.816 289.033 78.0311 283.907 83.3361 277.909C89.4287 271.098 94.3111 263.294 97.7722 254.836C97.9862 254.312 97.1353 254.082 96.9227 254.602Z" fill="white"/>
<path d="M26.3447 289.07C28.1326 291.228 30.6292 292.679 33.3886 293.166C36.148 293.652 38.9904 293.142 41.4084 291.727C41.8967 291.438 41.472 290.666 40.983 290.955C38.7338 292.277 36.0859 292.752 33.5173 292.294C30.9487 291.835 28.6286 290.474 26.9756 288.455C26.6159 288.017 25.9871 288.634 26.3447 289.07Z" fill="white"/>
<path d="M58.0469 296.205C58.53 290.497 61.1465 285.182 65.3747 281.318C65.7939 280.935 65.1783 280.305 64.7596 280.687C60.3671 284.716 57.6555 290.253 57.1658 296.194C57.1195 296.76 58.0009 296.768 58.0469 296.205Z" fill="white"/>
<path d="M26.8396 270.729C25.9739 270.039 25.2932 269.144 24.8588 268.125C24.4244 267.107 24.2497 265.996 24.3506 264.893C24.404 264.328 23.5225 264.32 23.4695 264.882C23.3637 266.101 23.5581 267.327 24.0356 268.454C24.5131 269.58 25.2591 270.573 26.2086 271.344C26.292 271.425 26.4028 271.47 26.5186 271.472C26.6343 271.473 26.7463 271.43 26.8317 271.352C26.9148 271.27 26.9622 271.159 26.9637 271.042C26.9652 270.926 26.9206 270.813 26.8396 270.729Z" fill="white"/>
<path d="M101.087 218.305C101.043 218.657 101 219.009 100.95 219.364C100.342 224.095 99.3507 228.768 97.9858 233.338C97.8859 233.693 97.7793 234.051 97.6694 234.402C94.2637 245.377 88.8501 255.624 81.7037 264.623C78.8568 268.201 75.7417 271.557 72.3855 274.662C67.7502 278.951 62.3831 283.232 59.5195 288.642C59.2144 289.203 58.9444 289.783 58.7109 290.377L73.0016 319.673C73.0675 319.724 73.1269 319.777 73.193 319.828L73.7101 321.024C73.8944 320.876 74.0823 320.718 74.2666 320.57C74.3739 320.485 74.4779 320.393 74.5852 320.307C74.6557 320.248 74.726 320.189 74.793 320.14C74.8165 320.12 74.8399 320.1 74.8568 320.084C74.9238 320.035 74.9808 319.982 75.0411 319.936C76.0941 319.058 77.1428 318.172 78.1871 317.276C78.1938 317.273 78.1938 317.273 78.1973 317.263C86.1371 310.419 93.5753 302.852 99.6285 294.397C99.8106 294.143 99.9995 293.885 100.175 293.617C102.882 289.791 105.272 285.75 107.321 281.534C108.436 279.222 109.433 276.855 110.308 274.442C112.557 268.204 113.811 261.65 114.024 255.022C114.446 241.808 110.638 228.606 101.771 219.03C101.545 218.785 101.321 218.546 101.087 218.305Z" fill="#F0F0F0"/>
<path d="M98.8303 218.551C103.049 234.553 102.119 251.477 96.171 266.92C94.9496 270.267 93.2083 273.401 91.011 276.206C88.7824 278.869 85.8812 280.887 82.6089 282.05C79.5796 283.196 76.3483 284.017 73.6503 285.878C72.2833 286.852 71.1376 288.104 70.2883 289.551C69.439 290.998 68.9052 292.609 68.722 294.277C68.1574 298.422 69.1157 302.522 70.1922 306.5C71.3875 310.916 72.6989 315.484 71.8205 320.084C71.7141 320.642 72.5852 320.774 72.6915 320.218C74.2197 312.213 69.4658 304.805 69.4349 296.879C69.4205 293.18 70.5205 289.455 73.5082 287.08C76.1209 285.003 79.4523 284.153 82.5295 283.02C85.7383 281.932 88.632 280.076 90.9578 277.612C93.2908 274.928 95.15 271.866 96.4557 268.559C99.5143 261.159 101.39 253.324 102.015 245.341C102.779 236.234 101.979 227.064 99.6497 218.227C99.5054 217.68 98.6869 218.008 98.8303 218.551Z" fill="white"/>
<path d="M59.1599 262.061C61.8863 262.707 64.7537 262.363 67.2499 261.09C69.746 259.818 71.7085 257.699 72.7868 255.113C73.0033 254.589 72.1991 254.228 71.9824 254.753C70.9827 257.163 69.1545 259.136 66.8276 260.317C64.5008 261.497 61.8286 261.807 59.2933 261.19C58.7422 261.057 58.612 261.929 59.1599 262.061Z" fill="white"/>
<path d="M90.9348 281.672C87.8842 276.824 86.773 271.004 87.8227 265.374C87.9271 264.816 87.056 264.683 86.9517 265.24C85.8703 271.102 87.039 277.155 90.2245 282.193C90.5285 282.673 91.2371 282.149 90.9348 281.672Z" fill="white"/>
<path d="M75.0868 236.607C73.9797 236.577 72.8976 236.273 71.9374 235.721C70.9772 235.169 70.1691 234.387 69.5857 233.446C69.2879 232.962 68.5797 233.487 68.8755 233.968C69.5249 235.005 70.4184 235.867 71.4779 236.479C72.5374 237.091 73.7306 237.434 74.9534 237.478C75.0683 237.492 75.1841 237.462 75.2774 237.393C75.3707 237.325 75.4344 237.223 75.4556 237.11C75.4727 236.994 75.4435 236.877 75.3744 236.783C75.3053 236.689 75.202 236.626 75.0868 236.607Z" fill="white"/>
<path d="M489.543 321.48H101.717C97.7229 321.475 93.8939 319.887 91.0697 317.063C88.2456 314.239 86.6569 310.41 86.6523 306.416V15.2692C86.6569 11.2753 88.2456 7.44627 91.0697 4.62218C93.8939 1.79809 97.7229 0.209562 101.717 0.205078H489.543C493.537 0.209633 497.366 1.7982 500.19 4.62228C503.014 7.44636 504.603 11.2753 504.608 15.2692V306.416C504.603 310.41 503.014 314.239 500.19 317.063C497.366 319.887 493.537 321.475 489.543 321.48Z" fill="#ABABFF"/>
<path d="M259.191 133.883H199.323C196.365 133.883 193.527 132.708 191.435 130.616C189.343 128.524 188.168 125.686 188.168 122.728C188.168 119.769 189.343 116.932 191.435 114.84C193.527 112.748 196.365 111.572 199.323 111.572H259.191C262.149 111.572 264.987 112.748 267.079 114.84C269.171 116.932 270.346 119.769 270.346 122.728C270.346 125.686 269.171 128.524 267.079 130.616C264.987 132.708 262.149 133.883 259.191 133.883Z" fill="white"/>
<path d="M265.885 164.374H251.754C250.67 164.374 249.629 163.943 248.862 163.176C248.095 162.409 247.664 161.368 247.664 160.284C247.664 159.199 248.095 158.158 248.862 157.391C249.629 156.624 250.67 156.193 251.754 156.193H265.885C266.969 156.193 268.01 156.624 268.777 157.391C269.544 158.158 269.975 159.199 269.975 160.284C269.975 161.368 269.544 162.409 268.777 163.176C268.01 163.943 266.969 164.374 265.885 164.374Z" fill="white"/>
<path d="M207.135 164.376H193.004C191.92 164.376 190.879 163.945 190.112 163.178C189.345 162.411 188.914 161.37 188.914 160.286C188.914 159.201 189.345 158.16 190.112 157.393C190.879 156.626 191.92 156.195 193.004 156.195H207.135C208.219 156.195 209.26 156.626 210.027 157.393C210.794 158.16 211.225 159.201 211.225 160.286C211.225 161.37 210.794 162.411 210.027 163.178C209.26 163.945 208.219 164.376 207.135 164.376Z" fill="white"/>
<path d="M236.881 164.374H222.75C221.666 164.374 220.625 163.943 219.858 163.176C219.091 162.409 218.66 161.368 218.66 160.284C218.66 159.199 219.091 158.158 219.858 157.391C220.625 156.624 221.666 156.193 222.75 156.193H236.881C237.965 156.193 239.006 156.624 239.773 157.391C240.54 158.158 240.971 159.199 240.971 160.284C240.971 161.368 240.54 162.409 239.773 163.176C239.006 163.943 237.965 164.374 236.881 164.374Z" fill="white"/>
<path d="M265.885 179.993H251.754C250.67 179.993 249.629 179.562 248.862 178.795C248.095 178.028 247.664 176.988 247.664 175.903C247.664 174.818 248.095 173.778 248.862 173.011C249.629 172.243 250.67 171.812 251.754 171.812H265.885C266.969 171.812 268.01 172.243 268.777 173.011C269.544 173.778 269.975 174.818 269.975 175.903C269.975 176.988 269.544 178.028 268.777 178.795C268.01 179.562 266.969 179.993 265.885 179.993Z" fill="white"/>
<path d="M207.135 179.993H193.004C191.92 179.993 190.879 179.562 190.112 178.795C189.345 178.028 188.914 176.988 188.914 175.903C188.914 174.818 189.345 173.778 190.112 173.011C190.879 172.243 191.92 171.812 193.004 171.812H207.135C208.219 171.812 209.26 172.243 210.027 173.011C210.794 173.778 211.225 174.818 211.225 175.903C211.225 176.988 210.794 178.028 210.027 178.795C209.26 179.562 208.219 179.993 207.135 179.993Z" fill="white"/>
<path d="M236.881 179.993H222.75C221.666 179.993 220.625 179.562 219.858 178.795C219.091 178.028 218.66 176.988 218.66 175.903C218.66 174.818 219.091 173.778 219.858 173.011C220.625 172.243 221.666 171.812 222.75 171.812H236.881C237.965 171.812 239.006 172.243 239.773 173.011C240.54 173.778 240.971 174.818 240.971 175.903C240.971 176.988 240.54 178.028 239.773 178.795C239.006 179.562 237.965 179.993 236.881 179.993Z" fill="white"/>
<path d="M265.885 195.61H251.754C250.67 195.61 249.629 195.179 248.862 194.412C248.095 193.645 247.664 192.605 247.664 191.52C247.664 190.435 248.095 189.395 248.862 188.628C249.629 187.861 250.67 187.43 251.754 187.43H265.885C266.969 187.43 268.01 187.861 268.777 188.628C269.544 189.395 269.975 190.435 269.975 191.52C269.975 192.605 269.544 193.645 268.777 194.412C268.01 195.179 266.969 195.61 265.885 195.61Z" fill="white"/>
<path d="M207.135 195.61H193.004C191.92 195.61 190.879 195.179 190.112 194.412C189.345 193.645 188.914 192.605 188.914 191.52C188.914 190.435 189.345 189.395 190.112 188.628C190.879 187.861 191.92 187.43 193.004 187.43H207.135C208.219 187.43 209.26 187.861 210.027 188.628C210.794 189.395 211.225 190.435 211.225 191.52C211.225 192.605 210.794 193.645 210.027 194.412C209.26 195.179 208.219 195.61 207.135 195.61Z" fill="white"/>
<path d="M236.881 195.61H222.75C221.666 195.61 220.625 195.179 219.858 194.412C219.091 193.645 218.66 192.605 218.66 191.52C218.66 190.435 219.091 189.395 219.858 188.628C220.625 187.861 221.666 187.43 222.75 187.43H236.881C237.965 187.43 239.006 187.861 239.773 188.628C240.54 189.395 240.971 190.435 240.971 191.52C240.971 192.605 240.54 193.645 239.773 194.412C239.006 195.179 237.965 195.61 236.881 195.61Z" fill="white"/>
<path d="M265.885 211.227H251.754C250.67 211.227 249.629 210.797 248.862 210.029C248.095 209.262 247.664 208.222 247.664 207.137C247.664 206.052 248.095 205.012 248.862 204.245C249.629 203.478 250.67 203.047 251.754 203.047H265.885C266.969 203.047 268.01 203.478 268.777 204.245C269.544 205.012 269.975 206.052 269.975 207.137C269.975 208.222 269.544 209.262 268.777 210.029C268.01 210.797 266.969 211.227 265.885 211.227Z" fill="white"/>
<path d="M207.135 211.227H193.004C191.92 211.227 190.879 210.797 190.112 210.029C189.345 209.262 188.914 208.222 188.914 207.137C188.914 206.052 189.345 205.012 190.112 204.245C190.879 203.478 191.92 203.047 193.004 203.047H207.135C208.219 203.047 209.26 203.478 210.027 204.245C210.794 205.012 211.225 206.052 211.225 207.137C211.225 208.222 210.794 209.262 210.027 210.029C209.26 210.797 208.219 211.227 207.135 211.227Z" fill="white"/>
<path d="M236.881 211.227H222.75C221.666 211.227 220.625 210.797 219.858 210.029C219.091 209.262 218.66 208.222 218.66 207.137C218.66 206.052 219.091 205.012 219.858 204.245C220.625 203.478 221.666 203.047 222.75 203.047H236.881C237.965 203.047 239.006 203.478 239.773 204.245C240.54 205.012 240.971 206.052 240.971 207.137C240.971 208.222 240.54 209.262 239.773 210.029C239.006 210.797 237.965 211.227 236.881 211.227Z" fill="white"/>
<path d="M347.319 194.866C368.266 194.866 385.247 177.885 385.247 156.938C385.247 135.991 368.266 119.01 347.319 119.01C326.372 119.01 309.391 135.991 309.391 156.938C309.391 177.885 326.372 194.866 347.319 194.866Z" fill="#12141D"/>
<path d="M347.319 203.42C344.362 203.416 341.526 202.24 339.435 200.149C337.344 198.057 336.167 195.222 336.164 192.264V121.614C336.163 120.148 336.451 118.696 337.011 117.342C337.571 115.987 338.392 114.757 339.428 113.72C340.464 112.683 341.694 111.86 343.048 111.299C344.402 110.738 345.854 110.449 347.319 110.449C348.785 110.449 350.236 110.738 351.59 111.299C352.944 111.86 354.175 112.683 355.211 113.72C356.247 114.757 357.068 115.987 357.628 117.342C358.188 118.696 358.476 120.148 358.475 121.614V192.264C358.471 195.222 357.295 198.057 355.204 200.149C353.112 202.24 350.277 203.416 347.319 203.42Z" fill="white"/>
<path d="M258.645 129.092H248.233C247.839 129.092 247.461 128.935 247.182 128.656C246.903 128.377 246.746 127.999 246.746 127.605C246.746 127.21 246.903 126.832 247.182 126.553C247.461 126.274 247.839 126.117 248.233 126.117H258.645C259.04 126.117 259.418 126.274 259.697 126.553C259.976 126.832 260.133 127.21 260.133 127.605C260.133 127.999 259.976 128.377 259.697 128.656C259.418 128.935 259.04 129.092 258.645 129.092Z" fill="#ABABFF"/>
<path d="M242.286 129.465H231.874C231.48 129.465 231.101 129.308 230.822 129.029C230.543 128.75 230.387 128.372 230.387 127.978C230.387 127.583 230.543 127.205 230.822 126.926C231.101 126.647 231.48 126.49 231.874 126.49H242.286C242.68 126.49 243.059 126.647 243.338 126.926C243.616 127.205 243.773 127.583 243.773 127.978C243.773 128.372 243.616 128.75 243.338 129.029C243.059 129.308 242.68 129.465 242.286 129.465Z" fill="#ABABFF"/>
<path d="M225.923 129.838H215.511C215.116 129.838 214.738 129.681 214.459 129.402C214.18 129.123 214.023 128.745 214.023 128.351C214.023 127.956 214.18 127.578 214.459 127.299C214.738 127.02 215.116 126.863 215.511 126.863H225.923C226.317 126.863 226.695 127.02 226.974 127.299C227.253 127.578 227.41 127.956 227.41 128.351C227.41 128.745 227.253 129.123 226.974 129.402C226.695 129.681 226.317 129.838 225.923 129.838Z" fill="#ABABFF"/>
<path d="M209.559 130.209H199.148C198.753 130.209 198.375 130.052 198.096 129.773C197.817 129.495 197.66 129.116 197.66 128.722C197.66 128.327 197.817 127.949 198.096 127.67C198.375 127.391 198.753 127.234 199.148 127.234H209.559C209.954 127.234 210.332 127.391 210.611 127.67C210.89 127.949 211.047 128.327 211.047 128.722C211.047 129.116 210.89 129.495 210.611 129.773C210.332 130.052 209.954 130.209 209.559 130.209Z" fill="#ABABFF"/>
<path d="M464.033 275.555C464.033 277.397 464.398 279.22 465.108 280.919C465.817 282.619 466.858 284.16 468.168 285.454H462.025C460.212 285.454 458.418 285.097 456.743 284.403C455.068 283.71 453.547 282.693 452.265 281.411C450.984 280.13 449.967 278.608 449.273 276.933C448.58 275.259 448.223 273.464 448.223 271.652V47.8882C448.223 46.0756 448.58 44.2808 449.273 42.6063C449.967 40.9317 450.984 39.4102 452.265 38.1285C453.547 36.8469 455.068 35.8302 456.743 35.1366C458.418 34.4429 460.212 34.0859 462.025 34.0859H470.965C468.856 35.3122 467.107 37.0702 465.89 39.1843C464.674 41.2984 464.034 43.6947 464.033 46.1338L464.033 275.555Z" fill="#12141D"/>
<path d="M540.51 99.4717C535.81 98.1554 531.093 96.9357 526.358 95.8127C510.166 91.9476 493.751 89.0864 477.207 87.2454C474.403 86.5069 471.42 86.9061 468.909 88.356C466.398 89.806 464.561 92.1894 463.798 94.9872L455.536 125.479C454.777 128.289 455.165 131.286 456.614 133.811C458.062 136.336 460.454 138.183 463.263 138.947L463.374 138.969C474.307 140.211 485.343 141.936 496.32 144.138C497.302 144.331 498.276 144.532 499.258 144.74C502.775 145.469 506.283 146.247 509.781 147.075C511.313 147.432 512.837 147.804 514.369 148.183C518.489 149.21 522.612 150.303 526.737 151.463C531.326 152.757 535.917 154.138 540.51 155.606C541.009 155.754 541.507 155.91 541.997 156.074V99.8956C541.507 99.7468 541.009 99.6055 540.51 99.4717Z" fill="white"/>
<path d="M540.51 99.4717C535.81 98.1554 531.093 96.9357 526.358 95.8127C510.166 91.9476 493.751 89.0864 477.207 87.2454C474.403 86.5069 471.42 86.9061 468.909 88.356C466.398 89.806 464.561 92.1894 463.798 94.9872L455.536 125.479C454.777 128.289 455.165 131.286 456.614 133.811C458.062 136.336 460.454 138.183 463.263 138.947L463.374 138.969C474.307 140.211 485.343 141.936 496.32 144.138C497.302 144.331 498.276 144.532 499.258 144.74C502.775 145.469 506.283 146.247 509.781 147.075C511.313 147.432 512.837 147.804 514.369 148.183C518.489 149.21 522.612 150.303 526.737 151.463C531.326 152.757 535.917 154.138 540.51 155.606C541.009 155.754 541.507 155.91 541.997 156.074V154.505C541.499 154.349 541.001 154.192 540.51 154.036C536.286 152.69 532.067 151.423 527.853 150.236C526.276 149.782 524.699 149.344 523.123 148.92C520.282 148.154 517.448 147.42 514.622 146.718C513.12 146.339 511.62 145.975 510.123 145.625C510.011 145.595 509.892 145.573 509.781 145.543C507.23 144.941 504.674 144.366 502.113 143.818C501.132 143.61 500.15 143.402 499.168 143.201C487.329 140.747 475.4 138.835 463.597 137.497C461.183 136.824 459.133 135.226 457.892 133.049C456.651 130.872 456.32 128.292 456.971 125.873L465.234 95.3739C465.895 92.9472 467.491 90.8819 469.673 89.6312C471.855 88.3805 474.444 88.0467 476.872 88.703L476.984 88.7178C493.318 90.5316 509.526 93.343 525.517 97.1364C525.681 97.1811 525.845 97.2182 526.008 97.2554C530.857 98.4156 535.691 99.6699 540.51 101.019C541.001 101.152 541.499 101.294 541.997 101.442V99.8955C541.507 99.7468 541.009 99.6055 540.51 99.4717Z" fill="#343DE6"/>
<path d="M488.448 100.67V155.287C487.95 155.123 487.459 154.967 486.961 154.811C482.566 153.405 478.156 152.082 473.731 150.84C469.484 149.635 465.222 148.502 460.947 147.441C459.429 147.069 457.92 146.705 456.402 146.348C456.343 146.08 456.283 145.812 456.231 145.544C455.956 144.265 455.741 142.971 455.577 141.67C455.503 141.172 455.451 140.673 455.398 140.168C454.616 132.2 455.706 124.16 458.583 116.689C461.46 109.218 466.044 102.523 471.968 97.1376C472.184 96.9294 472.407 96.7286 472.63 96.5352C477.434 97.6805 482.211 98.92 486.961 100.254C487.459 100.38 487.957 100.521 488.448 100.67Z" fill="#343DE6"/>
<path d="M526.548 123.033L505.866 120.593C505.139 120.507 504.401 120.565 503.696 120.765C502.991 120.964 502.332 121.3 501.757 121.753C501.182 122.207 500.701 122.77 500.343 123.409C499.986 124.048 499.757 124.752 499.671 125.479C499.585 126.207 499.644 126.944 499.843 127.649C500.042 128.354 500.378 129.013 500.831 129.589C501.285 130.164 501.848 130.644 502.487 131.002C503.126 131.36 503.83 131.588 504.557 131.674L525.239 134.114C526.707 134.283 528.182 133.864 529.341 132.948C530.499 132.032 531.247 130.693 531.421 129.226C531.594 127.759 531.178 126.283 530.265 125.122C529.352 123.961 528.015 123.209 526.548 123.033ZM529.954 129.056C529.825 130.133 529.274 131.114 528.422 131.784C527.57 132.455 526.487 132.76 525.41 132.634L504.728 130.194C503.654 130.064 502.676 129.512 502.007 128.662C501.339 127.811 501.035 126.73 501.162 125.656C501.289 124.581 501.836 123.601 502.684 122.929C503.533 122.258 504.613 121.95 505.687 122.073L526.37 124.512C527.446 124.643 528.427 125.194 529.099 126.045C529.771 126.897 530.078 127.979 529.954 129.056Z" fill="#343DE6"/>
<path d="M477.773 113.461V139.364C477.295 139.651 476.798 139.904 476.286 140.123C473.616 141.314 470.657 141.7 467.771 141.232C464.886 140.765 462.2 139.464 460.043 137.49C459.835 137.304 459.627 137.103 459.426 136.895C459.225 136.694 459.032 136.479 458.846 136.263C456.601 133.684 455.304 130.416 455.168 127C455.033 123.584 456.067 120.224 458.101 117.475C460.135 114.727 463.046 112.755 466.352 111.886C469.659 111.017 473.163 111.302 476.286 112.695C476.795 112.924 477.291 113.179 477.773 113.461Z" fill="white"/>
<path d="M534.561 132.209C528.709 133.429 522.896 134.78 517.122 136.262C514.965 136.813 512.816 137.383 510.674 137.973C508.116 138.679 505.558 139.411 502.999 140.167C499.734 141.133 496.475 142.145 493.22 143.201C492.275 143.513 491.323 143.826 490.371 144.138C481.32 147.157 472.329 150.504 463.487 154.156C460.673 154.859 458.251 156.645 456.748 159.126C455.245 161.607 454.783 164.581 455.462 167.401L462.922 198.1C463.612 200.928 465.396 203.366 467.882 204.88C470.367 206.394 473.352 206.861 476.181 206.177L476.286 206.14C490.827 200.175 505.71 195.079 520.855 190.879C525.377 189.622 529.946 188.437 534.561 187.324C535.06 187.205 535.55 187.086 536.049 186.975V131.904C535.55 131.994 535.06 132.098 534.561 132.209Z" fill="white"/>
<path d="M534.561 132.209C528.709 133.429 522.896 134.78 517.122 136.262C514.965 136.813 512.816 137.383 510.674 137.973C508.116 138.679 505.558 139.411 502.999 140.167C499.734 141.133 496.475 142.145 493.22 143.201C492.275 143.513 491.323 143.826 490.371 144.138C481.32 147.157 472.329 150.504 463.487 154.156C460.673 154.859 458.251 156.645 456.748 159.126C455.245 161.607 454.783 164.581 455.462 167.401L462.922 198.1C463.612 200.928 465.396 203.366 467.882 204.88C470.367 206.394 473.352 206.861 476.181 206.177L476.286 206.14C490.827 200.175 505.71 195.079 520.855 190.879C525.377 189.622 529.946 188.437 534.561 187.324C535.06 187.205 535.55 187.086 536.049 186.975V185.443C535.55 185.562 535.06 185.681 534.561 185.8C534.189 185.889 533.81 185.978 533.439 186.067C529.066 187.131 524.74 188.256 520.461 189.444C520.349 189.473 520.231 189.511 520.119 189.54C505.05 193.731 490.242 198.81 475.773 204.749C473.333 205.321 470.765 204.907 468.629 203.596C466.493 202.286 464.96 200.185 464.364 197.751L456.913 167.051C456.321 164.607 456.724 162.027 458.031 159.879C459.339 157.73 461.445 156.188 463.888 155.591L464 155.554C473.631 151.567 483.432 147.953 493.309 144.74C494.261 144.428 495.213 144.123 496.165 143.818C498.5 143.082 500.838 142.366 503.178 141.669C505.647 140.933 508.113 140.224 510.577 139.542C510.741 139.497 510.905 139.453 511.068 139.408C513.478 138.746 515.895 138.107 518.319 137.489C523.696 136.121 529.11 134.864 534.561 133.719C535.052 133.615 535.55 133.511 536.049 133.414V131.904C535.55 131.994 535.06 132.098 534.561 132.209Z" fill="#343DE6"/>
<path d="M483.406 132.656V186.21C482.915 186.321 482.417 186.433 481.918 186.552C477.263 187.682 472.627 188.887 468.012 190.166C467.826 189.958 467.647 189.75 467.476 189.541C462.657 183.9 459.116 177.283 457.097 170.144C455.078 163.005 454.628 155.514 455.778 148.185C455.815 147.939 455.86 147.686 455.904 147.441C455.941 147.203 455.986 146.957 456.031 146.719C456.49 144.284 457.126 141.886 457.934 139.543C458.031 139.26 458.128 138.978 458.232 138.695C460.5 138.07 462.776 137.47 465.059 136.895C470.644 135.453 476.264 134.141 481.918 132.961C482.409 132.85 482.907 132.753 483.406 132.656Z" fill="#343DE6"/>
<path d="M519.346 181.166C518.789 179.797 517.71 178.704 516.348 178.128C514.986 177.552 513.451 177.54 512.08 178.095L492.781 185.918C491.413 186.476 490.321 187.554 489.747 188.916C489.173 190.278 489.162 191.812 489.718 193.181C490.274 194.551 491.35 195.644 492.711 196.22C494.072 196.796 495.606 196.809 496.976 196.256L516.275 188.432C517.643 187.873 518.735 186.795 519.31 185.433C519.886 184.072 519.899 182.537 519.346 181.166ZM515.717 187.049L496.418 194.88C495.413 195.286 494.287 195.277 493.288 194.854C492.289 194.432 491.499 193.629 491.091 192.624C490.683 191.619 490.691 190.494 491.112 189.494C491.534 188.495 492.335 187.704 493.339 187.294L512.638 179.471C513.643 179.062 514.769 179.07 515.768 179.492C516.768 179.914 517.558 180.715 517.967 181.72C518.375 182.725 518.367 183.851 517.945 184.85C517.524 185.85 516.722 186.641 515.717 187.049Z" fill="#343DE6"/>
<path d="M473.752 146.331V175.492C473.262 175.616 472.765 175.716 472.265 175.789C469.279 176.207 466.236 175.718 463.532 174.385C460.828 173.051 458.588 170.935 457.103 168.311C455.617 165.688 454.955 162.678 455.203 159.673C455.451 156.668 456.597 153.808 458.492 151.463C458.663 151.247 458.841 151.039 459.035 150.838C459.213 150.63 459.407 150.429 459.607 150.236C461.252 148.609 463.25 147.385 465.445 146.657C467.64 145.929 469.974 145.719 472.265 146.041C472.766 146.109 473.262 146.205 473.752 146.331Z" fill="white"/>
<path d="M116.773 95.5973V169.825C117.272 169.662 117.77 169.505 118.261 169.357V96.2741C117.763 96.0435 117.272 95.8204 116.773 95.5973ZM116.773 95.5973V169.825C117.272 169.662 117.77 169.505 118.261 169.357V96.2741C117.763 96.0435 117.272 95.8204 116.773 95.5973ZM116.773 95.5973V169.825C117.272 169.662 117.77 169.505 118.261 169.357V96.2741C117.763 96.0435 117.272 95.8204 116.773 95.5973ZM116.773 101.019V186.551C117.272 186.432 117.77 186.32 118.261 186.209V101.443C117.763 101.294 117.264 101.153 116.773 101.019ZM116.773 101.019V186.551C117.272 186.432 117.77 186.32 118.261 186.209V101.443C117.763 101.294 117.264 101.153 116.773 101.019ZM116.773 101.019V186.551C117.272 186.432 117.77 186.32 118.261 186.209V101.443C117.763 101.294 117.264 101.153 116.773 101.019ZM116.773 101.019V186.551C117.272 186.432 117.77 186.32 118.261 186.209V101.443C117.763 101.294 117.264 101.153 116.773 101.019ZM116.773 101.019V187.324C117.272 187.205 117.763 187.086 118.261 186.975V101.443C117.763 101.294 117.264 101.153 116.773 101.019ZM441.209 30.6953H132.213C128.12 30.7021 124.197 32.3309 121.303 35.2248C118.409 38.1187 116.78 42.0417 116.773 46.1344V275.556C116.78 279.648 118.41 283.57 121.304 286.463C124.198 289.355 128.121 290.983 132.213 290.987H441.209C445.3 290.983 449.222 289.355 452.115 286.462C455.008 283.569 456.636 279.647 456.641 275.556V46.1344C456.637 42.042 455.01 38.1181 452.117 35.2237C449.224 32.3293 445.301 30.7007 441.209 30.6953ZM455.153 275.556C455.149 279.253 453.679 282.797 451.065 285.412C448.451 288.026 444.906 289.496 441.209 289.5H132.213C128.515 289.497 124.969 288.027 122.354 285.413C119.738 282.798 118.266 279.254 118.261 275.556V46.1344C118.266 42.4358 119.738 38.8904 122.353 36.2752C124.969 33.6599 128.514 32.1882 132.213 32.1827H441.209C444.907 32.187 448.453 33.6585 451.067 36.2742C453.681 38.8899 455.151 42.4361 455.153 46.1344V275.556ZM116.773 101.019V185.8C117.272 185.681 117.763 185.562 118.261 185.443V101.443C117.763 101.294 117.264 101.153 116.773 101.019ZM116.773 101.019V186.551C117.272 186.432 117.77 186.32 118.261 186.209V101.443C117.763 101.294 117.264 101.153 116.773 101.019ZM116.773 101.019V186.551C117.272 186.432 117.77 186.32 118.261 186.209V101.443C117.763 101.294 117.264 101.153 116.773 101.019ZM116.773 101.019V186.551C117.272 186.432 117.77 186.32 118.261 186.209V101.443C117.763 101.294 117.264 101.153 116.773 101.019ZM116.773 95.5973V169.825C117.272 169.662 117.77 169.505 118.261 169.357V96.2741C117.763 96.0435 117.272 95.8204 116.773 95.5973ZM116.773 95.5973V169.825C117.272 169.662 117.77 169.505 118.261 169.357V96.2741C117.763 96.0435 117.272 95.8204 116.773 95.5973Z" fill="#12141D"/>
</g>
<defs>
<clipPath id="clip0_2963_13568">
<rect width="560" height="322.762" fill="white" transform="translate(0.703125 0.205078)"/>
</clipPath>
</defs>
</svg>
