<svg width="431" height="328" viewBox="0 0 431 328" fill="none" xmlns="http://www.w3.org/2000/svg">
<g clip-path="url(#clip0_2963_13621)">
<path d="M406.865 116.293H229.91C229.041 116.292 228.208 115.946 227.594 115.332C226.979 114.717 226.634 113.884 226.633 113.016V69.1207C226.634 68.2519 226.979 67.419 227.594 66.8047C228.208 66.1903 229.041 65.8448 229.91 65.8438H406.865C407.733 65.8448 408.566 66.1903 409.181 66.8047C409.795 67.419 410.141 68.2519 410.142 69.1207V113.016C410.141 113.884 409.795 114.717 409.181 115.332C408.566 115.946 407.733 116.292 406.865 116.293ZM229.91 67.1545C229.388 67.1551 228.889 67.3624 228.52 67.731C228.152 68.0996 227.944 68.5994 227.944 69.1207V113.016C227.944 113.537 228.152 114.037 228.52 114.405C228.889 114.774 229.388 114.981 229.91 114.982H406.865C407.386 114.981 407.886 114.774 408.254 114.405C408.623 114.037 408.83 113.537 408.831 113.016V69.1207C408.83 68.5994 408.623 68.0996 408.254 67.731C407.886 67.3624 407.386 67.1551 406.865 67.1545L229.91 67.1545Z" fill="#12141D"/>
<path d="M379.368 102.732C386.74 102.732 392.717 96.7558 392.717 89.3837C392.717 82.0115 386.74 76.0352 379.368 76.0352C371.996 76.0352 366.02 82.0115 366.02 89.3837C366.02 96.7558 371.996 102.732 379.368 102.732Z" fill="#343DE6"/>
<path d="M243.654 80.4844C243.064 80.4844 242.499 80.7188 242.081 81.136C241.664 81.5532 241.43 82.1191 241.43 82.7091C241.43 83.2992 241.664 83.865 242.081 84.2823C242.499 84.6995 243.064 84.9339 243.654 84.9339H348.536C349.126 84.9339 349.691 84.6995 350.109 84.2823C350.526 83.865 350.76 83.2992 350.76 82.7091C350.76 82.1191 350.526 81.5532 350.109 81.136C349.691 80.7188 349.126 80.4844 348.536 80.4844H243.654Z" fill="#E6E6E6"/>
<path d="M303.401 93.834C302.81 93.834 302.245 94.0684 301.827 94.4856C301.41 94.9028 301.176 95.4687 301.176 96.0587C301.176 96.6488 301.41 97.2146 301.827 97.6319C302.245 98.0491 302.81 98.2835 303.401 98.2835H348.531C348.824 98.284 349.113 98.2269 349.384 98.1153C349.654 98.0037 349.9 97.8399 350.107 97.6333C350.314 97.4267 350.478 97.1812 350.59 96.9111C350.702 96.6409 350.76 96.3512 350.76 96.0587C350.76 95.7662 350.702 95.4766 350.59 95.2064C350.478 94.9362 350.314 94.6908 350.107 94.4842C349.9 94.2775 349.654 94.1137 349.384 94.0022C349.113 93.8906 348.824 93.8335 348.531 93.834H303.401Z" fill="#E6E6E6"/>
<path d="M385.381 272.758H306.734C305.865 272.757 305.032 272.412 304.418 271.797C303.804 271.183 303.458 270.35 303.457 269.481V187.574C303.458 186.705 303.804 185.872 304.418 185.258C305.032 184.643 305.865 184.298 306.734 184.297H385.381C386.25 184.298 387.082 184.643 387.697 185.258C388.311 185.872 388.657 186.705 388.658 187.574V269.481C388.657 270.35 388.311 271.183 387.697 271.797C387.082 272.412 386.25 272.757 385.381 272.758ZM306.734 185.608C306.213 185.608 305.713 185.816 305.344 186.184C304.976 186.553 304.768 187.053 304.768 187.574V269.481C304.768 270.003 304.976 270.502 305.344 270.871C305.713 271.239 306.213 271.447 306.734 271.447H385.381C385.902 271.447 386.402 271.239 386.77 270.871C387.139 270.502 387.346 270.003 387.347 269.481V187.574C387.346 187.053 387.139 186.553 386.77 186.184C386.402 185.816 385.902 185.608 385.381 185.608H306.734Z" fill="#12141D"/>
<path d="M323.486 201.188C322.896 201.188 322.331 201.422 321.913 201.839C321.496 202.256 321.262 202.822 321.262 203.412C321.262 204.002 321.496 204.568 321.913 204.985C322.331 205.403 322.896 205.637 323.486 205.637H368.617C369.207 205.637 369.773 205.403 370.19 204.985C370.608 204.568 370.842 204.002 370.842 203.412C370.842 202.822 370.608 202.256 370.19 201.839C369.773 201.422 369.207 201.188 368.617 201.188H323.486Z" fill="#E6E6E6"/>
<path d="M323.491 214.295C323.198 214.294 322.908 214.352 322.638 214.463C322.368 214.575 322.122 214.738 321.915 214.945C321.708 215.152 321.544 215.397 321.431 215.667C321.319 215.938 321.262 216.227 321.262 216.52C321.262 216.812 321.319 217.102 321.431 217.372C321.544 217.642 321.708 217.888 321.915 218.094C322.122 218.301 322.368 218.465 322.638 218.576C322.908 218.688 323.198 218.745 323.491 218.744H368.621C369.211 218.744 369.777 218.51 370.194 218.093C370.612 217.676 370.846 217.11 370.846 216.52C370.846 215.93 370.612 215.364 370.194 214.947C369.777 214.529 369.211 214.295 368.621 214.295H323.491Z" fill="#E6E6E6"/>
<path d="M346.051 255.867C343.281 255.867 340.573 255.046 338.271 253.507C335.968 251.968 334.173 249.781 333.113 247.222C332.053 244.663 331.776 241.848 332.316 239.131C332.856 236.415 334.19 233.919 336.149 231.961C338.107 230.003 340.602 228.669 343.319 228.128C346.035 227.588 348.851 227.865 351.41 228.925C353.969 229.985 356.156 231.78 357.694 234.083C359.233 236.386 360.054 239.093 360.054 241.863C360.05 245.576 358.573 249.135 355.948 251.761C353.323 254.386 349.763 255.863 346.051 255.867Z" fill="#343DE6"/>
<path d="M99.2496 0.753906H177.896C178.765 0.754926 179.598 1.1005 180.212 1.71482C180.827 2.32915 181.172 3.16206 181.173 4.03084V85.9382C181.172 86.807 180.827 87.6399 180.212 88.2543C179.598 88.8686 178.765 89.2142 177.896 89.2152H99.2496C98.3808 89.2142 97.5479 88.8686 96.9336 88.2543C96.3193 87.6399 95.9737 86.807 95.9727 85.9382V4.03084C95.9737 3.16206 96.3193 2.32915 96.9336 1.71482C97.5479 1.1005 98.3808 0.754926 99.2496 0.753906ZM177.896 87.9044C178.418 87.9038 178.917 87.6965 179.286 87.3279C179.655 86.9593 179.862 86.4595 179.863 85.9382V4.03084C179.862 3.50956 179.655 3.00979 179.286 2.64118C178.917 2.27258 178.418 2.06525 177.896 2.06468H99.2496C98.7283 2.06525 98.2285 2.27258 97.8599 2.64118C97.4913 3.00979 97.284 3.50956 97.2835 4.03084V85.9382C97.284 86.4595 97.4913 86.9593 97.8599 87.3279C98.2285 87.6965 98.7283 87.9038 99.2496 87.9044H177.896Z" fill="#12141D"/>
<path d="M161.133 72.3245C161.723 72.3245 162.289 72.0901 162.706 71.6729C163.123 71.2557 163.358 70.6898 163.358 70.0998C163.358 69.5097 163.123 68.9438 162.706 68.5266C162.289 68.1094 161.723 67.875 161.133 67.875H116.002C115.412 67.875 114.846 68.1094 114.429 68.5266C114.012 68.9438 113.777 69.5097 113.777 70.0998C113.777 70.6898 114.012 71.2557 114.429 71.6729C114.846 72.0901 115.412 72.3245 116.002 72.3245H161.133Z" fill="#E6E6E6"/>
<path d="M161.133 59.2171C161.723 59.2171 162.289 58.9827 162.706 58.5655C163.123 58.1483 163.358 57.5824 163.358 56.9923C163.358 56.4023 163.123 55.8364 162.706 55.4192C162.289 55.002 161.723 54.7676 161.133 54.7676H116.002C115.412 54.7676 114.846 55.002 114.429 55.4192C114.012 55.8364 113.777 56.4023 113.777 56.9923C113.777 57.5824 114.012 58.1483 114.429 58.5655C114.846 58.9827 115.412 59.2171 116.002 59.2171H161.133Z" fill="#E6E6E6"/>
<path d="M138.57 17.6445C141.34 17.6445 144.047 18.4658 146.35 20.0046C148.653 21.5434 150.448 23.7304 151.508 26.2893C152.568 28.8482 152.845 31.6639 152.305 34.3803C151.765 37.0968 150.431 39.592 148.472 41.5505C146.514 43.509 144.019 44.8427 141.302 45.383C138.586 45.9234 135.77 45.646 133.211 44.5861C130.652 43.5262 128.465 41.7313 126.926 39.4284C125.388 37.1255 124.566 34.418 124.566 31.6483C124.571 27.9356 126.047 24.3761 128.673 21.7508C131.298 19.1255 134.857 17.6487 138.57 17.6445Z" fill="#343DE6"/>
<path d="M164.014 170.208C177.931 159.429 194.19 152.079 211.476 148.752C228.9 145.432 246.866 146.355 263.858 151.444C272.399 153.987 280.605 157.543 288.302 162.035C296.144 166.62 303.23 172.263 310.048 178.239C316.955 184.292 323.634 190.614 330.845 196.313C351.429 212.767 376.983 221.756 403.336 221.814C405.513 221.817 407.688 221.757 409.862 221.634C411.041 221.569 411.048 219.727 409.862 219.792C383 221.271 356.474 213.256 334.926 197.148C327.453 191.56 320.63 185.171 313.664 178.98C306.911 172.977 299.976 167.138 292.314 162.316C273.573 150.509 251.77 144.482 229.625 144.986C207.481 145.491 185.975 152.505 167.791 165.154C166.062 166.356 164.373 167.612 162.712 168.906C161.777 169.633 163.089 170.928 164.014 170.208Z" fill="#12141D"/>
<path d="M410.106 179.109C415.391 179.109 419.676 174.825 419.676 169.539C419.676 164.254 415.391 159.969 410.106 159.969C404.82 159.969 400.535 164.254 400.535 169.539C400.535 174.825 404.82 179.109 410.106 179.109Z" fill="#12141D"/>
<path d="M54.0704 306.176C59.3559 306.176 63.6407 301.891 63.6407 296.605C63.6407 291.32 59.3559 287.035 54.0704 287.035C48.7848 287.035 44.5 291.32 44.5 296.605C44.5 301.891 48.7848 306.176 54.0704 306.176Z" fill="#12141D"/>
<path d="M160.088 242.089H3.92929C3.0605 242.088 2.2276 241.743 1.61327 241.128C0.99895 240.514 0.653364 239.681 0.652344 238.812V157.56C0.65335 156.691 0.998948 155.858 1.61327 155.244C2.2276 154.63 3.06049 154.284 3.92929 154.283H160.088C160.957 154.284 161.79 154.63 162.404 155.244C163.019 155.858 163.364 156.691 163.365 157.56V238.812C163.364 239.681 163.019 240.514 162.404 241.128C161.79 241.743 160.957 242.088 160.088 242.089ZM3.92929 155.594C3.408 155.595 2.90822 155.802 2.53962 156.171C2.17101 156.539 1.96371 157.039 1.96314 157.56V238.812C1.96371 239.333 2.17101 239.833 2.53962 240.202C2.90822 240.57 3.408 240.778 3.92929 240.778H160.088C160.61 240.778 161.109 240.57 161.478 240.202C161.847 239.833 162.054 239.333 162.055 238.812V157.56C162.054 157.039 161.847 156.539 161.478 156.171C161.109 155.802 160.61 155.595 160.088 155.594H3.92929Z" fill="#12141D"/>
<path d="M133.911 196.416C141.283 196.416 147.26 190.439 147.26 183.067C147.26 175.695 141.283 169.719 133.911 169.719C126.539 169.719 120.562 175.695 120.562 183.067C120.562 190.439 126.539 196.416 133.911 196.416Z" fill="#343DE6"/>
<path d="M18.9944 174.168C18.7019 174.167 18.4122 174.225 18.1418 174.336C17.8714 174.448 17.6257 174.612 17.4187 174.818C17.2116 175.025 17.0474 175.27 16.9353 175.54C16.8233 175.811 16.7656 176.1 16.7656 176.393C16.7656 176.685 16.8233 176.975 16.9353 177.245C17.0474 177.515 17.2116 177.761 17.4187 177.967C17.6257 178.174 17.8714 178.338 18.1418 178.449C18.4122 178.561 18.7019 178.618 18.9944 178.617H103.08C103.67 178.617 104.236 178.383 104.653 177.966C105.07 177.549 105.305 176.983 105.305 176.393C105.305 175.803 105.07 175.237 104.653 174.82C104.236 174.402 103.67 174.168 103.08 174.168H18.9944Z" fill="#E6E6E6"/>
<path d="M57.9475 187.516C57.655 187.515 57.3653 187.572 57.095 187.684C56.8246 187.795 56.5788 187.959 56.3718 188.166C56.1648 188.372 56.0005 188.618 55.8885 188.888C55.7764 189.158 55.7188 189.448 55.7188 189.74C55.7188 190.033 55.7764 190.323 55.8885 190.593C56.0005 190.863 56.1648 191.108 56.3718 191.315C56.5788 191.522 56.8246 191.685 57.095 191.797C57.3653 191.909 57.655 191.966 57.9475 191.965H103.078C103.668 191.965 104.234 191.731 104.651 191.314C105.069 190.896 105.303 190.33 105.303 189.74C105.303 189.15 105.069 188.584 104.651 188.167C104.234 187.75 103.668 187.516 103.078 187.516H57.9475Z" fill="#E6E6E6"/>
<path d="M20.2374 208.857C18.5451 208.857 17.168 209.856 17.168 211.082C17.168 212.309 18.5451 213.307 20.2374 213.307H144.145C145.838 213.307 147.215 212.309 147.215 211.082C147.215 209.856 145.838 208.857 144.145 208.857H20.2374Z" fill="#E6E6E6"/>
<path d="M20.2374 222.205C18.5451 222.205 17.168 223.203 17.168 224.43C17.168 225.656 18.5451 226.655 20.2374 226.655H144.145C145.838 226.655 147.215 225.656 147.215 224.43C147.215 223.203 145.838 222.205 144.145 222.205H20.2374Z" fill="#E6E6E6"/>
<path d="M54.7161 305.517C63.5259 301.695 73.362 305.027 81.6658 308.549C85.9424 310.363 90.1732 312.3 94.599 313.732C98.3223 314.934 102.135 315.838 106.002 316.435C113.762 317.623 121.653 317.671 129.427 316.578C137.239 315.488 144.854 313.274 152.033 310.005C159.171 306.769 165.77 302.455 171.597 297.213C172.339 296.544 173.066 295.859 173.778 295.158C174.626 294.328 173.323 293.026 172.476 293.856C166.865 299.326 160.423 303.873 153.39 307.329C146.386 310.774 138.915 313.174 131.215 314.453C123.49 315.756 115.614 315.892 107.848 314.857C103.975 314.333 100.149 313.501 96.4072 312.369C92.1097 310.972 87.8938 309.334 83.7794 307.465C75.3981 303.866 66.086 300.341 56.8765 302.823C55.821 303.115 54.7883 303.484 53.7866 303.927C52.7022 304.397 53.6388 305.984 54.7161 305.517Z" fill="#12141D"/>
<path d="M249.828 328.102H176.051L193.413 298.029C193.724 297.49 194.172 297.042 194.711 296.731C195.25 296.42 195.861 296.256 196.484 296.256C197.106 296.256 197.717 296.42 198.256 296.731C198.795 297.042 199.243 297.49 199.554 298.029L206.971 310.876L219.583 289.032C219.972 288.357 220.532 287.797 221.207 287.407C221.882 287.018 222.648 286.812 223.427 286.812C224.206 286.812 224.972 287.018 225.646 287.407C226.321 287.797 226.882 288.357 227.271 289.032L249.828 328.102Z" fill="#343DE6"/>
<path d="M254.627 328.095H175.98C175.111 328.094 174.278 327.749 173.664 327.134C173.05 326.52 172.704 325.687 172.703 324.818V280.923C172.704 280.055 173.05 279.222 173.664 278.607C174.278 277.993 175.111 277.648 175.98 277.646H254.627C255.496 277.648 256.328 277.993 256.943 278.607C257.557 279.222 257.903 280.055 257.904 280.923V324.818C257.903 325.687 257.557 326.52 256.943 327.134C256.328 327.749 255.496 328.094 254.627 328.095ZM175.98 278.957C175.459 278.958 174.959 279.165 174.59 279.534C174.222 279.902 174.014 280.402 174.014 280.923V324.818C174.014 325.34 174.222 325.839 174.59 326.208C174.959 326.577 175.459 326.784 175.98 326.785H254.627C255.148 326.784 255.648 326.577 256.016 326.208C256.385 325.839 256.592 325.34 256.593 324.818V280.923C256.592 280.402 256.385 279.902 256.016 279.534C255.648 279.165 255.148 278.958 254.627 278.957H175.98Z" fill="#12141D"/>
</g>
<defs>
<clipPath id="clip0_2963_13621">
<rect width="430" height="327" fill="white" transform="translate(0.703125 0.753906)"/>
</clipPath>
</defs>
</svg>
