<svg width="561" height="446" viewBox="0 0 561 446" fill="none" xmlns="http://www.w3.org/2000/svg">
<g clip-path="url(#clip0_2963_13651)">
<path d="M11.9949 440.424C4.24355 433.875 -0.464744 423.528 0.770001 413.455C2.00475 403.383 9.65233 394.123 19.5724 391.984C29.4924 389.845 40.8006 395.766 43.8137 405.456C45.4719 386.773 47.3827 367.308 57.3157 351.398C66.3097 336.992 81.8875 326.683 98.7704 324.839C115.653 322.995 133.429 329.96 143.958 343.286C154.487 356.611 157.065 375.984 149.691 391.282C144.258 402.552 134.25 410.939 123.763 417.763C89.878 439.626 49.237 448.517 9.31788 442.8" fill="#F2F2F2"/>
<path d="M105.67 330.349C91.7396 341.695 78.9599 354.385 67.5158 368.236C49.6057 389.837 35.1127 414.057 24.5417 440.05C23.7678 441.946 26.8471 442.772 27.6123 440.896C44.9083 398.652 72.5199 361.418 107.922 332.6C109.511 331.306 107.247 329.065 105.67 330.349Z" fill="white"/>
<path d="M467.266 444.908H423.306C421.82 444.907 420.396 444.316 419.346 443.265C418.296 442.215 417.705 440.791 417.703 439.305V347.937C417.705 346.451 418.296 345.027 419.346 343.977C420.396 342.927 421.82 342.336 423.306 342.334H467.266C468.752 342.336 470.176 342.927 471.226 343.977C472.277 345.027 472.867 346.451 472.869 347.937V439.305C472.867 440.791 472.277 442.215 471.226 443.265C470.176 444.316 468.752 444.907 467.266 444.908Z" fill="#343DE6"/>
<path d="M362.964 445.771H319.004C317.29 445.769 315.647 445.087 314.435 443.875C313.223 442.663 312.541 441.02 312.539 439.306V261.74C312.541 260.026 313.223 258.383 314.435 257.171C315.647 255.959 317.29 255.277 319.004 255.275H362.964C364.678 255.277 366.321 255.959 367.533 257.171C368.745 258.383 369.427 260.026 369.429 261.74V439.306C369.427 441.02 368.745 442.663 367.533 443.875C366.321 445.087 364.678 445.769 362.964 445.771ZM319.004 256.999C317.747 257.001 316.542 257.501 315.653 258.389C314.764 259.278 314.264 260.483 314.263 261.74V439.306C314.264 440.563 314.764 441.768 315.653 442.656C316.542 443.545 317.747 444.045 319.004 444.047H362.964C364.221 444.045 365.426 443.545 366.315 442.656C367.204 441.768 367.704 440.563 367.705 439.306V261.74C367.704 260.483 367.204 259.278 366.315 258.389C365.426 257.501 364.221 257.001 362.964 256.999H319.004Z" fill="#12141D"/>
<path d="M258.667 445.77H214.707C212.993 445.769 211.35 445.087 210.138 443.875C208.926 442.663 208.244 441.02 208.242 439.306V148.822C208.244 147.108 208.926 145.465 210.138 144.253C211.35 143.041 212.993 142.359 214.707 142.357H258.667C260.381 142.359 262.025 143.041 263.237 144.253C264.449 145.465 265.13 147.108 265.132 148.822V439.306C265.13 441.02 264.449 442.663 263.237 443.875C262.025 445.087 260.381 445.769 258.667 445.77ZM214.707 144.081C213.45 144.083 212.245 144.583 211.356 145.471C210.467 146.36 209.968 147.565 209.966 148.822V439.306C209.968 440.563 210.467 441.768 211.356 442.656C212.245 443.545 213.45 444.045 214.707 444.047H258.667C259.924 444.045 261.129 443.545 262.018 442.656C262.907 441.768 263.407 440.563 263.408 439.306V148.822C263.407 147.565 262.907 146.36 262.018 145.471C261.129 144.583 259.924 144.083 258.667 144.081H214.707Z" fill="#12141D"/>
<path d="M153.399 445.34H109.439C107.953 445.338 106.529 444.747 105.479 443.697C104.428 442.647 103.838 441.223 103.836 439.737V30.302C103.838 28.8166 104.428 27.3925 105.479 26.3421C106.529 25.2918 107.953 24.7009 109.439 24.6992H153.399C154.885 24.7009 156.309 25.2918 157.359 26.3421C158.409 27.3925 159 28.8166 159.002 30.302V439.737C159 441.223 158.409 442.647 157.359 443.697C156.309 444.747 154.885 445.338 153.399 445.34Z" fill="#343DE6"/>
<path d="M559.193 445.404H1.24601C0.974322 445.403 0.714026 445.295 0.522194 445.103C0.330361 444.91 0.222656 444.65 0.222656 444.378C0.222656 444.106 0.330361 443.846 0.522194 443.653C0.714026 443.461 0.974322 443.352 1.24601 443.352H559.193C559.465 443.352 559.725 443.461 559.917 443.653C560.109 443.846 560.217 444.106 560.217 444.378C560.217 444.65 560.109 444.91 559.917 445.103C559.725 445.295 559.465 445.403 559.193 445.404Z" fill="#12141D"/>
</g>
<defs>
<clipPath id="clip0_2963_13651">
<rect width="560" height="444.976" fill="white" transform="translate(0.21875 0.794922)"/>
</clipPath>
</defs>
</svg>
