<svg width="432" height="440" viewBox="0 0 432 440" fill="none" xmlns="http://www.w3.org/2000/svg">
<g clip-path="url(#clip0_2963_4885)">
<path d="M171.674 437.289L156.705 437.702C154.431 437.819 152.181 437.189 150.3 435.908C148.674 434.699 147.928 433.066 148.255 431.425L151.201 416.631C151.756 413.84 155.178 411.731 159.338 411.616L167.605 411.388C171.764 411.273 175.298 413.191 176.006 415.947L179.765 430.556C180.182 432.176 179.527 433.848 177.971 435.144C176.163 436.527 173.951 437.28 171.674 437.289Z" fill="#12141D"/>
<path d="M262.729 436.867L247.759 437.28C245.486 437.397 243.236 436.767 241.354 435.486C239.729 434.277 238.983 432.644 239.31 431.003L242.256 416.21C242.811 413.419 246.233 411.309 250.392 411.194L258.659 410.966C262.819 410.851 266.353 412.769 267.061 415.525L270.819 430.134C271.236 431.754 270.582 433.426 269.025 434.722C267.217 436.105 265.006 436.858 262.729 436.867Z" fill="#12141D"/>
<path d="M119.694 311.272C119.01 310.978 118.448 310.459 118.099 309.801C117.75 309.144 117.637 308.387 117.777 307.656C117.918 306.925 118.304 306.264 118.871 305.782C119.439 305.3 120.154 305.026 120.898 305.006L291.085 300.31C291.514 300.298 291.941 300.371 292.342 300.524C292.743 300.677 293.11 300.907 293.422 301.202C293.734 301.497 293.984 301.85 294.16 302.241C294.335 302.633 294.431 303.055 294.443 303.484C294.466 304.35 294.144 305.189 293.549 305.818C292.953 306.447 292.132 306.815 291.266 306.84L121.079 311.535C120.604 311.55 120.131 311.46 119.694 311.272Z" fill="#12141D"/>
<path d="M182.503 254.972L133.855 256.314L138.391 420.447L187.038 419.105L182.503 254.972Z" fill="#ABABFF"/>
<path d="M183.738 252.023L174.387 277.48L174.395 393.46L185.79 396.725L183.738 252.023Z" fill="#CCCCCC"/>
<path d="M157.928 212.077C148.827 212.335 141.883 228.075 142.05 234.217L142.357 245.337L175.312 244.427L175.004 233.308C174.832 227.166 167.029 211.833 157.928 212.077Z" fill="#12141D"/>
<path d="M134.488 324.286C132.787 324.331 131.138 323.7 129.903 322.532C128.667 321.363 127.946 319.753 127.897 318.054L127.397 299.958C127.35 298.258 127.981 296.609 129.15 295.374C130.32 294.139 131.932 293.419 133.633 293.372C135.334 293.325 136.984 293.955 138.22 295.124C139.456 296.292 140.177 297.904 140.224 299.604L140.724 317.7C140.769 319.399 140.138 321.047 138.969 322.281C137.799 323.516 136.188 324.237 134.488 324.286Z" fill="#12141D"/>
<path d="M146.832 256.703L146.602 244.744L149.74 244.666L149.97 256.587L152.815 430.336L149.676 430.423" fill="#12141D"/>
<path d="M188.081 284.671L131.667 286.227C126.279 279.661 125.79 251.686 137.035 246.362L141.445 238.879L175.443 237.221L179.417 245.099C185.011 249.856 187.895 277.656 188.081 284.671Z" fill="#ABABFF"/>
<path d="M166.847 271.253L152.581 271.647C149.828 271.723 147.488 268.154 147.364 263.692C147.241 259.23 149.381 255.537 152.134 255.461L166.4 255.068C169.153 254.992 171.494 258.561 171.617 263.023C171.74 267.485 169.6 271.177 166.847 271.253Z" fill="#343DE6"/>
<path d="M139.224 351.959L109.817 372.717L104.68 419.521L138.985 408.067L139.224 351.959Z" fill="#ABABFF"/>
<path d="M276.413 252.962L227.766 254.305L232.301 418.437L280.948 417.095L276.413 252.962Z" fill="#ABABFF"/>
<path d="M228.93 252.57L238.939 277.776L241.943 393.717L230.636 397.277L228.93 252.57Z" fill="#CCCCCC"/>
<path d="M300.739 207.393C304.261 207.393 307.116 203.568 307.116 198.849C307.116 194.13 304.261 190.305 300.739 190.305C297.218 190.305 294.363 194.13 294.363 198.849C294.363 203.568 297.218 207.393 300.739 207.393Z" fill="#ABABFF"/>
<path d="M250.885 210.093C241.784 210.351 234.84 226.091 235.007 232.233L235.314 243.352L268.269 242.443L267.962 231.323C267.789 225.181 259.986 209.849 250.885 210.093Z" fill="#12141D"/>
<path d="M260.304 260.448L260.074 248.489L263.213 248.41L263.443 260.332L266.288 434.081L263.149 434.168" fill="#12141D"/>
<path d="M281.041 282.686L224.627 284.243C223.644 278.302 224.916 250.577 229.995 244.378L234.405 236.895L268.404 235.236L272.377 243.115C282.415 243.932 285.926 271.177 281.041 282.686Z" fill="#ABABFF"/>
<path d="M259.876 271.766L245.61 272.16C242.857 272.236 240.501 268.106 240.358 262.956C240.216 257.806 242.34 253.553 245.093 253.477L259.359 253.083C262.112 253.007 264.468 257.136 264.611 262.287C264.753 267.437 262.629 271.69 259.876 271.766Z" fill="#343DE6"/>
<path d="M278.815 339.961L307.243 362.038L310.237 409.028L276.492 396.021L278.815 339.961Z" fill="#ABABFF"/>
<path d="M270.877 122.315C240.373 122.315 205.316 88.4882 174.299 104.56C80.3883 153.223 93.3157 71.7939 66.3359 41.5097L67.2217 39.7344C87.6466 117.591 106.127 241.654 174.707 102.495C191.886 67.6365 248.267 121.519 281.455 119.929L281.513 122.063C278.008 122.232 274.463 122.316 270.877 122.315Z" fill="#F2F2F2"/>
<path d="M344.092 127.103C319.775 145.508 271.391 139.694 256.376 171.22C210.915 266.672 172.022 193.96 132.218 186.097L131.852 184.147C171.698 187.45 214.439 182.326 255.454 169.327C292.518 157.582 325.587 140.109 351.083 118.818L352.418 120.485C349.726 122.734 346.951 124.94 344.092 127.103Z" fill="#F2F2F2"/>
<path d="M79.5793 122.913C83.1008 122.913 85.9555 119.087 85.9555 114.368C85.9555 109.65 83.1008 105.824 79.5793 105.824C76.0578 105.824 73.2031 109.65 73.2031 114.368C73.2031 119.087 76.0578 122.913 79.5793 122.913Z" fill="#ABABFF"/>
<path d="M277.341 53.5182C280.863 53.5182 283.717 49.6928 283.717 44.9739C283.717 40.2551 280.863 36.4297 277.341 36.4297C273.82 36.4297 270.965 40.2551 270.965 44.9739C270.965 49.6928 273.82 53.5182 277.341 53.5182Z" fill="#ABABFF"/>
<path d="M137.954 157.397C135.039 159.338 132.055 154.718 135.026 152.863C137.941 150.923 140.925 155.542 137.954 157.397Z" fill="#ABABFF"/>
<path d="M245.891 5.78357C242.976 7.72451 239.993 3.10488 242.964 1.25012C245.879 -0.690724 248.862 3.92891 245.891 5.78357Z" fill="#ABABFF"/>
<path d="M309.506 95.674L307.652 95.2674L308.058 93.4134L306.821 93.1426L306.415 94.9966L304.56 94.5908L304.289 95.8264L306.144 96.2329L305.738 98.0862L306.974 98.357L307.381 96.503L309.235 96.9095L309.506 95.674Z" fill="#ABABFF"/>
<path d="M139.512 33.5497C143.973 33.5497 147.59 29.9355 147.59 25.477C147.59 21.0186 143.973 17.4043 139.512 17.4043C135.05 17.4043 131.434 21.0186 131.434 25.477C131.434 29.9355 135.05 33.5497 139.512 33.5497Z" fill="#343DE6"/>
<path d="M198.6 15.2587C189.499 15.517 182.555 31.2567 182.722 37.3987L183.029 48.5183L215.984 47.6089L215.676 36.4894C215.504 30.3475 207.701 15.0148 198.6 15.2587Z" fill="#12141D"/>
<path d="M218.221 436.32L203.252 436.733C200.978 436.85 198.728 436.22 196.846 434.939C195.221 433.73 194.475 432.097 194.802 430.456L197.748 415.663C198.303 412.872 201.725 410.762 205.885 410.647L214.152 410.419C218.311 410.304 221.845 412.222 222.553 414.978L226.311 429.587C226.728 431.207 226.074 432.879 224.518 434.175C222.71 435.558 220.498 436.311 218.221 436.32Z" fill="#12141D"/>
<path d="M224.897 86.0443L176.25 87.3867L185.418 419.162L234.065 417.82L224.897 86.0443Z" fill="#ABABFF"/>
<path d="M205.433 246.644L205.203 234.685L208.342 234.607L208.572 246.528L211.417 420.277L208.277 420.364" fill="#12141D"/>
<path d="M234.473 116.41L168.558 118.229C167.409 111.287 168.895 78.8926 174.829 71.6497L176.456 63.004L221.968 61.748L224.35 70.1743C230.885 75.732 234.255 108.214 234.473 116.41Z" fill="#ABABFF"/>
<path d="M223.41 62.7687L176.444 64.0647C174.71 64.1125 173.279 63.2029 173.247 62.0331C173.242 61.8646 173.267 61.6966 173.32 61.5364L180.615 39.0771C180.927 38.1154 182.171 37.4091 183.622 37.369L214.769 36.5096C216.221 36.4696 217.501 37.1062 217.866 38.0492L226.391 60.072C226.827 61.1984 225.82 62.3705 224.142 62.69C223.9 62.7357 223.656 62.762 223.41 62.7687Z" fill="#ABABFF"/>
<path d="M181.076 245.12C180.652 244.939 180.251 244.707 179.883 244.43C179.354 244.06 178.918 243.573 178.607 243.008C178.295 242.443 178.118 241.815 178.087 241.171L176.38 179.411C176.31 176.854 178.815 174.703 181.964 174.616L224.01 173.456C227.16 173.368 229.779 175.378 229.85 177.935L231.556 239.695C231.561 240.34 231.419 240.978 231.139 241.559C230.86 242.14 230.451 242.65 229.944 243.049C228.82 243.963 227.421 244.471 225.972 244.489L183.927 245.649C182.95 245.682 181.977 245.502 181.076 245.12Z" fill="#12141D"/>
<path d="M207.986 58.7943L193.72 59.1879C190.967 59.2639 188.639 56.1558 188.531 52.2603C188.424 48.3649 190.576 45.1331 193.329 45.0571L207.595 44.6635C210.348 44.5875 212.676 47.6957 212.784 51.5911C212.891 55.4865 210.739 58.7183 207.986 58.7943Z" fill="#343DE6"/>
<path d="M399.689 399.616L400.161 383.916C405.074 380.026 410.555 377.971 416.127 377.93C408.459 387.216 409.417 405.117 404.218 417.606C402.576 421.482 400.367 424.762 397.753 427.201C395.139 429.641 392.189 431.178 389.119 431.699L382.702 437.519C381.822 430.248 382.016 422.78 383.271 415.631C384.527 408.482 386.814 401.82 389.974 396.106C391.769 392.927 393.827 390.094 396.099 387.677C397.636 393.679 399.689 399.616 399.689 399.616Z" fill="#F2F2F2"/>
<path d="M431.977 438.651C431.977 438.8 431.957 438.947 431.918 439.084C431.878 439.222 431.821 439.347 431.748 439.452C431.675 439.557 431.589 439.64 431.494 439.697C431.398 439.754 431.297 439.783 431.194 439.782H1.75939C1.55177 439.782 1.35265 439.663 1.20585 439.451C1.05904 439.239 0.976562 438.951 0.976562 438.651C0.976562 438.351 1.05904 438.063 1.20585 437.851C1.35265 437.639 1.55177 437.52 1.75939 437.52H431.194C431.297 437.519 431.398 437.548 431.494 437.605C431.589 437.661 431.675 437.745 431.748 437.85C431.821 437.955 431.878 438.08 431.918 438.217C431.957 438.355 431.977 438.502 431.977 438.651Z" fill="#12141D"/>
<path d="M277.616 320.278C275.916 320.323 274.267 319.692 273.032 318.523C271.796 317.355 271.075 315.745 271.026 314.046L270.526 295.949C270.481 294.251 271.113 292.604 272.282 291.371C273.451 290.138 275.063 289.418 276.762 289.372C278.462 289.325 280.111 289.954 281.346 291.121C282.582 292.288 283.304 293.897 283.353 295.596L283.853 313.692C283.898 315.391 283.266 317.039 282.097 318.273C280.928 319.508 279.317 320.229 277.616 320.278Z" fill="#12141D"/>
<path d="M43.2894 371.591C35.5555 371.591 30.5275 369.671 28.3022 365.853C23.9137 358.325 31.2636 345.115 50.1472 326.591L51.7335 328.206C34.1925 345.414 26.5659 358.379 30.2585 364.714C32.5952 368.722 39.5492 370.158 50.3732 368.866C61.1182 367.584 75.358 363.763 92.697 357.51C128.393 344.636 173.177 322.921 218.8 296.364C264.422 269.807 305.416 241.59 334.232 216.91C339.767 212.169 344.79 207.608 349.162 203.354C354.901 197.907 360.195 192.01 364.994 185.721C371.458 176.951 373.639 170.197 371.303 166.189C367.401 159.495 351.008 160.124 325.141 167.964L324.485 165.798C352.236 157.388 368.647 157.136 373.26 165.05C376.126 169.967 373.959 177.373 366.818 187.063C361.945 193.452 356.569 199.442 350.741 204.976C346.336 209.262 341.277 213.856 335.706 218.628C306.789 243.394 265.676 271.696 219.94 298.319C174.203 324.943 129.286 346.72 93.4659 359.639C75.9654 365.95 61.5572 369.811 50.6415 371.113C48.2024 371.417 45.7474 371.577 43.2894 371.591Z" fill="#CCCCCC"/>
</g>
<defs>
<clipPath id="clip0_2963_4885">
<rect width="431" height="439" fill="white" transform="translate(0.976562 0.783203)"/>
</clipPath>
</defs>
</svg>
